<?xml version="1.0" encoding="utf-8"?>
<!-- Generator: Adobe Illustrator 16.0.0, SVG Export Plug-In . SVG Version: 6.00 Build 0)  -->
<!DOCTYPE svg PUBLIC "-//W3C//DTD SVG 1.1//EN" "http://www.w3.org/Graphics/SVG/1.1/DTD/svg11.dtd">
<svg version="1.1" id="Layer_1" xmlns="http://www.w3.org/2000/svg" xmlns:xlink="http://www.w3.org/1999/xlink" x="0px" y="0px"
	 width="16px" height="16px" viewBox="0 0 16 16" enable-background="new 0 0 16 16" xml:space="preserve">
<path fill="#FFFFFF" d="M10.357,14.557l-6.164-6.09c-0.256-0.251-0.26-0.663-0.01-0.919c0.004-0.003,0.006-0.006,0.01-0.009
	l6.164-6.094c0.378-0.37,0.981-0.37,1.359,0c0.372,0.365,0.375,0.964,0.01,1.334c-0.003,0.004-0.006,0.007-0.01,0.01L6.446,8
	l5.272,5.21c0.372,0.365,0.377,0.964,0.011,1.335c-0.003,0.003-0.007,0.007-0.011,0.011C11.34,14.926,10.736,14.926,10.357,14.557"
	/>
</svg>
