<?xml version="1.0" encoding="utf-8"?>
<!-- Generator: Adobe Illustrator 16.0.0, SVG Export Plug-In . SVG Version: 6.00 Build 0)  -->
<!DOCTYPE svg PUBLIC "-//W3C//DTD SVG 1.1//EN" "http://www.w3.org/Graphics/SVG/1.1/DTD/svg11.dtd">
<svg version="1.1" id="Layer_1" xmlns="http://www.w3.org/2000/svg" xmlns:xlink="http://www.w3.org/1999/xlink" x="0px" y="0px"
	 width="16px" height="16px" viewBox="0 0 16 16" enable-background="new 0 0 16 16" xml:space="preserve">
<path fill="#DE4B4B" d="M5.643,1.443l6.163,6.09c0.256,0.251,0.26,0.663,0.01,0.919c-0.004,0.003-0.006,0.006-0.01,0.009
	l-6.163,6.094c-0.378,0.37-0.982,0.37-1.36,0c-0.372-0.365-0.375-0.964-0.009-1.334c0.003-0.004,0.006-0.007,0.009-0.01L9.554,8
	L4.282,2.79C3.91,2.424,3.905,1.826,4.271,1.455c0.003-0.003,0.007-0.007,0.01-0.011C4.66,1.075,5.264,1.075,5.643,1.443"/>
</svg>
