<?xml version="1.0" encoding="utf-8"?>
<!-- Generator: Adobe Illustrator 16.0.0, SVG Export Plug-In . SVG Version: 6.00 Build 0)  -->
<!DOCTYPE svg PUBLIC "-//W3C//DTD SVG 1.1//EN" "http://www.w3.org/Graphics/SVG/1.1/DTD/svg11.dtd">
<svg version="1.1" xmlns="http://www.w3.org/2000/svg" xmlns:xlink="http://www.w3.org/1999/xlink" x="0px" y="0px" width="16px"
	 height="16px" viewBox="0 0 16 16" enable-background="new 0 0 16 16" xml:space="preserve">
<g id="Layer_1">
</g>
<g id="Layer_2">
	<path fill="#C3C3C3" d="M8,0.541c-4.119,0-7.459,3.34-7.459,7.459c0,4.12,3.34,7.459,7.459,7.459c4.12,0,7.459-3.339,7.459-7.459
		C15.459,3.881,12.12,0.541,8,0.541z M8.189,3.726c0.367-0.4,0.992-0.443,1.339-0.091C9.683,3.792,9.764,4.001,9.764,4.24
		c0,0.298-0.104,0.563-0.309,0.789C9.242,5.263,8.993,5.38,8.716,5.38c-0.231,0-0.437-0.086-0.592-0.25
		C7.969,4.967,7.89,4.758,7.89,4.509C7.89,4.205,7.991,3.941,8.189,3.726z M9.748,11.762c-0.729,0.685-1.249,1.113-1.594,1.309
		c-0.371,0.213-0.676,0.316-0.935,0.316s-0.479-0.091-0.637-0.263c-0.155-0.165-0.235-0.389-0.235-0.663
		c0-0.677,0.383-2.243,1.167-4.787c0.003-0.009,0.006-0.019,0.008-0.028c-0.005,0.003-0.011,0.006-0.017,0.01
		C7.443,7.696,7.25,7.847,6.682,8.403L6.503,8.577L5.721,7.973L5.93,7.744C6.46,7.159,6.957,6.735,7.404,6.482
		c0.783-0.442,1.431-0.51,1.78-0.221C9.338,6.387,9.42,6.564,9.42,6.774c0,0.086,0,0.265-0.511,1.976
		c-0.584,1.959-0.761,2.775-0.796,3.102c0.142-0.096,0.423-0.313,0.942-0.801l0.2-0.188l0.711,0.693L9.748,11.762z"/>
</g>
</svg>
