<?xml version="1.0" encoding="utf-8"?>
<!-- Generator: Adobe Illustrator 16.0.0, SVG Export Plug-In . SVG Version: 6.00 Build 0)  -->
<!DOCTYPE svg PUBLIC "-//W3C//DTD SVG 1.1//EN" "http://www.w3.org/Graphics/SVG/1.1/DTD/svg11.dtd">
<svg version="1.1" id="Camada_1" xmlns="http://www.w3.org/2000/svg" xmlns:xlink="http://www.w3.org/1999/xlink" x="0px" y="0px"
	 width="623.002px" height="194.129px" viewBox="-197.576 19.261 623.002 194.129"
	 enable-background="new -197.576 19.261 623.002 194.129" xml:space="preserve">
<path fill="#FFFFFF" d="M-196.82,204.063l-0.756-0.654C-162.46,162.897-28.955,29.945,214.63,19.936
	c72.099-2.962,142.95,3.839,210.597,20.213l-0.234,0.972c-67.557-16.352-138.319-23.147-210.321-20.186
	C-28.513,30.928-161.771,163.63-196.82,204.063z M217.25,25.549c70.095-2.246,139.979,5.788,207.729,23.884l0.258-0.966
	C357.393,30.346,287.408,22.303,217.221,24.55C-26.405,31.215-161.86,163.59-197.573,204.002l0.749,0.662
	C-161.179,164.328-25.975,32.204,217.25,25.549z M219.827,30.163c69.481-1.23,138.493,8.12,205.137,27.786l0.283-0.959
	c-66.741-19.696-135.854-29.048-205.437-27.827c-243.655,3.928-381.068,135.296-417.38,175.465l0.742,0.67
	C-160.584,165.205-23.426,34.084,219.827,30.163z M222.404,34.772c0.946-0.004,1.889-0.006,2.834-0.006
	c67.915,0,135.095,10.622,199.717,31.582l0.309-0.951c-64.727-20.994-132.002-31.631-200.025-31.631
	c-0.942,0-1.895,0.002-2.838,0.006c-243.694,0.832-383.058,131.439-419.966,171.449l0.735,0.678
	C-159.992,165.964-20.886,35.602,222.404,34.772z M218.585,39.354c2.123,0,4.258,0.01,6.396,0.03
	c68.305,0.632,135.582,12.525,199.965,35.351l0.334-0.942C360.793,50.93,293.406,39.017,224.991,38.384
	c-2.157-0.021-4.265-0.03-6.405-0.03c-239.779,0-378.975,127.944-416.148,167.449l0.729,0.686
	C-159.728,167.055-20.82,39.354,218.585,39.354z M212.541,43.825c4.95,0,9.982,0.056,15.018,0.17
	c67.743,1.571,134.147,14.731,197.369,39.115l0.359-0.933C361.958,57.752,295.44,44.569,227.582,42.995
	c-5.06-0.114-10.068-0.169-15.04-0.169c-234.626,0-372.79,124.661-410.102,163.552l0.722,0.691
	C-159.594,168.249-21.718,43.825,212.541,43.825z M206.609,48.185c7.724,0,15.594,0.138,23.526,0.422
	c67.199,2.517,132.732,16.942,194.779,42.873l0.385-0.923c-62.157-25.978-127.808-40.428-195.128-42.949
	C-13.615,38.88-158.853,167.359-197.556,206.941l0.715,0.699C-159.469,169.421-22.63,48.185,206.609,48.185z M232.714,53.215
	c65.621,3.231,130.283,18.914,192.189,46.614l0.408-0.913c-62.02-27.75-126.803-43.463-192.549-46.7
	c-10.864-0.534-21.497-0.79-31.976-0.79c-224.715,0-360.788,118.37-398.339,156.07l0.708,0.705
	C-157.615,168.817-10.69,41.239,232.714,53.215z M235.292,57.828c64.706,4.063,128.497,21.003,189.601,50.352l0.434-0.901
	C364.105,77.874,300.189,60.901,235.354,56.83C-8.492,41.528-157.645,168.698-197.549,208.041l0.702,0.713
	C-157.018,169.484-8.144,42.542,235.292,57.828z M237.864,62.438c63.802,4.888,126.721,23.081,187.009,54.074l0.457-0.89
	C364.923,84.568,301.876,66.338,237.94,61.44c-104.825-8.029-204.361,9.747-295.844,52.831
	c-74.27,34.978-122.397,77.605-139.642,94.308l0.696,0.719C-156.416,170.132-5.581,43.794,237.864,62.438z M240.446,67.048
	c62.879,5.698,124.926,25.139,184.417,57.784l0.48-0.877c-59.612-32.711-121.79-52.193-184.808-57.903
	c-104.864-9.501-204.817,7.19-297.078,49.611c-74.814,34.399-123.529,76.81-141.001,93.446l0.689,0.725
	C-155.82,170.76-3.014,44.981,240.446,67.048z M243.023,71.659c61.97,6.498,123.146,27.185,181.83,61.484l0.504-0.863
	c-58.807-34.372-120.117-55.103-182.23-61.615c-104.896-11-205.261,4.596-298.301,46.357
	c-75.355,33.823-124.664,76.033-142.366,92.61l0.684,0.73C-155.218,171.369-0.449,46.13,243.023,71.659z M245.601,76.27
	c61.066,7.287,121.373,29.215,179.245,65.176l0.527-0.85c-57.997-36.038-118.441-58.015-179.653-65.319
	C140.79,62.754,40.019,77.248-53.802,118.352c-75.892,33.25-125.8,75.271-143.735,91.794l0.678,0.736
	C-154.611,171.959,2.16,47.219,245.601,76.27z M248.175,80.878c60.166,8.064,119.602,31.231,176.657,68.856l0.551-0.834
	C368.2,111.191,308.624,87.972,248.308,79.887c-104.945-14.068-206.126-0.69-300.731,39.762
	c-76.438,32.685-126.943,74.532-145.11,91.007l0.672,0.74C-154.002,172.528,4.761,48.249,248.175,80.878z M250.755,85.491
	c59.254,8.83,117.818,33.228,174.064,72.516l0.572-0.82c-56.374-39.377-115.081-63.832-174.49-72.685
	C145.942,68.86,44.353,81.111-51.038,120.915c-76.985,32.124-128.093,73.812-146.493,90.245l0.666,0.746
	C-153.392,173.079,7.366,49.222,250.755,85.491z M253.33,90.099c58.367,9.588,116.061,35.216,171.477,76.172l0.594-0.805
	c-55.544-41.051-113.383-66.74-171.908-76.354C148.529,71.872,46.537,82.986-49.643,122.146
	c-77.525,31.564-129.247,73.11-147.885,89.507l0.66,0.75C-152.769,173.608,10.028,50.133,253.33,90.099z M255.908,94.709
	c57.445,10.229,114.27,37.058,168.894,79.74l0.615-0.787c-54.754-42.785-111.726-69.68-169.332-79.938
	C151.15,74.687,48.77,84.59-48.214,123.159c-78.075,31.048-130.427,72.562-149.312,88.968l0.656,0.756
	C-152.126,174.008,12.767,50.601,255.908,94.709z M258.483,99.318c56.267,11.001,112.221,39.161,166.308,83.695l0.635-0.771
	C371.21,137.6,315.107,109.371,258.675,98.336C153.729,77.817,50.941,86.625-46.83,124.515
	c-78.631,30.472-131.579,71.772-150.693,88.115l0.649,0.76C-151.518,174.612,15.357,51.779,258.483,99.318z"/>
</svg>
