<?xml version="1.0" standalone="no"?>
<!DOCTYPE svg PUBLIC "-//W3C//DTD SVG 1.1//EN" "http://www.w3.org/Graphics/SVG/1.1/DTD/svg11.dtd" >
<svg>
<metadata>
Created by FontForge 20090914 at Mon Aug 26 20:53:42 2019
 By www-data
&#194;&#169; 2015-2017 Apple Inc. All rights reserved.
</metadata>
<defs>
<font id="SFProText-Semibold" horiz-adv-x="1800" >
  <font-face 
    font-family="SF Pro Text"
    font-weight="600"
    font-stretch="normal"
    units-per-em="2048"
    panose-1="0 0 7 0 0 0 0 0 0 0"
    ascent="1638"
    descent="-410"
    x-height="1094"
    cap-height="1443"
    bbox="-616 -571.002 2756 2215"
    underline-thickness="169"
    underline-position="-373"
    unicode-range="U+0020-U+1F189"
  />
<missing-glyph horiz-adv-x="2048" 
d="M100 -494v229h1848v-229h-1848zM100 -51v229h1848v-229h-1848zM100 392v229h1848v-229h-1848zM100 835v229h1848v-229h-1848zM100 1278v229h1848v-229h-1848zM100 1721v229h1848v-229h-1848z" />
    <glyph glyph-name="uni2460" unicode="&#x31;&#x20dd;" 
d="M1022 384h-175v532h-9l-160 -108v155l169 114h175v-693zM900 108c111.333 0 213.666 27.333 306.999 82s166.666 128.834 219.999 222.501s80 196.167 80 307.5s-26.667 213.833 -80 307.5s-126.666 167.834 -219.999 222.501s-195.666 82 -306.999 82
s-213.666 -27.333 -306.999 -82s-166.666 -128.834 -219.999 -222.501s-80 -196.167 -80 -307.5s26.667 -213.833 80 -307.5s126.666 -167.834 219.999 -222.501s195.666 -82 306.999 -82zM900 -53c-105.333 0 -205.666 20.333 -300.999 61s-177.666 95.5 -246.999 164.5
s-124.333 151.333 -165 247s-61 196.167 -61 301.5s20.333 205.833 61 301.5s95.667 177.834 165 246.501s151.666 123.334 246.999 164.001s195.666 61 300.999 61s205.666 -20.333 300.999 -61s177.666 -95.334 246.999 -164.001s124.333 -150.834 165 -246.501
s61 -196.167 61 -301.5s-20.333 -205.833 -61 -301.5s-95.667 -178 -165 -247s-151.666 -123.833 -246.999 -164.5s-195.666 -61 -300.999 -61z" />
    <glyph glyph-name="uni2461" unicode="&#x32;&#x20dd;" 
d="M803 857l-163.002 0.00292969v4c0 64.667 23 118.667 69 162s110 65 192 65c76 0 137.667 -18.833 185 -56.5s71 -85.834 71 -144.501c0 -38.667 -10.5 -73.834 -31.5 -105.501s-53.833 -68.5 -98.5 -110.5l-140 -140v-7h281v-140h-519v109l257 251
c26.667 26 46.334 48.333 59.001 67s19 39 19 61c0 23.333 -8.16699 42.166 -24.5 56.499s-37.5 21.5 -63.5 21.5c-29.333 0 -52.166 -8.33301 -68.499 -25s-24.5 -38 -24.5 -64v-4zM899.998 108.003c111.333 0 213.666 27.333 306.999 82s166.666 128.834 219.999 222.501
s80 196.167 80 307.5s-26.667 213.833 -80 307.5s-126.666 167.834 -219.999 222.501s-195.666 82 -306.999 82s-213.666 -27.333 -306.999 -82s-166.666 -128.834 -219.999 -222.501s-80 -196.167 -80 -307.5s26.667 -213.833 80 -307.5s126.666 -167.834 219.999 -222.501
s195.666 -82 306.999 -82zM899.998 -52.9971c-105.333 0 -205.666 20.333 -300.999 61s-177.666 95.5 -246.999 164.5s-124.333 151.333 -165 247s-61 196.167 -61 301.5s20.333 205.833 61 301.5s95.667 177.834 165 246.501s151.666 123.334 246.999 164.001
s195.666 61 300.999 61s205.666 -20.333 300.999 -61s177.666 -95.334 246.999 -164.001s124.333 -150.834 165 -246.501s61 -196.167 61 -301.5s-20.333 -205.833 -61 -301.5s-95.667 -178 -165 -247s-151.666 -123.833 -246.999 -164.5s-195.666 -61 -300.999 -61z" />
    <glyph glyph-name="uni2462" unicode="&#x33;&#x20dd;" 
d="M823 672l-0.000976562 131.003h72c28.667 0 52 7.66699 70 23s27 34.666 27 57.999c-0.666992 22.667 -9.83398 41 -27.501 55s-40.834 21 -69.501 21s-52.167 -7.83301 -70.5 -23.5s-28.166 -34.5 -29.499 -56.5h-162c2.66699 63.333 27 113.833 73 151.5
s110.333 56.5 193 56.5c78 0 140.667 -16.833 188 -50.5s71.666 -77.834 72.999 -132.501c0.666992 -40 -13 -74.167 -41 -102.5s-58.667 -45.166 -92 -50.499v-8c40 -4 75.333 -20.5 106 -49.5s46.334 -67.5 47.001 -115.5
c0.666992 -62.667 -25.666 -112.834 -78.999 -150.501s-121.666 -56.5 -204.999 -56.5c-82.667 0 -148.5 19.667 -197.5 59s-74.167 89.666 -75.5 150.999h160c1.33301 -23.333 12.333 -42.166 33 -56.499s47 -21.833 79 -22.5c34 0 61.5 8 82.5 24s31.5 36.333 31.5 61
c-0.666992 25.333 -11 45.666 -31 60.999s-46.667 23 -80 23h-75zM899.999 108.003c111.333 0 213.666 27.333 306.999 82s166.666 128.834 219.999 222.501s80 196.167 80 307.5s-26.667 213.833 -80 307.5s-126.666 167.834 -219.999 222.501s-195.666 82 -306.999 82
s-213.666 -27.333 -306.999 -82s-166.666 -128.834 -219.999 -222.501s-80 -196.167 -80 -307.5s26.667 -213.833 80 -307.5s126.666 -167.834 219.999 -222.501s195.666 -82 306.999 -82zM899.999 -52.9971c-105.333 0 -205.666 20.333 -300.999 61
s-177.666 95.5 -246.999 164.5s-124.333 151.333 -165 247s-61 196.167 -61 301.5s20.333 205.833 61 301.5s95.667 177.834 165 246.501s151.666 123.334 246.999 164.001s195.666 61 300.999 61s205.666 -20.333 300.999 -61s177.666 -95.334 246.999 -164.001
s124.333 -150.834 165 -246.501s61 -196.167 61 -301.5s-20.333 -205.833 -61 -301.5s-95.667 -178 -165 -247s-151.666 -123.833 -246.999 -164.5s-195.666 -61 -300.999 -61z" />
    <glyph glyph-name="uni2463" unicode="&#x34;&#x20dd;" 
d="M842 1077l241 -0.000976562v-439h94v-134h-94v-120h-151v120h-348v136c38.667 72.667 124.667 218.334 258 437.001zM737 637.999l195 0.000976562v313h-11c-80 -128.667 -141.333 -232.334 -184 -311.001v-2zM900 108c111.333 0 213.666 27.333 306.999 82
s166.666 128.834 219.999 222.501s80 196.167 80 307.5s-26.667 213.833 -80 307.5s-126.666 167.834 -219.999 222.501s-195.666 82 -306.999 82s-213.666 -27.333 -306.999 -82s-166.666 -128.834 -219.999 -222.501s-80 -196.167 -80 -307.5s26.667 -213.833 80 -307.5
s126.666 -167.834 219.999 -222.501s195.666 -82 306.999 -82zM900 -53c-105.333 0 -205.666 20.333 -300.999 61s-177.666 95.5 -246.999 164.5s-124.333 151.333 -165 247s-61 196.167 -61 301.5s20.333 205.833 61 301.5s95.667 177.834 165 246.501
s151.666 123.334 246.999 164.001s195.666 61 300.999 61s205.666 -20.333 300.999 -61s177.666 -95.334 246.999 -164.001s124.333 -150.834 165 -246.501s61 -196.167 61 -301.5s-20.333 -205.833 -61 -301.5s-95.667 -178 -165 -247s-151.666 -123.833 -246.999 -164.5
s-195.666 -61 -300.999 -61z" />
    <glyph glyph-name="uni2464" unicode="&#x35;&#x20dd;" 
d="M639 581l160.999 -0.00195312c4.66699 -23.333 17.334 -41.166 38.001 -53.499s44.667 -18.5 72 -18.5c30.667 0 57 10.333 79 31s33 47.667 33 81c0 30.667 -11 55.834 -33 75.501s-48.667 29.5 -80 29.5c-24.667 0 -45.834 -5.5 -63.501 -16.5
s-30.5 -23.833 -38.5 -38.5h-154l29 409h464v-130h-330l-14 -165h8c10 16.667 28.333 31.5 55 44.5s58 19.5 94 19.5c66.667 0 121.834 -20.167 165.501 -60.5s65.5 -94.833 65.5 -163.5c0 -75.333 -25.833 -135.833 -77.5 -181.5s-120.167 -68.5 -205.5 -68.5
c-78 0 -141.667 19.333 -191 58s-75 88 -77 148zM899.999 107.998c111.333 0 213.666 27.333 306.999 82s166.666 128.834 219.999 222.501s80 196.167 80 307.5s-26.667 213.833 -80 307.5s-126.666 167.834 -219.999 222.501s-195.666 82 -306.999 82
s-213.666 -27.333 -306.999 -82s-166.666 -128.834 -219.999 -222.501s-80 -196.167 -80 -307.5s26.667 -213.833 80 -307.5s126.666 -167.834 219.999 -222.501s195.666 -82 306.999 -82zM899.999 -53.002c-105.333 0 -205.666 20.333 -300.999 61
s-177.666 95.5 -246.999 164.5s-124.333 151.333 -165 247s-61 196.167 -61 301.5s20.333 205.833 61 301.5s95.667 177.834 165 246.501s151.666 123.334 246.999 164.001s195.666 61 300.999 61s205.666 -20.333 300.999 -61s177.666 -95.334 246.999 -164.001
s124.333 -150.834 165 -246.501s61 -196.167 61 -301.5s-20.333 -205.833 -61 -301.5s-95.667 -178 -165 -247s-151.666 -123.833 -246.999 -164.5s-195.666 -61 -300.999 -61z" />
    <glyph glyph-name="uni2465" unicode="&#x36;&#x20dd;" 
d="M1178 626c0 -76 -25.333 -137.335 -76 -184.002s-117.334 -70 -200.001 -70c-83.333 0 -151.166 23.833 -203.499 71.5s-78.5 109.834 -78.5 186.501c0 84 32.333 172 97 264c7.33301 11.333 28.5 40.166 63.5 86.499s59.833 78.5 74.5 96.5h202
c-17.333 -19.333 -49.333 -58.333 -96 -117s-76 -96.667 -88 -114c-7.33301 -9.33301 -16 -22.666 -26 -39.999l9 -1c30 24.667 67.667 37 113 37c60 0 109.833 -20.667 149.5 -62s59.5 -92.666 59.5 -153.999zM791 616.998c0 -30.667 10.333 -56.167 31 -76.5
s47 -30.5 79 -30.5s58.333 10.167 79 30.5s31 45.833 31 76.5s-10.333 56.167 -31 76.5s-47 30.5 -79 30.5s-58.333 -10.167 -79 -30.5s-31 -45.833 -31 -76.5zM900 107.998c111.333 0 213.666 27.333 306.999 82s166.666 128.834 219.999 222.501s80 196.167 80 307.5
s-26.667 213.833 -80 307.5s-126.666 167.834 -219.999 222.501s-195.666 82 -306.999 82s-213.666 -27.333 -306.999 -82s-166.666 -128.834 -219.999 -222.501s-80 -196.167 -80 -307.5s26.667 -213.833 80 -307.5s126.666 -167.834 219.999 -222.501
s195.666 -82 306.999 -82zM900 -53.002c-105.333 0 -205.666 20.333 -300.999 61s-177.666 95.5 -246.999 164.5s-124.333 151.333 -165 247s-61 196.167 -61 301.5s20.333 205.833 61 301.5s95.667 177.834 165 246.501s151.666 123.334 246.999 164.001
s195.666 61 300.999 61s205.666 -20.333 300.999 -61s177.666 -95.334 246.999 -164.001s124.333 -150.834 165 -246.501s61 -196.167 61 -301.5s-20.333 -205.833 -61 -301.5s-95.667 -178 -165 -247s-151.666 -123.833 -246.999 -164.5s-195.666 -61 -300.999 -61z" />
    <glyph glyph-name="uni2466" unicode="&#x37;&#x20dd;" 
d="M650 1070h524v-141l-282 -551h-185l290 546v7h-347v139zM900 108c111.333 0 213.666 27.333 306.999 82s166.666 128.834 219.999 222.501s80 196.167 80 307.5s-26.667 213.833 -80 307.5s-126.666 167.834 -219.999 222.501s-195.666 82 -306.999 82
s-213.666 -27.333 -306.999 -82s-166.666 -128.834 -219.999 -222.501s-80 -196.167 -80 -307.5s26.667 -213.833 80 -307.5s126.666 -167.834 219.999 -222.501s195.666 -82 306.999 -82zM900 -53c-105.333 0 -205.666 20.333 -300.999 61s-177.666 95.5 -246.999 164.5
s-124.333 151.333 -165 247s-61 196.167 -61 301.5s20.333 205.833 61 301.5s95.667 177.834 165 246.501s151.666 123.334 246.999 164.001s195.666 61 300.999 61s205.666 -20.333 300.999 -61s177.666 -95.334 246.999 -164.001s124.333 -150.834 165 -246.501
s61 -196.167 61 -301.5s-20.333 -205.833 -61 -301.5s-95.667 -178 -165 -247s-151.666 -123.833 -246.999 -164.5s-195.666 -61 -300.999 -61z" />
    <glyph glyph-name="uni2467" unicode="&#x38;&#x20dd;" 
d="M900 492c34 0 62.001 9.16797 84.001 27.501s33 41.833 33 70.5c0 29.333 -10.833 53.166 -32.5 71.499s-49.834 27.5 -84.501 27.5c-34 0 -62.167 -9.5 -84.5 -28.5s-33.5 -42.5 -33.5 -70.5c0 -28.667 11 -52.167 33 -70.5s50.333 -27.5 85 -27.5zM900.001 799.001
c28.667 0 52 8 70 24s27 36.333 27 61s-9.16699 44.834 -27.5 60.501s-41.5 23.5 -69.5 23.5s-51.167 -7.83301 -69.5 -23.5s-27.5 -35.834 -27.5 -60.501s9 -45 27 -61s41.333 -24 70 -24zM899.001 372.001c-89.333 0 -160.5 18.499 -213.5 55.499
s-79.5 86.833 -79.5 149.5c0 43.333 14 80.5 42 111.5s65.333 50.167 112 57.5v7c-83.333 24.667 -125 75 -125 151c0 55.333 24.333 99.833 73 133.5s112.667 50.5 192 50.5s143.333 -16.833 192 -50.5s73 -78.167 73 -133.5c0 -36.667 -10.833 -68.167 -32.5 -94.5
s-52.5 -45.166 -92.5 -56.499v-7c46.667 -7.33301 84 -26.333 112 -57s42 -67.667 42 -111c0 -62.667 -26.833 -112.667 -80.5 -150s-125.167 -56 -214.5 -56zM900.001 108c111.333 0 213.666 27.333 306.999 82s166.666 128.834 219.999 222.501s80 196.167 80 307.5
s-26.667 213.833 -80 307.5s-126.666 167.834 -219.999 222.501s-195.666 82 -306.999 82s-213.666 -27.333 -306.999 -82s-166.666 -128.834 -219.999 -222.501s-80 -196.167 -80 -307.5s26.667 -213.833 80 -307.5s126.666 -167.834 219.999 -222.501
s195.666 -82 306.999 -82zM900.001 -53c-105.333 0 -205.666 20.333 -300.999 61s-177.666 95.5 -246.999 164.5s-124.333 151.333 -165 247s-61 196.167 -61 301.5s20.333 205.833 61 301.5s95.667 177.834 165 246.501s151.666 123.334 246.999 164.001
s195.666 61 300.999 61s205.666 -20.333 300.999 -61s177.666 -95.334 246.999 -164.001s124.333 -150.834 165 -246.501s61 -196.167 61 -301.5s-20.333 -205.833 -61 -301.5s-95.667 -178 -165 -247s-151.666 -123.833 -246.999 -164.5s-195.666 -61 -300.999 -61z" />
    <glyph glyph-name="uni2468" unicode="&#x39;&#x20dd;" 
d="M620 835c0 75.333 25.502 136.499 76.502 183.499s117.833 70.5 200.5 70.5c83.333 0 151.166 -24 203.499 -72s78.5 -110.333 78.5 -187c0 -83.333 -32.333 -171 -97 -263c-8 -12.667 -30 -42.667 -66 -90s-60.333 -78.333 -73 -93h-202
c16.667 18.667 48.5 57.334 95.5 116.001s76.5 96.667 88.5 114c11.333 16 20.333 29.667 27 41l-9 1c-30 -24.667 -67.667 -37 -113 -37c-60.667 0 -110.834 20.5 -150.501 61.5s-59.5 92.5 -59.5 154.5zM1008 843.999c0 30.667 -10.5 56 -31.5 76s-47.167 30 -78.5 30
c-32 0 -58.333 -10 -79 -30s-31 -45.333 -31 -76s10.333 -56.167 31 -76.5s47 -30.5 79 -30.5c31.333 0 57.5 10.167 78.5 30.5s31.5 45.833 31.5 76.5zM900.002 107.999c111.333 0 213.666 27.333 306.999 82s166.666 128.834 219.999 222.501s80 196.167 80 307.5
s-26.667 213.833 -80 307.5s-126.666 167.834 -219.999 222.501s-195.666 82 -306.999 82s-213.666 -27.333 -306.999 -82s-166.666 -128.834 -219.999 -222.501s-80 -196.167 -80 -307.5s26.667 -213.833 80 -307.5s126.666 -167.834 219.999 -222.501
s195.666 -82 306.999 -82zM900.002 -53.001c-105.333 0 -205.666 20.333 -300.999 61s-177.666 95.5 -246.999 164.5s-124.333 151.333 -165 247s-61 196.167 -61 301.5s20.333 205.833 61 301.5s95.667 177.834 165 246.501s151.666 123.334 246.999 164.001
s195.666 61 300.999 61s205.666 -20.333 300.999 -61s177.666 -95.334 246.999 -164.001s124.333 -150.834 165 -246.501s61 -196.167 61 -301.5s-20.333 -205.833 -61 -301.5s-95.667 -178 -165 -247s-151.666 -123.833 -246.999 -164.5s-195.666 -61 -300.999 -61z" />
    <glyph glyph-name="uni24B6" unicode="A&#x20dd;" 
d="M815 688h170l-78 256h-14zM736 408h-173l233 692h208l233 -692h-173l-47 153h-234zM900 108c111.333 0 213.666 27.333 306.999 82s166.666 128.834 219.999 222.501s80 196.167 80 307.5s-26.667 213.833 -80 307.5s-126.666 167.834 -219.999 222.501
s-195.666 82 -306.999 82s-213.666 -27.333 -306.999 -82s-166.666 -128.834 -219.999 -222.501s-80 -196.167 -80 -307.5s26.667 -213.833 80 -307.5s126.666 -167.834 219.999 -222.501s195.666 -82 306.999 -82zM900 -53c-105.333 0 -205.666 20.333 -300.999 61
s-177.666 95.5 -246.999 164.5s-124.333 151.333 -165 247s-61 196.167 -61 301.5s20.333 205.833 61 301.5s95.667 177.834 165 246.501s151.666 123.334 246.999 164.001s195.666 61 300.999 61s205.666 -20.333 300.999 -61s177.666 -95.334 246.999 -164.001
s124.333 -150.834 165 -246.501s61 -196.167 61 -301.5s-20.333 -205.833 -61 -301.5s-95.667 -178 -165 -247s-151.666 -123.833 -246.999 -164.5s-195.666 -61 -300.999 -61z" />
    <glyph glyph-name="uni24B7" unicode="B&#x20dd;" 
d="M643 384l-0.000976562 693.001h325c66 0 118.167 -15.333 156.5 -46s57.5 -72.334 57.5 -125.001c0 -39.333 -11.667 -72.166 -35 -98.499s-54.333 -43.5 -93 -51.5v-8c48.667 -6 87.834 -23.833 117.501 -53.5s44.5 -68.834 44.5 -117.501
c0 -58.667 -22.667 -105.5 -68 -140.5s-104.333 -52.5 -177 -52.5h-328zM807.999 959.001v-164.999h86c82.667 0 124 28 124 84c0 25.333 -8.66699 45.166 -26 59.499s-41.333 21.5 -72 21.5h-112zM807.999 689.002v-181.999h96c92.667 0 139 29.667 139 89
c0 29.333 -10 52.166 -30 68.499s-48.333 24.5 -85 24.5h-120zM899.999 108.003c111.333 0 213.666 27.333 306.999 82s166.666 128.834 219.999 222.501s80 196.167 80 307.5s-26.667 213.833 -80 307.5s-126.666 167.834 -219.999 222.501s-195.666 82 -306.999 82
s-213.666 -27.333 -306.999 -82s-166.666 -128.834 -219.999 -222.501s-80 -196.167 -80 -307.5s26.667 -213.833 80 -307.5s126.666 -167.834 219.999 -222.501s195.666 -82 306.999 -82zM899.999 -52.9971c-105.333 0 -205.666 20.333 -300.999 61
s-177.666 95.5 -246.999 164.5s-124.333 151.333 -165 247s-61 196.167 -61 301.5s20.333 205.833 61 301.5s95.667 177.834 165 246.501s151.666 123.334 246.999 164.001s195.666 61 300.999 61s205.666 -20.333 300.999 -61s177.666 -95.334 246.999 -164.001
s124.333 -150.834 165 -246.501s61 -196.167 61 -301.5s-20.333 -205.833 -61 -301.5s-95.667 -178 -165 -247s-151.666 -123.833 -246.999 -164.5s-195.666 -61 -300.999 -61z" />
    <glyph glyph-name="uni24B8" unicode="C&#x20dd;" 
d="M1044 625l166 -0.000976562c-7.33301 -75.333 -39.333 -136.333 -96 -183s-128.334 -70 -215.001 -70c-98 0 -178 32.5 -240 97.5s-93 151.833 -93 260.5c0 108 31 194.667 93 260s142 98 240 98c88 0 160.333 -23.667 217 -71s88.334 -109.666 95.001 -186.999h-164
c-4 33.333 -19.667 60.833 -47 82.5s-60 32.5 -98 32.5c-49.333 0 -88.666 -19.333 -117.999 -58s-44 -91 -44 -157s14.667 -118.333 44 -157s68.666 -58 117.999 -58c37.333 0 69.333 10.333 96 31s42 47 46 79zM900 107.999c111.333 0 213.666 27.333 306.999 82
s166.666 128.834 219.999 222.501s80 196.167 80 307.5s-26.667 213.833 -80 307.5s-126.666 167.834 -219.999 222.501s-195.666 82 -306.999 82s-213.666 -27.333 -306.999 -82s-166.666 -128.834 -219.999 -222.501s-80 -196.167 -80 -307.5s26.667 -213.833 80 -307.5
s126.666 -167.834 219.999 -222.501s195.666 -82 306.999 -82zM900 -53.001c-105.333 0 -205.666 20.333 -300.999 61s-177.666 95.5 -246.999 164.5s-124.333 151.333 -165 247s-61 196.167 -61 301.5s20.333 205.833 61 301.5s95.667 177.834 165 246.501
s151.666 123.334 246.999 164.001s195.666 61 300.999 61s205.666 -20.333 300.999 -61s177.666 -95.334 246.999 -164.001s124.333 -150.834 165 -246.501s61 -196.167 61 -301.5s-20.333 -205.833 -61 -301.5s-95.667 -178 -165 -247s-151.666 -123.833 -246.999 -164.5
s-195.666 -61 -300.999 -61z" />
    <glyph glyph-name="uni24B9" unicode="D&#x20dd;" 
d="M639 1077h283c106.667 0 187.167 -29.667 241.5 -89s81.5 -145 81.5 -257s-27.167 -197.833 -81.5 -257.5s-134.833 -89.5 -241.5 -89.5h-283v693zM809 940v-418.999h87c59.333 0 103 17 131 51s42 86.667 42 158s-14 124.166 -42 158.499s-71.667 51.5 -131 51.5h-87z
M900 108.001c111.333 0 213.666 27.333 306.999 82s166.666 128.834 219.999 222.501s80 196.167 80 307.5s-26.667 213.833 -80 307.5s-126.666 167.834 -219.999 222.501s-195.666 82 -306.999 82s-213.666 -27.333 -306.999 -82s-166.666 -128.834 -219.999 -222.501
s-80 -196.167 -80 -307.5s26.667 -213.833 80 -307.5s126.666 -167.834 219.999 -222.501s195.666 -82 306.999 -82zM900 -52.999c-105.333 0 -205.666 20.333 -300.999 61s-177.666 95.5 -246.999 164.5s-124.333 151.333 -165 247s-61 196.167 -61 301.5
s20.333 205.833 61 301.5s95.667 177.834 165 246.501s151.666 123.334 246.999 164.001s195.666 61 300.999 61s205.666 -20.333 300.999 -61s177.666 -95.334 246.999 -164.001s124.333 -150.834 165 -246.501s61 -196.167 61 -301.5s-20.333 -205.833 -61 -301.5
s-95.667 -178 -165 -247s-151.666 -123.833 -246.999 -164.5s-195.666 -61 -300.999 -61z" />
    <glyph glyph-name="uni24BA" unicode="E&#x20dd;" 
d="M1150 520v-136h-483v693h483v-136h-315v-147h296v-121h-296v-153h315zM900 108c111.333 0 213.666 27.333 306.999 82s166.666 128.834 219.999 222.501s80 196.167 80 307.5s-26.667 213.833 -80 307.5s-126.666 167.834 -219.999 222.501s-195.666 82 -306.999 82
s-213.666 -27.333 -306.999 -82s-166.666 -128.834 -219.999 -222.501s-80 -196.167 -80 -307.5s26.667 -213.833 80 -307.5s126.666 -167.834 219.999 -222.501s195.666 -82 306.999 -82zM900 -53c-105.333 0 -205.666 20.333 -300.999 61s-177.666 95.5 -246.999 164.5
s-124.333 151.333 -165 247s-61 196.167 -61 301.5s20.333 205.833 61 301.5s95.667 177.834 165 246.501s151.666 123.334 246.999 164.001s195.666 61 300.999 61s205.666 -20.333 300.999 -61s177.666 -95.334 246.999 -164.001s124.333 -150.834 165 -246.501
s61 -196.167 61 -301.5s-20.333 -205.833 -61 -301.5s-95.667 -178 -165 -247s-151.666 -123.833 -246.999 -164.5s-195.666 -61 -300.999 -61z" />
    <glyph glyph-name="uni24BB" unicode="F&#x20dd;" 
d="M863 384h-173v693h479v-138h-306v-159h278v-136h-278v-260zM900 108c111.333 0 213.666 27.333 306.999 82s166.666 128.834 219.999 222.501s80 196.167 80 307.5s-26.667 213.833 -80 307.5s-126.666 167.834 -219.999 222.501s-195.666 82 -306.999 82
s-213.666 -27.333 -306.999 -82s-166.666 -128.834 -219.999 -222.501s-80 -196.167 -80 -307.5s26.667 -213.833 80 -307.5s126.666 -167.834 219.999 -222.501s195.666 -82 306.999 -82zM900 -53c-105.333 0 -205.666 20.333 -300.999 61s-177.666 95.5 -246.999 164.5
s-124.333 151.333 -165 247s-61 196.167 -61 301.5s20.333 205.833 61 301.5s95.667 177.834 165 246.501s151.666 123.334 246.999 164.001s195.666 61 300.999 61s205.666 -20.333 300.999 -61s177.666 -95.334 246.999 -164.001s124.333 -150.834 165 -246.501
s61 -196.167 61 -301.5s-20.333 -205.833 -61 -301.5s-95.667 -178 -165 -247s-151.666 -123.833 -246.999 -164.5s-195.666 -61 -300.999 -61z" />
    <glyph glyph-name="uni24BC" unicode="G&#x20dd;" 
d="M1047 610l0.000976562 37.998h-139v114h300v-121c0 -79.333 -27.333 -144 -82 -194s-129.667 -75 -225 -75c-100 0 -180.833 33 -242.5 99s-92.5 152.333 -92.5 259s30.833 193 92.5 259s142.5 99 242.5 99c83.333 0 153.5 -21.833 210.5 -65.5
s89.833 -101.5 98.5 -173.5h-167c-4.66699 30 -20 54.667 -46 74s-57.333 29 -94 29c-49.333 0 -88.833 -20.167 -118.5 -60.5s-44.5 -94.166 -44.5 -161.499s15 -121.666 45 -162.999s69.333 -62 118 -62c45.333 0 80.666 9.5 105.999 28.5s38 44.5 38 76.5z
M900.001 107.998c111.333 0 213.666 27.333 306.999 82s166.666 128.834 219.999 222.501s80 196.167 80 307.5s-26.667 213.833 -80 307.5s-126.666 167.834 -219.999 222.501s-195.666 82 -306.999 82s-213.666 -27.333 -306.999 -82s-166.666 -128.834 -219.999 -222.501
s-80 -196.167 -80 -307.5s26.667 -213.833 80 -307.5s126.666 -167.834 219.999 -222.501s195.666 -82 306.999 -82zM900.001 -53.002c-105.333 0 -205.666 20.333 -300.999 61s-177.666 95.5 -246.999 164.5s-124.333 151.333 -165 247s-61 196.167 -61 301.5
s20.333 205.833 61 301.5s95.667 177.834 165 246.501s151.666 123.334 246.999 164.001s195.666 61 300.999 61s205.666 -20.333 300.999 -61s177.666 -95.334 246.999 -164.001s124.333 -150.834 165 -246.501s61 -196.167 61 -301.5s-20.333 -205.833 -61 -301.5
s-95.667 -178 -165 -247s-151.666 -123.833 -246.999 -164.5s-195.666 -61 -300.999 -61z" />
    <glyph glyph-name="uni24BD" unicode="H&#x20dd;" 
d="M1203 384h-166v279h-273v-279h-166v693h166v-272h273v272h166v-693zM900 108c111.333 0 213.666 27.333 306.999 82s166.666 128.834 219.999 222.501s80 196.167 80 307.5s-26.667 213.833 -80 307.5s-126.666 167.834 -219.999 222.501s-195.666 82 -306.999 82
s-213.666 -27.333 -306.999 -82s-166.666 -128.834 -219.999 -222.501s-80 -196.167 -80 -307.5s26.667 -213.833 80 -307.5s126.666 -167.834 219.999 -222.501s195.666 -82 306.999 -82zM900 -53c-105.333 0 -205.666 20.333 -300.999 61s-177.666 95.5 -246.999 164.5
s-124.333 151.333 -165 247s-61 196.167 -61 301.5s20.333 205.833 61 301.5s95.667 177.834 165 246.501s151.666 123.334 246.999 164.001s195.666 61 300.999 61s205.666 -20.333 300.999 -61s177.666 -95.334 246.999 -164.001s124.333 -150.834 165 -246.501
s61 -196.167 61 -301.5s-20.333 -205.833 -61 -301.5s-95.667 -178 -165 -247s-151.666 -123.833 -246.999 -164.5s-195.666 -61 -300.999 -61z" />
    <glyph glyph-name="uni24BE" unicode="I&#x20dd;" 
d="M992 384h-184v693h184v-693zM900 108c111.333 0 213.666 27.333 306.999 82s166.666 128.834 219.999 222.501s80 196.167 80 307.5s-26.667 213.833 -80 307.5s-126.666 167.834 -219.999 222.501s-195.666 82 -306.999 82s-213.666 -27.333 -306.999 -82
s-166.666 -128.834 -219.999 -222.501s-80 -196.167 -80 -307.5s26.667 -213.833 80 -307.5s126.666 -167.834 219.999 -222.501s195.666 -82 306.999 -82zM900 -53c-105.333 0 -205.666 20.333 -300.999 61s-177.666 95.5 -246.999 164.5s-124.333 151.333 -165 247
s-61 196.167 -61 301.5s20.333 205.833 61 301.5s95.667 177.834 165 246.501s151.666 123.334 246.999 164.001s195.666 61 300.999 61s205.666 -20.333 300.999 -61s177.666 -95.334 246.999 -164.001s124.333 -150.834 165 -246.501s61 -196.167 61 -301.5
s-20.333 -205.833 -61 -301.5s-95.667 -178 -165 -247s-151.666 -123.833 -246.999 -164.5s-195.666 -61 -300.999 -61z" />
    <glyph glyph-name="uni24BF" unicode="J&#x20dd;" 
d="M614 605l169 0.000976562c0.666992 -26.667 8.5 -47.5 23.5 -62.5s35.167 -22.5 60.5 -22.5c56.667 0 85 33 85 99v451h176v-452c0 -79.333 -23 -141.333 -69 -186s-109 -67 -189 -67s-142.667 22.167 -188 66.5s-68 102.166 -68 173.499zM900 108.001
c111.333 0 213.666 27.333 306.999 82s166.666 128.834 219.999 222.501s80 196.167 80 307.5s-26.667 213.833 -80 307.5s-126.666 167.834 -219.999 222.501s-195.666 82 -306.999 82s-213.666 -27.333 -306.999 -82s-166.666 -128.834 -219.999 -222.501
s-80 -196.167 -80 -307.5s26.667 -213.833 80 -307.5s126.666 -167.834 219.999 -222.501s195.666 -82 306.999 -82zM900 -52.999c-105.333 0 -205.666 20.333 -300.999 61s-177.666 95.5 -246.999 164.5s-124.333 151.333 -165 247s-61 196.167 -61 301.5
s20.333 205.833 61 301.5s95.667 177.834 165 246.501s151.666 123.334 246.999 164.001s195.666 61 300.999 61s205.666 -20.333 300.999 -61s177.666 -95.334 246.999 -164.001s124.333 -150.834 165 -246.501s61 -196.167 61 -301.5s-20.333 -205.833 -61 -301.5
s-95.667 -178 -165 -247s-151.666 -123.833 -246.999 -164.5s-195.666 -61 -300.999 -61z" />
    <glyph glyph-name="uni24C0" unicode="K&#x20dd;" 
d="M1227 1077l-242 -308l250 -385h-201l-177 275l-70 -77v-198h-163v693h163v-290h11l241 290h188zM900 108c111.333 0 213.666 27.333 306.999 82s166.666 128.834 219.999 222.501s80 196.167 80 307.5s-26.667 213.833 -80 307.5s-126.666 167.834 -219.999 222.501
s-195.666 82 -306.999 82s-213.666 -27.333 -306.999 -82s-166.666 -128.834 -219.999 -222.501s-80 -196.167 -80 -307.5s26.667 -213.833 80 -307.5s126.666 -167.834 219.999 -222.501s195.666 -82 306.999 -82zM900 -53c-105.333 0 -205.666 20.333 -300.999 61
s-177.666 95.5 -246.999 164.5s-124.333 151.333 -165 247s-61 196.167 -61 301.5s20.333 205.833 61 301.5s95.667 177.834 165 246.501s151.666 123.334 246.999 164.001s195.666 61 300.999 61s205.666 -20.333 300.999 -61s177.666 -95.334 246.999 -164.001
s124.333 -150.834 165 -246.501s61 -196.167 61 -301.5s-20.333 -205.833 -61 -301.5s-95.667 -178 -165 -247s-151.666 -123.833 -246.999 -164.5s-195.666 -61 -300.999 -61z" />
    <glyph glyph-name="uni24C1" unicode="L&#x20dd;" 
d="M1177 538v-147h-473v693h177v-546h296zM900 108c111.333 0 213.666 27.333 306.999 82s166.666 128.834 219.999 222.501s80 196.167 80 307.5s-26.667 213.833 -80 307.5s-126.666 167.834 -219.999 222.501s-195.666 82 -306.999 82s-213.666 -27.333 -306.999 -82
s-166.666 -128.834 -219.999 -222.501s-80 -196.167 -80 -307.5s26.667 -213.833 80 -307.5s126.666 -167.834 219.999 -222.501s195.666 -82 306.999 -82zM900 -53c-105.333 0 -205.666 20.333 -300.999 61s-177.666 95.5 -246.999 164.5s-124.333 151.333 -165 247
s-61 196.167 -61 301.5s20.333 205.833 61 301.5s95.667 177.834 165 246.501s151.666 123.334 246.999 164.001s195.666 61 300.999 61s205.666 -20.333 300.999 -61s177.666 -95.334 246.999 -164.001s124.333 -150.834 165 -246.501s61 -196.167 61 -301.5
s-20.333 -205.833 -61 -301.5s-95.667 -178 -165 -247s-151.666 -123.833 -246.999 -164.5s-195.666 -61 -300.999 -61z" />
    <glyph glyph-name="uni24C2" unicode="M&#x20dd;" 
d="M687 384h-139v693h169l182 -479h4l182 479h167v-693h-138v439h-12l-155 -407h-94l-154 407h-12v-439zM900 108c111.333 0 213.666 27.333 306.999 82s166.666 128.834 219.999 222.501s80 196.167 80 307.5s-26.667 213.833 -80 307.5s-126.666 167.834 -219.999 222.501
s-195.666 82 -306.999 82s-213.666 -27.333 -306.999 -82s-166.666 -128.834 -219.999 -222.501s-80 -196.167 -80 -307.5s26.667 -213.833 80 -307.5s126.666 -167.834 219.999 -222.501s195.666 -82 306.999 -82zM900 -53c-105.333 0 -205.666 20.333 -300.999 61
s-177.666 95.5 -246.999 164.5s-124.333 151.333 -165 247s-61 196.167 -61 301.5s20.333 205.833 61 301.5s95.667 177.834 165 246.501s151.666 123.334 246.999 164.001s195.666 61 300.999 61s205.666 -20.333 300.999 -61s177.666 -95.334 246.999 -164.001
s124.333 -150.834 165 -246.501s61 -196.167 61 -301.5s-20.333 -205.833 -61 -301.5s-95.667 -178 -165 -247s-151.666 -123.833 -246.999 -164.5s-195.666 -61 -300.999 -61z" />
    <glyph glyph-name="uni24C3" unicode="N&#x20dd;" 
d="M757 384h-153v693h131l297 -417h11v417h153v-693h-131l-297 421h-11v-421zM900 108c111.333 0 213.666 27.333 306.999 82s166.666 128.834 219.999 222.501s80 196.167 80 307.5s-26.667 213.833 -80 307.5s-126.666 167.834 -219.999 222.501s-195.666 82 -306.999 82
s-213.666 -27.333 -306.999 -82s-166.666 -128.834 -219.999 -222.501s-80 -196.167 -80 -307.5s26.667 -213.833 80 -307.5s126.666 -167.834 219.999 -222.501s195.666 -82 306.999 -82zM900 -53c-105.333 0 -205.666 20.333 -300.999 61s-177.666 95.5 -246.999 164.5
s-124.333 151.333 -165 247s-61 196.167 -61 301.5s20.333 205.833 61 301.5s95.667 177.834 165 246.501s151.666 123.334 246.999 164.001s195.666 61 300.999 61s205.666 -20.333 300.999 -61s177.666 -95.334 246.999 -164.001s124.333 -150.834 165 -246.501
s61 -196.167 61 -301.5s-20.333 -205.833 -61 -301.5s-95.667 -178 -165 -247s-151.666 -123.833 -246.999 -164.5s-195.666 -61 -300.999 -61z" />
    <glyph glyph-name="uni24C4" unicode="O&#x20dd;" 
d="M900 515c46.667 0 85 18.667 115 56s45 90.333 45 159s-15 121.667 -45 159s-68.333 56 -115 56s-85 -18.667 -115 -56s-45 -90.333 -45 -159s15 -121.667 45 -159s68.333 -56 115 -56zM900 372c-96.667 0 -176.5 31.833 -239.5 95.5s-94.5 151.167 -94.5 262.5
s31.5 198.833 94.5 262.5s142.833 95.5 239.5 95.5s176.5 -31.833 239.5 -95.5s94.5 -151.167 94.5 -262.5s-31.5 -198.833 -94.5 -262.5s-142.833 -95.5 -239.5 -95.5zM900 108c111.333 0 213.666 27.333 306.999 82s166.666 128.834 219.999 222.501s80 196.167 80 307.5
s-26.667 213.833 -80 307.5s-126.666 167.834 -219.999 222.501s-195.666 82 -306.999 82s-213.666 -27.333 -306.999 -82s-166.666 -128.834 -219.999 -222.501s-80 -196.167 -80 -307.5s26.667 -213.833 80 -307.5s126.666 -167.834 219.999 -222.501
s195.666 -82 306.999 -82zM900 -53c-105.333 0 -205.666 20.333 -300.999 61s-177.666 95.5 -246.999 164.5s-124.333 151.333 -165 247s-61 196.167 -61 301.5s20.333 205.833 61 301.5s95.667 177.834 165 246.501s151.666 123.334 246.999 164.001s195.666 61 300.999 61
s205.666 -20.333 300.999 -61s177.666 -95.334 246.999 -164.001s124.333 -150.834 165 -246.501s61 -196.167 61 -301.5s-20.333 -205.833 -61 -301.5s-95.667 -178 -165 -247s-151.666 -123.833 -246.999 -164.5s-195.666 -61 -300.999 -61z" />
    <glyph glyph-name="uni24C5" unicode="P&#x20dd;" 
d="M968 1077c77.333 0 138.667 -22.667 184 -68s68 -104 68 -176s-22.833 -130 -68.5 -174s-107.5 -66 -185.5 -66h-126v-209h-175v693h303zM1048 833c0 35.333 -9.5 62.332 -28.5 80.999s-46.167 28 -81.5 28h-105v-217h105c35.333 0 62.5 9.33301 81.5 28
s28.5 45.334 28.5 80.001zM900.001 107.999c111.333 0 213.666 27.333 306.999 82s166.666 128.834 219.999 222.501s80 196.167 80 307.5s-26.667 213.833 -80 307.5s-126.666 167.834 -219.999 222.501s-195.666 82 -306.999 82s-213.666 -27.333 -306.999 -82
s-166.666 -128.834 -219.999 -222.501s-80 -196.167 -80 -307.5s26.667 -213.833 80 -307.5s126.666 -167.834 219.999 -222.501s195.666 -82 306.999 -82zM900.001 -53.001c-105.333 0 -205.666 20.333 -300.999 61s-177.666 95.5 -246.999 164.5
s-124.333 151.333 -165 247s-61 196.167 -61 301.5s20.333 205.833 61 301.5s95.667 177.834 165 246.501s151.666 123.334 246.999 164.001s195.666 61 300.999 61s205.666 -20.333 300.999 -61s177.666 -95.334 246.999 -164.001s124.333 -150.834 165 -246.501
s61 -196.167 61 -301.5s-20.333 -205.833 -61 -301.5s-95.667 -178 -165 -247s-151.666 -123.833 -246.999 -164.5s-195.666 -61 -300.999 -61z" />
    <glyph glyph-name="uni24C6" unicode="Q&#x20dd;" 
d="M1212 321h-167l-43 66c-32 -10 -66 -15 -102 -15c-96.667 0 -176.5 31.833 -239.5 95.5s-94.5 151.167 -94.5 262.5s31.5 198.833 94.5 262.5s142.833 95.5 239.5 95.5s176.5 -31.833 239.5 -95.5s94.5 -151.167 94.5 -262.5c0 -120.667 -38 -214 -114 -280zM900 515
c15.333 0 27.667 1.66602 37 4.99902l-65 103h116l30 -39c28 36.667 42 85.334 42 146.001c0 68.667 -15 121.667 -45 159s-68.333 56 -115 56s-85 -18.667 -115 -56s-45 -90.333 -45 -159s15 -121.667 45 -159s68.333 -56 115 -56zM900.001 107.999
c111.333 0 213.666 27.333 306.999 82s166.666 128.834 219.999 222.501s80 196.167 80 307.5s-26.667 213.833 -80 307.5s-126.666 167.834 -219.999 222.501s-195.666 82 -306.999 82s-213.666 -27.333 -306.999 -82s-166.666 -128.834 -219.999 -222.501
s-80 -196.167 -80 -307.5s26.667 -213.833 80 -307.5s126.666 -167.834 219.999 -222.501s195.666 -82 306.999 -82zM900.001 -53.001c-105.333 0 -205.666 20.333 -300.999 61s-177.666 95.5 -246.999 164.5s-124.333 151.333 -165 247s-61 196.167 -61 301.5
s20.333 205.833 61 301.5s95.667 177.834 165 246.501s151.666 123.334 246.999 164.001s195.666 61 300.999 61s205.666 -20.333 300.999 -61s177.666 -95.334 246.999 -164.001s124.333 -150.834 165 -246.501s61 -196.167 61 -301.5s-20.333 -205.833 -61 -301.5
s-95.667 -178 -165 -247s-151.666 -123.833 -246.999 -164.5s-195.666 -61 -300.999 -61z" />
    <glyph glyph-name="uni24C7" unicode="R&#x20dd;" 
d="M935 1077c83.333 0 148.333 -19.668 195 -59.001s70 -93.666 70 -162.999c0 -47.333 -12.333 -88 -37 -122s-57 -57.667 -97 -71l148 -278h-185l-121 247h-111v-247h-163v693h301zM797 750.999h115c36 0 63.833 8.16699 83.5 24.5s29.5 39.833 29.5 70.5
c0 32 -9.83301 56.5 -29.5 73.5s-46.5 25.5 -80.5 25.5h-118v-194zM900 107.999c111.333 0 213.666 27.333 306.999 82s166.666 128.834 219.999 222.501s80 196.167 80 307.5s-26.667 213.833 -80 307.5s-126.666 167.834 -219.999 222.501s-195.666 82 -306.999 82
s-213.666 -27.333 -306.999 -82s-166.666 -128.834 -219.999 -222.501s-80 -196.167 -80 -307.5s26.667 -213.833 80 -307.5s126.666 -167.834 219.999 -222.501s195.666 -82 306.999 -82zM900 -53.001c-105.333 0 -205.666 20.333 -300.999 61
s-177.666 95.5 -246.999 164.5s-124.333 151.333 -165 247s-61 196.167 -61 301.5s20.333 205.833 61 301.5s95.667 177.834 165 246.501s151.666 123.334 246.999 164.001s195.666 61 300.999 61s205.666 -20.333 300.999 -61s177.666 -95.334 246.999 -164.001
s124.333 -150.834 165 -246.501s61 -196.167 61 -301.5s-20.333 -205.833 -61 -301.5s-95.667 -178 -165 -247s-151.666 -123.833 -246.999 -164.5s-195.666 -61 -300.999 -61z" />
    <glyph glyph-name="uni24C8" unicode="S&#x20dd;" 
d="M608 584l167.005 0.00195312c3.33301 -25.333 16.666 -45.5 39.999 -60.5s53.333 -22.5 90 -22.5s66 7.33301 88 22s33 34.334 33 59.001c0 19.333 -8.33301 34.666 -25 45.999s-45.334 21.333 -86.001 30l-100 19c-62 12 -109.5 34.667 -142.5 68
s-49.5 75.666 -49.5 126.999c0 65.333 25.5 117.833 76.5 157.5s118.5 59.5 202.5 59.5c80.667 0 146.5 -18.833 197.5 -56.5s77.833 -87.834 80.5 -150.501h-162c-3.33301 24.667 -15.333 44.167 -36 58.5s-47.334 21.5 -80.001 21.5s-59 -7 -79 -21s-30 -32.667 -30 -56
c0 -36 33 -59.667 99 -71l105 -20c130.667 -26 196 -92 196 -198c0 -68.667 -26.667 -123.167 -80 -163.5s-125.333 -60.5 -216 -60.5c-86.667 0 -155.834 19 -207.501 57s-78.834 89.667 -81.501 155zM900.005 108.002c111.333 0 213.666 27.333 306.999 82
s166.666 128.834 219.999 222.501s80 196.167 80 307.5s-26.667 213.833 -80 307.5s-126.666 167.834 -219.999 222.501s-195.666 82 -306.999 82s-213.666 -27.333 -306.999 -82s-166.666 -128.834 -219.999 -222.501s-80 -196.167 -80 -307.5s26.667 -213.833 80 -307.5
s126.666 -167.834 219.999 -222.501s195.666 -82 306.999 -82zM900.005 -52.998c-105.333 0 -205.666 20.333 -300.999 61s-177.666 95.5 -246.999 164.5s-124.333 151.333 -165 247s-61 196.167 -61 301.5s20.333 205.833 61 301.5s95.667 177.834 165 246.501
s151.666 123.334 246.999 164.001s195.666 61 300.999 61s205.666 -20.333 300.999 -61s177.666 -95.334 246.999 -164.001s124.333 -150.834 165 -246.501s61 -196.167 61 -301.5s-20.333 -205.833 -61 -301.5s-95.667 -178 -165 -247s-151.666 -123.833 -246.999 -164.5
s-195.666 -61 -300.999 -61z" />
    <glyph glyph-name="uni24C9" unicode="T&#x20dd;" 
d="M989 362h-178v549h-200v144h578v-144h-200v-549zM900 108c111.333 0 213.666 27.333 306.999 82s166.666 128.834 219.999 222.501s80 196.167 80 307.5s-26.667 213.833 -80 307.5s-126.666 167.834 -219.999 222.501s-195.666 82 -306.999 82
s-213.666 -27.333 -306.999 -82s-166.666 -128.834 -219.999 -222.501s-80 -196.167 -80 -307.5s26.667 -213.833 80 -307.5s126.666 -167.834 219.999 -222.501s195.666 -82 306.999 -82zM900 -53c-105.333 0 -205.666 20.333 -300.999 61s-177.666 95.5 -246.999 164.5
s-124.333 151.333 -165 247s-61 196.167 -61 301.5s20.333 205.833 61 301.5s95.667 177.834 165 246.501s151.666 123.334 246.999 164.001s195.666 61 300.999 61s205.666 -20.333 300.999 -61s177.666 -95.334 246.999 -164.001s124.333 -150.834 165 -246.501
s61 -196.167 61 -301.5s-20.333 -205.833 -61 -301.5s-95.667 -178 -165 -247s-151.666 -123.833 -246.999 -164.5s-195.666 -61 -300.999 -61z" />
    <glyph glyph-name="uni24CA" unicode="U&#x20dd;" 
d="M900 494c39.333 0 70.5 10.833 93.5 32.5s34.5 51.834 34.5 90.501v438h172v-454c0 -74 -27.5 -134.333 -82.5 -181s-127.5 -70 -217.5 -70s-162.5 23.333 -217.5 70s-82.5 107 -82.5 181v454h172v-438c0 -38.667 11.5 -68.834 34.5 -90.501s54.167 -32.5 93.5 -32.5z
M900 108c111.333 0 213.666 27.333 306.999 82s166.666 128.834 219.999 222.501s80 196.167 80 307.5s-26.667 213.833 -80 307.5s-126.666 167.834 -219.999 222.501s-195.666 82 -306.999 82s-213.666 -27.333 -306.999 -82s-166.666 -128.834 -219.999 -222.501
s-80 -196.167 -80 -307.5s26.667 -213.833 80 -307.5s126.666 -167.834 219.999 -222.501s195.666 -82 306.999 -82zM900 -53c-105.333 0 -205.666 20.333 -300.999 61s-177.666 95.5 -246.999 164.5s-124.333 151.333 -165 247s-61 196.167 -61 301.5
s20.333 205.833 61 301.5s95.667 177.834 165 246.501s151.666 123.334 246.999 164.001s195.666 61 300.999 61s205.666 -20.333 300.999 -61s177.666 -95.334 246.999 -164.001s124.333 -150.834 165 -246.501s61 -196.167 61 -301.5s-20.333 -205.833 -61 -301.5
s-95.667 -178 -165 -247s-151.666 -123.833 -246.999 -164.5s-195.666 -61 -300.999 -61z" />
    <glyph glyph-name="uni24CB" unicode="V&#x20dd;" 
d="M787 359l-226 693h195l139 -518h10l139 518h195l-226 -693h-226zM900 108c111.333 0 213.666 27.333 306.999 82s166.666 128.834 219.999 222.501s80 196.167 80 307.5s-26.667 213.833 -80 307.5s-126.666 167.834 -219.999 222.501s-195.666 82 -306.999 82
s-213.666 -27.333 -306.999 -82s-166.666 -128.834 -219.999 -222.501s-80 -196.167 -80 -307.5s26.667 -213.833 80 -307.5s126.666 -167.834 219.999 -222.501s195.666 -82 306.999 -82zM900 -53c-105.333 0 -205.666 20.333 -300.999 61s-177.666 95.5 -246.999 164.5
s-124.333 151.333 -165 247s-61 196.167 -61 301.5s20.333 205.833 61 301.5s95.667 177.834 165 246.501s151.666 123.334 246.999 164.001s195.666 61 300.999 61s205.666 -20.333 300.999 -61s177.666 -95.334 246.999 -164.001s124.333 -150.834 165 -246.501
s61 -196.167 61 -301.5s-20.333 -205.833 -61 -301.5s-95.667 -178 -165 -247s-151.666 -123.833 -246.999 -164.5s-195.666 -61 -300.999 -61z" />
    <glyph glyph-name="uni24CC" unicode="W&#x20dd;" 
d="M897 814l-117 -452h-151l-174 693h166l94 -482h8l113 482h128l113 -482h8l94 482h166l-174 -693h-151l-117 452h-6zM900 108c111.333 0 213.666 27.333 306.999 82s166.666 128.834 219.999 222.501s80 196.167 80 307.5s-26.667 213.833 -80 307.5
s-126.666 167.834 -219.999 222.501s-195.666 82 -306.999 82s-213.666 -27.333 -306.999 -82s-166.666 -128.834 -219.999 -222.501s-80 -196.167 -80 -307.5s26.667 -213.833 80 -307.5s126.666 -167.834 219.999 -222.501s195.666 -82 306.999 -82zM900 -53
c-105.333 0 -205.666 20.333 -300.999 61s-177.666 95.5 -246.999 164.5s-124.333 151.333 -165 247s-61 196.167 -61 301.5s20.333 205.833 61 301.5s95.667 177.834 165 246.501s151.666 123.334 246.999 164.001s195.666 61 300.999 61s205.666 -20.333 300.999 -61
s177.666 -95.334 246.999 -164.001s124.333 -150.834 165 -246.501s61 -196.167 61 -301.5s-20.333 -205.833 -61 -301.5s-95.667 -178 -165 -247s-151.666 -123.833 -246.999 -164.5s-195.666 -61 -300.999 -61z" />
    <glyph glyph-name="uni24CD" unicode="X&#x20dd;" 
d="M1227 1077l-222 -347l220 -346h-190l-135 233h-9l-135 -233h-189l222 348l-221 345h198l132 -235h9l132 235h188zM900 108c111.333 0 213.666 27.333 306.999 82s166.666 128.834 219.999 222.501s80 196.167 80 307.5s-26.667 213.833 -80 307.5
s-126.666 167.834 -219.999 222.501s-195.666 82 -306.999 82s-213.666 -27.333 -306.999 -82s-166.666 -128.834 -219.999 -222.501s-80 -196.167 -80 -307.5s26.667 -213.833 80 -307.5s126.666 -167.834 219.999 -222.501s195.666 -82 306.999 -82zM900 -53
c-105.333 0 -205.666 20.333 -300.999 61s-177.666 95.5 -246.999 164.5s-124.333 151.333 -165 247s-61 196.167 -61 301.5s20.333 205.833 61 301.5s95.667 177.834 165 246.501s151.666 123.334 246.999 164.001s195.666 61 300.999 61s205.666 -20.333 300.999 -61
s177.666 -95.334 246.999 -164.001s124.333 -150.834 165 -246.501s61 -196.167 61 -301.5s-20.333 -205.833 -61 -301.5s-95.667 -178 -165 -247s-151.666 -123.833 -246.999 -164.5s-195.666 -61 -300.999 -61z" />
    <glyph glyph-name="uni24CE" unicode="Y&#x20dd;" 
d="M991 372h-181v242l-240 451h193l135 -282h6l135 282h191l-239 -450v-243zM900 108c111.333 0 213.666 27.333 306.999 82s166.666 128.834 219.999 222.501s80 196.167 80 307.5s-26.667 213.833 -80 307.5s-126.666 167.834 -219.999 222.501s-195.666 82 -306.999 82
s-213.666 -27.333 -306.999 -82s-166.666 -128.834 -219.999 -222.501s-80 -196.167 -80 -307.5s26.667 -213.833 80 -307.5s126.666 -167.834 219.999 -222.501s195.666 -82 306.999 -82zM900 -53c-105.333 0 -205.666 20.333 -300.999 61s-177.666 95.5 -246.999 164.5
s-124.333 151.333 -165 247s-61 196.167 -61 301.5s20.333 205.833 61 301.5s95.667 177.834 165 246.501s151.666 123.334 246.999 164.001s195.666 61 300.999 61s205.666 -20.333 300.999 -61s177.666 -95.334 246.999 -164.001s124.333 -150.834 165 -246.501
s61 -196.167 61 -301.5s-20.333 -205.833 -61 -301.5s-95.667 -178 -165 -247s-151.666 -123.833 -246.999 -164.5s-195.666 -61 -300.999 -61z" />
    <glyph glyph-name="uni24CF" unicode="Z&#x20dd;" 
d="M630 384v113l321 430v9h-317v141h529v-113l-321 -430v-9h332v-141h-544zM900 108c111.333 0 213.666 27.333 306.999 82s166.666 128.834 219.999 222.501s80 196.167 80 307.5s-26.667 213.833 -80 307.5s-126.666 167.834 -219.999 222.501s-195.666 82 -306.999 82
s-213.666 -27.333 -306.999 -82s-166.666 -128.834 -219.999 -222.501s-80 -196.167 -80 -307.5s26.667 -213.833 80 -307.5s126.666 -167.834 219.999 -222.501s195.666 -82 306.999 -82zM900 -53c-105.333 0 -205.666 20.333 -300.999 61s-177.666 95.5 -246.999 164.5
s-124.333 151.333 -165 247s-61 196.167 -61 301.5s20.333 205.833 61 301.5s95.667 177.834 165 246.501s151.666 123.334 246.999 164.001s195.666 61 300.999 61s205.666 -20.333 300.999 -61s177.666 -95.334 246.999 -164.001s124.333 -150.834 165 -246.501
s61 -196.167 61 -301.5s-20.333 -205.833 -61 -301.5s-95.667 -178 -165 -247s-151.666 -123.833 -246.999 -164.5s-195.666 -61 -300.999 -61z" />
    <glyph glyph-name="uni24EA" unicode="&#x23;&#x20dd;" 
d="M900 514c36.667 0 65.5 18.167 86.5 54.5s31.5 90.166 31.5 161.499c0 70.667 -10.5 124.334 -31.5 161.001s-49.833 55 -86.5 55s-65.5 -18.333 -86.5 -55s-31.5 -90.334 -31.5 -161.001c0 -71.333 10.5 -125.166 31.5 -161.499s49.833 -54.5 86.5 -54.5zM899 372
c-85.333 0 -153.666 31.833 -204.999 95.5s-77 151.167 -77 262.5s25.667 198.666 77 261.999s119.666 95 204.999 95s154 -31.667 206 -95s78 -150.666 78 -261.999s-26.167 -198.833 -78.5 -262.5s-120.833 -95.5 -205.5 -95.5zM900 108
c111.333 0 213.666 27.333 306.999 82s166.666 128.834 219.999 222.501s80 196.167 80 307.5s-26.667 213.833 -80 307.5s-126.666 167.834 -219.999 222.501s-195.666 82 -306.999 82s-213.666 -27.333 -306.999 -82s-166.666 -128.834 -219.999 -222.501
s-80 -196.167 -80 -307.5s26.667 -213.833 80 -307.5s126.666 -167.834 219.999 -222.501s195.666 -82 306.999 -82zM900 -53c-105.333 0 -205.666 20.333 -300.999 61s-177.666 95.5 -246.999 164.5s-124.333 151.333 -165 247s-61 196.167 -61 301.5
s20.333 205.833 61 301.5s95.667 177.834 165 246.501s151.666 123.334 246.999 164.001s195.666 61 300.999 61s205.666 -20.333 300.999 -61s177.666 -95.334 246.999 -164.001s124.333 -150.834 165 -246.501s61 -196.167 61 -301.5s-20.333 -205.833 -61 -301.5
s-95.667 -178 -165 -247s-151.666 -123.833 -246.999 -164.5s-195.666 -61 -300.999 -61z" />
    <glyph glyph-name="uni24FF" unicode="&#x30;&#x20dd;&#x25cf;" 
d="M897 490c-80 0 -120 79.999 -120 239.999s40 240 120 240c38.667 0 68.5 -20.167 89.5 -60.5s31.5 -100.166 31.5 -179.499c0 -160 -40.333 -240 -121 -240zM896 337.999c96 0 172.5 35 229.5 105s85.5 165.667 85.5 287s-28.5 217 -85.5 287s-133.5 105 -229.5 105
c-95.333 0 -171.166 -35 -227.499 -105s-84.5 -165.667 -84.5 -287c0 -122 28.167 -217.833 84.5 -287.5s132.166 -104.5 227.499 -104.5zM900 -52.001c-139.333 0 -268.333 34.667 -387 104s-212.667 163.333 -282 282s-104 247.667 -104 387s34.667 268.5 104 387.5
s163.333 213.167 282 282.5s247.667 104 387 104s268.333 -34.667 387 -104s212.667 -163.5 282 -282.5s104 -248.167 104 -387.5s-34.667 -268.333 -104 -387s-163.333 -212.667 -282 -282s-247.667 -104 -387 -104z" />
    <glyph glyph-name="uni278A" unicode="&#x31;&#x20dd;&#x25cf;" 
d="M1036 352v757h-195l-185 -125v-179l179 121h4v-574h197zM900 -52c-139.333 0 -268.333 34.667 -387 104s-212.667 163.333 -282 282s-104 247.667 -104 387s34.667 268.5 104 387.5s163.333 213.167 282 282.5s247.667 104 387 104s268.333 -34.667 387 -104
s212.667 -163.5 282 -282.5s104 -248.167 104 -387.5s-34.667 -268.333 -104 -387s-163.333 -212.667 -282 -282s-247.667 -104 -387 -104z" />
    <glyph glyph-name="uni278B" unicode="&#x32;&#x20dd;&#x25cf;" 
d="M791 862l0.000976562 7.00098c0 30 8.83301 54.5 26.5 73.5s42.167 28.5 73.5 28.5c28 0 51 -7.83301 69 -23.5s27 -35.834 27 -60.501s-7.33301 -47.834 -22 -69.501s-38.334 -48.167 -71.001 -79.5l-273 -265v-122h569v159h-311v1l162 159
c45.333 44 79 83.167 101 117.5s33 72.5 33 114.5c0 62.667 -25.833 114.834 -77.5 156.501s-117.5 62.5 -197.5 62.5c-90.667 0 -161.667 -24 -213 -72s-77 -108 -77 -180v-7h181zM900.001 -51.999c-139.333 0 -268.333 34.667 -387 104s-212.667 163.333 -282 282
s-104 247.667 -104 387s34.667 268.5 104 387.5s163.333 213.167 282 282.5s247.667 104 387 104s268.333 -34.667 387 -104s212.667 -163.5 282 -282.5s104 -248.167 104 -387.5s-34.667 -268.333 -104 -387s-163.333 -212.667 -282 -282s-247.667 -104 -387 -104z" />
    <glyph glyph-name="uni278C" unicode="&#x33;&#x20dd;&#x25cf;" 
d="M809 668l86.0029 0.00195312c35.333 0 63.666 -8.33301 84.999 -25s32.333 -38.334 33 -65.001c0 -27.333 -11 -49.5 -33 -66.5s-51 -25.5 -87 -25.5c-34.667 0.666992 -63 9 -85 25s-34.333 36.667 -37 62h-179c2 -68 30 -124.167 84 -168.5s126 -66.5 216 -66.5
c91.333 0 166.166 20.833 224.499 62.5s87.166 97.5 86.499 167.5c-0.666992 51.333 -17.667 93 -51 125s-71 50.333 -113 55v3c36 6 68.833 24.667 98.5 56s44.167 69 43.5 113c-1.33301 59.333 -28 107.833 -80 145.5s-120.667 56.5 -206 56.5
c-91.333 -0.666992 -162 -21.834 -212 -63.501s-76.667 -98.167 -80 -169.5h182c1.33301 25.333 11.333 46 30 62s44 24 76 24c30 0 54.5 -7.5 73.5 -22.5s28.5 -34.5 28.5 -58.5c0 -25.333 -9.5 -45.833 -28.5 -61.5s-43.833 -23.5 -74.5 -23.5h-81v-141zM900.003 -51.998
c-139.333 0 -268.333 34.667 -387 104s-212.667 163.333 -282 282s-104 247.667 -104 387s34.667 268.5 104 387.5s163.333 213.167 282 282.5s247.667 104 387 104s268.333 -34.667 387 -104s212.667 -163.5 282 -282.5s104 -248.167 104 -387.5
s-34.667 -268.333 -104 -387s-163.333 -212.667 -282 -282s-247.667 -104 -387 -104z" />
    <glyph glyph-name="uni278D" unicode="&#x34;&#x20dd;&#x25cf;" 
d="M833 1109c-130 -208 -224 -367 -282 -477v-151h376v-129h173v129h102v152h-102v476h-267zM726 634c20.667 38.667 86 148.333 196 329h5v-330h-201v1zM900 -52.001c-139.333 0 -268.333 34.667 -387 104s-212.667 163.333 -282 282s-104 247.667 -104 387
s34.667 268.5 104 387.5s163.333 213.167 282 282.5s247.667 104 387 104s268.333 -34.667 387 -104s212.667 -163.5 282 -282.5s104 -248.167 104 -387.5s-34.667 -268.333 -104 -387s-163.333 -212.667 -282 -282s-247.667 -104 -387 -104z" />
    <glyph glyph-name="uni278E" unicode="&#x35;&#x20dd;&#x25cf;" 
d="M608 569c2 -66.667 30 -121.167 84 -163.5s124 -63.5 210 -63.5c94 0 169.167 24.833 225.5 74.5s84.5 116.5 84.5 200.5c0 75.333 -24 135 -72 179s-108.667 66 -182 66c-38 0 -71.333 -6.66699 -100 -20s-49 -29 -61 -47h-3l14 173h357v144h-510l-31 -448h167
c9.33301 17.333 24 32 44 44s43.333 18 70 18c34.667 0 63.667 -10.5 87 -31.5s35 -48.833 35 -83.5c0 -36.667 -12 -66.167 -36 -88.5s-52.333 -33.5 -85 -33.5c-30 0 -56.333 7 -79 21s-36.667 33.667 -42 59h-177zM900 -52c-139.333 0 -268.333 34.667 -387 104
s-212.667 163.333 -282 282s-104 247.667 -104 387s34.667 268.5 104 387.5s163.333 213.167 282 282.5s247.667 104 387 104s268.333 -34.667 387 -104s212.667 -163.5 282 -282.5s104 -248.167 104 -387.5s-34.667 -268.333 -104 -387s-163.333 -212.667 -282 -282
s-247.667 -104 -387 -104z" />
    <glyph glyph-name="uni278F" unicode="&#x36;&#x20dd;&#x25cf;" 
d="M1204 617c0 66.667 -21.6699 122.331 -65.0029 166.998s-97.666 67 -162.999 67c-50 0 -91.667 -13 -125 -39l-9 1c8.66699 14.667 19.334 30.334 32.001 47.001c58.667 80 124.334 163 197.001 249h-219l-83.5 -108c-39 -51.333 -62.5 -83.666 -70.5 -96.999
c-69.333 -98.667 -104 -192.667 -104 -282c0 -84 28.5 -152.167 85.5 -204.5s131.167 -78.5 222.5 -78.5c90.667 0 163.667 25.5 219 76.5s83 118.167 83 201.5zM775.997 605.997c0 35.333 11.667 64.5 35 87.5s53.333 34.5 90 34.5c36 0 65.667 -11.5 89 -34.5
s35 -52.167 35 -87.5c0 -34.667 -11.667 -63.5 -35 -86.5s-53 -34.5 -89 -34.5s-65.833 11.5 -89.5 34.5s-35.5 51.833 -35.5 86.5zM899.997 -52.0029c-139.333 0 -268.333 34.667 -387 104s-212.667 163.333 -282 282s-104 247.667 -104 387s34.667 268.5 104 387.5
s163.333 213.167 282 282.5s247.667 104 387 104s268.333 -34.667 387 -104s212.667 -163.5 282 -282.5s104 -248.167 104 -387.5s-34.667 -268.333 -104 -387s-163.333 -212.667 -282 -282s-247.667 -104 -387 -104z" />
    <glyph glyph-name="uni2790" unicode="&#x37;&#x20dd;&#x25cf;" 
d="M621 1102v-159h376v-2l-318 -596h209l307 600v157h-574zM900 -52c-139.333 0 -268.333 34.667 -387 104s-212.667 163.333 -282 282s-104 247.667 -104 387s34.667 268.5 104 387.5s163.333 213.167 282 282.5s247.667 104 387 104s268.333 -34.667 387 -104
s212.667 -163.5 282 -282.5s104 -248.167 104 -387.5s-34.667 -268.333 -104 -387s-163.333 -212.667 -282 -282s-247.667 -104 -387 -104z" />
    <glyph glyph-name="uni2791" unicode="&#x38;&#x20dd;&#x25cf;" 
d="M897 803c-31.333 0 -56.666 8.66699 -75.999 26s-29 39.666 -29 66.999c0 28 9.66699 50.667 29 68s44.666 26 75.999 26s56.833 -8.66699 76.5 -26s29.5 -40 29.5 -68c0 -27.333 -9.83301 -49.666 -29.5 -66.999s-45.167 -26 -76.5 -26zM897 470
c-37.333 0 -68 10.167 -92 30.5s-36 46.166 -36 77.499s12 57.166 36 77.499s54.667 30.5 92 30.5s68.166 -10.167 92.499 -30.5s36.5 -46.166 36.5 -77.499s-12.167 -57.166 -36.5 -77.499s-55.166 -30.5 -92.499 -30.5zM897 338c97.333 0 175.334 20.667 234.001 62
s88 96.333 88 165c0 47.333 -14.833 87.5 -44.5 120.5s-70.167 53.833 -121.5 62.5v2c89.333 28.667 134 84.334 134 167.001c0 61.333 -26.5 110.833 -79.5 148.5s-123.167 56.5 -210.5 56.5c-86.667 0 -156.5 -18.833 -209.5 -56.5s-79.5 -87.167 -79.5 -148.5
c0 -82.667 44.667 -138.334 134 -167.001v-2c-51.333 -8.66699 -91.833 -29.5 -121.5 -62.5s-44.5 -73.167 -44.5 -120.5c0 -68.667 29.167 -123.667 87.5 -165s136.166 -62 233.499 -62zM900.001 -52c-139.333 0 -268.333 34.667 -387 104s-212.667 163.333 -282 282
s-104 247.667 -104 387s34.667 268.5 104 387.5s163.333 213.167 282 282.5s247.667 104 387 104s268.333 -34.667 387 -104s212.667 -163.5 282 -282.5s104 -248.167 104 -387.5s-34.667 -268.333 -104 -387s-163.333 -212.667 -282 -282s-247.667 -104 -387 -104z" />
    <glyph glyph-name="uni2792" unicode="&#x39;&#x20dd;&#x25cf;" 
d="M1022 854c0 -35.333 -11.667 -64.5 -35 -87.5s-53.333 -34.5 -90 -34.5c-36 0 -65.667 11.5 -89 34.5s-35 52.167 -35 87.5c0 34.667 11.667 63.5 35 86.5s53 34.5 89 34.5s65.833 -11.5 89.5 -34.5s35.5 -51.833 35.5 -86.5zM594 843
c0 -66.667 21.667 -122.499 65 -167.499s97.666 -67.5 162.999 -67.5c49.333 0 91 13.333 125 40l9 -1c-5.33301 -9.33301 -14.666 -23.333 -27.999 -42c-62.667 -86 -129.667 -170.667 -201 -254h219l83.5 108c39 51.333 62.5 83.666 70.5 96.999
c69.333 98.667 104 192.667 104 282c0 84 -28.5 152.167 -85.5 204.5s-131.167 78.5 -222.5 78.5c-90.667 0 -163.667 -25.5 -219 -76.5s-83 -118.167 -83 -201.5zM900 -51.999c-139.333 0 -268.333 34.667 -387 104s-212.667 163.333 -282 282s-104 247.667 -104 387
s34.667 268.5 104 387.5s163.333 213.167 282 282.5s247.667 104 387 104s268.333 -34.667 387 -104s212.667 -163.5 282 -282.5s104 -248.167 104 -387.5s-34.667 -268.333 -104 -387s-163.333 -212.667 -282 -282s-247.667 -104 -387 -104z" />
    <glyph glyph-name="uni1F130" unicode="A&#x20de;" 
d="M815 675h170l-78 256h-14zM736 395h-173l233 692h208l233 -692h-173l-47 153h-234zM414 1469h972c72 0 133.333 -25 184 -75s76 -110.333 76 -181v-982c0 -70.667 -25.333 -131 -76 -181s-112 -75 -184 -75h-972c-71.333 0 -132.5 25 -183.5 75s-76.5 110.333 -76.5 181
v982c0 70.667 25.5 131 76.5 181s112.167 75 183.5 75zM1484 1187c0 36 -13.333 66.833 -40 92.5s-58.667 38.5 -96 38.5h-896c-37.333 0 -69.333 -12.833 -96 -38.5s-40 -56.5 -40 -92.5v-930c0 -35.333 13.5 -66 40.5 -92s58.833 -39 95.5 -39h896
c36.667 0 68.5 13 95.5 39s40.5 56.667 40.5 92v930z" />
    <glyph glyph-name="uni1F131" unicode="B&#x20de;" 
d="M643 384l-0.000976562 693.001h325c66 0 118.167 -15.333 156.5 -46s57.5 -72.334 57.5 -125.001c0 -39.333 -11.667 -72.166 -35 -98.499s-54.333 -43.5 -93 -51.5v-8c48.667 -6 87.834 -23.833 117.501 -53.5s44.5 -68.834 44.5 -117.501
c0 -58.667 -22.667 -105.5 -68 -140.5s-104.333 -52.5 -177 -52.5h-328zM807.999 959.001v-164.999h86c82.667 0 124 28 124 84c0 25.333 -8.66699 45.166 -26 59.499s-41.333 21.5 -72 21.5h-112zM807.999 689.002v-181.999h96c92.667 0 139 29.667 139 89
c0 29.333 -10 52.166 -30 68.499s-48.333 24.5 -85 24.5h-120zM413.999 1469h972c72 0 133.333 -25 184 -75s76 -110.333 76 -181v-982c0 -70.667 -25.333 -131 -76 -181s-112 -75 -184 -75h-972c-71.333 0 -132.5 25 -183.5 75s-76.5 110.333 -76.5 181v982
c0 70.667 25.5 131 76.5 181s112.167 75 183.5 75zM1484 1187c0 36 -13.333 66.833 -40 92.5s-58.667 38.5 -96 38.5h-896c-37.333 0 -69.333 -12.833 -96 -38.5s-40 -56.5 -40 -92.5v-930c0 -35.333 13.5 -66 40.5 -92s58.833 -39 95.5 -39h896c36.667 0 68.5 13 95.5 39
s40.5 56.667 40.5 92v930z" />
    <glyph glyph-name="uni1F132" unicode="C&#x20de;" 
d="M1044 625l166 -0.000976562c-7.33301 -75.333 -39.333 -136.333 -96 -183s-128.334 -70 -215.001 -70c-98 0 -178 32.5 -240 97.5s-93 151.833 -93 260.5c0 108 31 194.667 93 260s142 98 240 98c88 0 160.333 -23.667 217 -71s88.334 -109.666 95.001 -186.999h-164
c-4 33.333 -19.667 60.833 -47 82.5s-60 32.5 -98 32.5c-49.333 0 -88.666 -19.333 -117.999 -58s-44 -91 -44 -157s14.667 -118.333 44 -157s68.666 -58 117.999 -58c37.333 0 69.333 10.333 96 31s42 47 46 79zM414 1469h972c72 0 133.333 -25 184 -75
s76 -110.333 76 -181v-982c0 -70.667 -25.333 -131 -76 -181s-112 -75 -184 -75h-972c-71.333 0 -132.5 25 -183.5 75s-76.5 110.333 -76.5 181v982c0 70.667 25.5 131 76.5 181s112.167 75 183.5 75zM1484 1187c0 36 -13.333 66.833 -40 92.5s-58.667 38.5 -96 38.5h-896
c-37.333 0 -69.333 -12.833 -96 -38.5s-40 -56.5 -40 -92.5v-930c0 -35.333 13.5 -66 40.5 -92s58.833 -39 95.5 -39h896c36.667 0 68.5 13 95.5 39s40.5 56.667 40.5 92v930z" />
    <glyph glyph-name="uni1F133" unicode="D&#x20de;" 
d="M623 1077h283c106.667 0 187.334 -29.667 242.001 -89s82 -145 82 -257s-27.333 -197.833 -82 -257.5s-135.334 -89.5 -242.001 -89.5h-283v693zM793 940v-418.999h87c60 0 103.833 17 131.5 51s41.5 86.667 41.5 158s-14 124.166 -42 158.499s-71.667 51.5 -131 51.5
h-87zM414 1469h972c72 0 133.333 -25 184 -75s76 -110.333 76 -181v-982c0 -70.667 -25.333 -131 -76 -181s-112 -75 -184 -75h-972c-71.333 0 -132.5 25 -183.5 75s-76.5 110.333 -76.5 181v982c0 70.667 25.5 131 76.5 181s112.167 75 183.5 75zM1484 1187
c0 36 -13.333 66.833 -40 92.5s-58.667 38.5 -96 38.5h-896c-37.333 0 -69.333 -12.833 -96 -38.5s-40 -56.5 -40 -92.5v-930c0 -35.333 13.5 -66 40.5 -92s58.833 -39 95.5 -39h896c36.667 0 68.5 13 95.5 39s40.5 56.667 40.5 92v930z" />
    <glyph glyph-name="uni1F134" unicode="E&#x20de;" 
d="M1150 520v-136h-483v693h483v-136h-315v-147h296v-121h-296v-153h315zM414 1469h972c72 0 133.333 -25 184 -75s76 -110.333 76 -181v-982c0 -70.667 -25.333 -131 -76 -181s-112 -75 -184 -75h-972c-71.333 0 -132.5 25 -183.5 75s-76.5 110.333 -76.5 181v982
c0 70.667 25.5 131 76.5 181s112.167 75 183.5 75zM1484 1187c0 36 -13.333 66.833 -40 92.5s-58.667 38.5 -96 38.5h-896c-37.333 0 -69.333 -12.833 -96 -38.5s-40 -56.5 -40 -92.5v-930c0 -35.333 13.5 -66 40.5 -92s58.833 -39 95.5 -39h896c36.667 0 68.5 13 95.5 39
s40.5 56.667 40.5 92v930z" />
    <glyph glyph-name="uni1F135" unicode="F&#x20de;" 
d="M863 384h-173v693h479v-138h-306v-159h278v-136h-278v-260zM414 1469h972c72 0 133.333 -25 184 -75s76 -110.333 76 -181v-982c0 -70.667 -25.333 -131 -76 -181s-112 -75 -184 -75h-972c-71.333 0 -132.5 25 -183.5 75s-76.5 110.333 -76.5 181v982
c0 70.667 25.5 131 76.5 181s112.167 75 183.5 75zM1484 1187c0 36 -13.333 66.833 -40 92.5s-58.667 38.5 -96 38.5h-896c-37.333 0 -69.333 -12.833 -96 -38.5s-40 -56.5 -40 -92.5v-930c0 -35.333 13.5 -66 40.5 -92s58.833 -39 95.5 -39h896c36.667 0 68.5 13 95.5 39
s40.5 56.667 40.5 92v930z" />
    <glyph glyph-name="uni1F136" unicode="G&#x20de;" 
d="M1047 610l0.000976562 37.998h-139v114h300v-121c0 -79.333 -27.333 -144 -82 -194s-129.667 -75 -225 -75c-100 0 -180.833 33 -242.5 99s-92.5 152.333 -92.5 259s30.833 193 92.5 259s142.5 99 242.5 99c83.333 0 153.5 -21.833 210.5 -65.5
s89.833 -101.5 98.5 -173.5h-167c-4.66699 30 -20 54.667 -46 74s-57.333 29 -94 29c-49.333 0 -88.833 -20.167 -118.5 -60.5s-44.5 -94.166 -44.5 -161.499s15 -121.666 45 -162.999s69.333 -62 118 -62c45.333 0 80.666 9.5 105.999 28.5s38 44.5 38 76.5zM414.001 1469
h972c72 0 133.333 -25 184 -75s76 -110.333 76 -181v-982c0 -70.667 -25.333 -131 -76 -181s-112 -75 -184 -75h-972c-71.333 0 -132.5 25 -183.5 75s-76.5 110.333 -76.5 181v982c0 70.667 25.5 131 76.5 181s112.167 75 183.5 75zM1484 1187c0 36 -13.333 66.833 -40 92.5
s-58.667 38.5 -96 38.5h-896c-37.333 0 -69.333 -12.833 -96 -38.5s-40 -56.5 -40 -92.5v-930c0 -35.333 13.5 -66 40.5 -92s58.833 -39 95.5 -39h896c36.667 0 68.5 13 95.5 39s40.5 56.667 40.5 92v930z" />
    <glyph glyph-name="uni1F137" unicode="H&#x20de;" 
d="M1203 384h-166v279h-273v-279h-166v693h166v-272h273v272h166v-693zM414 1469h972c72 0 133.333 -25 184 -75s76 -110.333 76 -181v-982c0 -70.667 -25.333 -131 -76 -181s-112 -75 -184 -75h-972c-71.333 0 -132.5 25 -183.5 75s-76.5 110.333 -76.5 181v982
c0 70.667 25.5 131 76.5 181s112.167 75 183.5 75zM1484 1187c0 36 -13.333 66.833 -40 92.5s-58.667 38.5 -96 38.5h-896c-37.333 0 -69.333 -12.833 -96 -38.5s-40 -56.5 -40 -92.5v-930c0 -35.333 13.5 -66 40.5 -92s58.833 -39 95.5 -39h896c36.667 0 68.5 13 95.5 39
s40.5 56.667 40.5 92v930z" />
    <glyph glyph-name="uni1F138" unicode="I&#x20de;" 
d="M992 384h-184v693h184v-693zM414 1469h972c72 0 133.333 -25 184 -75s76 -110.333 76 -181v-982c0 -70.667 -25.333 -131 -76 -181s-112 -75 -184 -75h-972c-71.333 0 -132.5 25 -183.5 75s-76.5 110.333 -76.5 181v982c0 70.667 25.5 131 76.5 181s112.167 75 183.5 75z
M1484 1187c0 36 -13.333 66.833 -40 92.5s-58.667 38.5 -96 38.5h-896c-37.333 0 -69.333 -12.833 -96 -38.5s-40 -56.5 -40 -92.5v-930c0 -35.333 13.5 -66 40.5 -92s58.833 -39 95.5 -39h896c36.667 0 68.5 13 95.5 39s40.5 56.667 40.5 92v930z" />
    <glyph glyph-name="uni1F139" unicode="J&#x20de;" 
d="M614 605l169 0.000976562c0.666992 -26.667 8.5 -47.5 23.5 -62.5s35.167 -22.5 60.5 -22.5c56.667 0 85 33 85 99v451h176v-452c0 -79.333 -23 -141.333 -69 -186s-109 -67 -189 -67s-142.667 22.167 -188 66.5s-68 102.166 -68 173.499zM414 1469h972
c72 0 133.333 -25 184 -75s76 -110.333 76 -181v-982c0 -70.667 -25.333 -131 -76 -181s-112 -75 -184 -75h-972c-71.333 0 -132.5 25 -183.5 75s-76.5 110.333 -76.5 181v982c0 70.667 25.5 131 76.5 181s112.167 75 183.5 75zM1484 1187c0 36 -13.333 66.833 -40 92.5
s-58.667 38.5 -96 38.5h-896c-37.333 0 -69.333 -12.833 -96 -38.5s-40 -56.5 -40 -92.5v-930c0 -35.333 13.5 -66 40.5 -92s58.833 -39 95.5 -39h896c36.667 0 68.5 13 95.5 39s40.5 56.667 40.5 92v930z" />
    <glyph glyph-name="uni1F13A" unicode="K&#x20de;" 
d="M1227 1077l-242 -308l250 -385h-201l-177 275l-70 -77v-198h-163v693h163v-290h11l241 290h188zM414 1469h972c72 0 133.333 -25 184 -75s76 -110.333 76 -181v-982c0 -70.667 -25.333 -131 -76 -181s-112 -75 -184 -75h-972c-71.333 0 -132.5 25 -183.5 75
s-76.5 110.333 -76.5 181v982c0 70.667 25.5 131 76.5 181s112.167 75 183.5 75zM1484 1187c0 36 -13.333 66.833 -40 92.5s-58.667 38.5 -96 38.5h-896c-37.333 0 -69.333 -12.833 -96 -38.5s-40 -56.5 -40 -92.5v-930c0 -35.333 13.5 -66 40.5 -92s58.833 -39 95.5 -39
h896c36.667 0 68.5 13 95.5 39s40.5 56.667 40.5 92v930z" />
    <glyph glyph-name="uni1F13B" unicode="L&#x20de;" 
d="M1183 538v-147h-472v693h177v-546h295zM414 1469h972c72 0 133.333 -25 184 -75s76 -110.333 76 -181v-982c0 -70.667 -25.333 -131 -76 -181s-112 -75 -184 -75h-972c-71.333 0 -132.5 25 -183.5 75s-76.5 110.333 -76.5 181v982c0 70.667 25.5 131 76.5 181
s112.167 75 183.5 75zM1484 1187c0 36 -13.333 66.833 -40 92.5s-58.667 38.5 -96 38.5h-896c-37.333 0 -69.333 -12.833 -96 -38.5s-40 -56.5 -40 -92.5v-930c0 -35.333 13.5 -66 40.5 -92s58.833 -39 95.5 -39h896c36.667 0 68.5 13 95.5 39s40.5 56.667 40.5 92v930z" />
    <glyph glyph-name="uni1F13C" unicode="M&#x20de;" 
d="M687 384h-139v693h169l182 -479h4l182 479h167v-693h-138v439h-12l-155 -407h-94l-154 407h-12v-439zM414 1469h972c72 0 133.333 -25 184 -75s76 -110.333 76 -181v-982c0 -70.667 -25.333 -131 -76 -181s-112 -75 -184 -75h-972c-71.333 0 -132.5 25 -183.5 75
s-76.5 110.333 -76.5 181v982c0 70.667 25.5 131 76.5 181s112.167 75 183.5 75zM1484 1187c0 36 -13.333 66.833 -40 92.5s-58.667 38.5 -96 38.5h-896c-37.333 0 -69.333 -12.833 -96 -38.5s-40 -56.5 -40 -92.5v-930c0 -35.333 13.5 -66 40.5 -92s58.833 -39 95.5 -39
h896c36.667 0 68.5 13 95.5 39s40.5 56.667 40.5 92v930z" />
    <glyph glyph-name="uni1F13D" unicode="N&#x20de;" 
d="M757 384h-153v693h131l297 -417h11v417h153v-693h-131l-297 421h-11v-421zM414 1469h972c72 0 133.333 -25 184 -75s76 -110.333 76 -181v-982c0 -70.667 -25.333 -131 -76 -181s-112 -75 -184 -75h-972c-71.333 0 -132.5 25 -183.5 75s-76.5 110.333 -76.5 181v982
c0 70.667 25.5 131 76.5 181s112.167 75 183.5 75zM1484 1187c0 36 -13.333 66.833 -40 92.5s-58.667 38.5 -96 38.5h-896c-37.333 0 -69.333 -12.833 -96 -38.5s-40 -56.5 -40 -92.5v-930c0 -35.333 13.5 -66 40.5 -92s58.833 -39 95.5 -39h896c36.667 0 68.5 13 95.5 39
s40.5 56.667 40.5 92v930z" />
    <glyph glyph-name="uni1F13E" unicode="O&#x20de;" 
d="M900 515c46.667 0 85 18.667 115 56s45 90.333 45 159s-15 121.667 -45 159s-68.333 56 -115 56s-85 -18.667 -115 -56s-45 -90.333 -45 -159s15 -121.667 45 -159s68.333 -56 115 -56zM900 372c-96.667 0 -176.5 31.833 -239.5 95.5s-94.5 151.167 -94.5 262.5
s31.5 198.833 94.5 262.5s142.833 95.5 239.5 95.5s176.5 -31.833 239.5 -95.5s94.5 -151.167 94.5 -262.5s-31.5 -198.833 -94.5 -262.5s-142.833 -95.5 -239.5 -95.5zM414 1469h972c72 0 133.333 -25 184 -75s76 -110.333 76 -181v-982c0 -70.667 -25.333 -131 -76 -181
s-112 -75 -184 -75h-972c-71.333 0 -132.5 25 -183.5 75s-76.5 110.333 -76.5 181v982c0 70.667 25.5 131 76.5 181s112.167 75 183.5 75zM1484 1187c0 36 -13.333 66.833 -40 92.5s-58.667 38.5 -96 38.5h-896c-37.333 0 -69.333 -12.833 -96 -38.5s-40 -56.5 -40 -92.5
v-930c0 -35.333 13.5 -66 40.5 -92s58.833 -39 95.5 -39h896c36.667 0 68.5 13 95.5 39s40.5 56.667 40.5 92v930z" />
    <glyph glyph-name="uni1F13F" unicode="P&#x20de;" 
d="M968 1077c77.333 0 138.667 -22.667 184 -68s68 -104 68 -176s-22.833 -130 -68.5 -174s-107.5 -66 -185.5 -66h-126v-209h-175v693h303zM1048 833c0 35.333 -9.5 62.332 -28.5 80.999s-46.167 28 -81.5 28h-105v-217h105c35.333 0 62.5 9.33301 81.5 28
s28.5 45.334 28.5 80.001zM414.001 1469h972c72 0 133.333 -25 184 -75s76 -110.333 76 -181v-982c0 -70.667 -25.333 -131 -76 -181s-112 -75 -184 -75h-972c-71.333 0 -132.5 25 -183.5 75s-76.5 110.333 -76.5 181v982c0 70.667 25.5 131 76.5 181s112.167 75 183.5 75z
M1484 1187c0 36 -13.333 66.833 -40 92.5s-58.667 38.5 -96 38.5h-896c-37.333 0 -69.333 -12.833 -96 -38.5s-40 -56.5 -40 -92.5v-930c0 -35.333 13.5 -66 40.5 -92s58.833 -39 95.5 -39h896c36.667 0 68.5 13 95.5 39s40.5 56.667 40.5 92v930z" />
    <glyph glyph-name="uni1F140" unicode="Q&#x20de;" 
d="M1212 321h-167l-43 66c-32 -10 -66 -15 -102 -15c-96.667 0 -176.5 31.833 -239.5 95.5s-94.5 151.167 -94.5 262.5s31.5 198.833 94.5 262.5s142.833 95.5 239.5 95.5s176.5 -31.833 239.5 -95.5s94.5 -151.167 94.5 -262.5c0 -120.667 -38 -214 -114 -280zM900 515
c15.333 0 27.667 1.66602 37 4.99902l-65 103h116l30 -39c28 36.667 42 85.334 42 146.001c0 68.667 -15 121.667 -45 159s-68.333 56 -115 56s-85 -18.667 -115 -56s-45 -90.333 -45 -159s15 -121.667 45 -159s68.333 -56 115 -56zM414.001 1469h972
c72 0 133.333 -25 184 -75s76 -110.333 76 -181v-982c0 -70.667 -25.333 -131 -76 -181s-112 -75 -184 -75h-972c-71.333 0 -132.5 25 -183.5 75s-76.5 110.333 -76.5 181v982c0 70.667 25.5 131 76.5 181s112.167 75 183.5 75zM1484 1187c0 36 -13.333 66.833 -40 92.5
s-58.667 38.5 -96 38.5h-896c-37.333 0 -69.333 -12.833 -96 -38.5s-40 -56.5 -40 -92.5v-930c0 -35.333 13.5 -66 40.5 -92s58.833 -39 95.5 -39h896c36.667 0 68.5 13 95.5 39s40.5 56.667 40.5 92v930z" />
    <glyph glyph-name="uni1F141" unicode="R&#x20de;" 
d="M935 1077c83.333 0 148.333 -19.668 195 -59.001s70 -93.666 70 -162.999c0 -47.333 -12.333 -88 -37 -122s-57 -57.667 -97 -71l148 -278h-185l-121 247h-111v-247h-163v693h301zM797 750.999h115c36 0 63.833 8.16699 83.5 24.5s29.5 39.833 29.5 70.5
c0 32 -9.83301 56.5 -29.5 73.5s-46.5 25.5 -80.5 25.5h-118v-194zM414 1469h972c72 0 133.333 -25 184 -75s76 -110.333 76 -181v-982c0 -70.667 -25.333 -131 -76 -181s-112 -75 -184 -75h-972c-71.333 0 -132.5 25 -183.5 75s-76.5 110.333 -76.5 181v982
c0 70.667 25.5 131 76.5 181s112.167 75 183.5 75zM1484 1187c0 36 -13.333 66.833 -40 92.5s-58.667 38.5 -96 38.5h-896c-37.333 0 -69.333 -12.833 -96 -38.5s-40 -56.5 -40 -92.5v-930c0 -35.333 13.5 -66 40.5 -92s58.833 -39 95.5 -39h896c36.667 0 68.5 13 95.5 39
s40.5 56.667 40.5 92v930z" />
    <glyph glyph-name="uni1F142" unicode="S&#x20de;" 
d="M608 584l167.005 0.00195312c3.33301 -25.333 16.666 -45.5 39.999 -60.5s53.333 -22.5 90 -22.5s66 7.33301 88 22s33 34.334 33 59.001c0 19.333 -8.33301 34.666 -25 45.999s-45.334 21.333 -86.001 30l-100 19c-62 12 -109.5 34.667 -142.5 68
s-49.5 75.666 -49.5 126.999c0 65.333 25.5 117.833 76.5 157.5s118.5 59.5 202.5 59.5c80.667 0 146.5 -18.833 197.5 -56.5s77.833 -87.834 80.5 -150.501h-162c-3.33301 24.667 -15.333 44.167 -36 58.5s-47.334 21.5 -80.001 21.5s-59 -7 -79 -21s-30 -32.667 -30 -56
c0 -36 33 -59.667 99 -71l105 -20c130.667 -26 196 -92 196 -198c0 -68.667 -26.667 -123.167 -80 -163.5s-125.333 -60.5 -216 -60.5c-86.667 0 -155.834 19 -207.501 57s-78.834 89.667 -81.501 155zM414.005 1469h972c72 0 133.333 -25 184 -75s76 -110.333 76 -181v-982
c0 -70.667 -25.333 -131 -76 -181s-112 -75 -184 -75h-972c-71.333 0 -132.5 25 -183.5 75s-76.5 110.333 -76.5 181v982c0 70.667 25.5 131 76.5 181s112.167 75 183.5 75zM1484 1187c0 36 -13.333 66.833 -40 92.5s-58.667 38.5 -96 38.5h-896
c-37.333 0 -69.333 -12.833 -96 -38.5s-40 -56.5 -40 -92.5v-930c0 -35.333 13.5 -66 40.5 -92s58.833 -39 95.5 -39h896c36.667 0 68.5 13 95.5 39s40.5 56.667 40.5 92v930z" />
    <glyph glyph-name="uni1F143" unicode="T&#x20de;" 
d="M989 375h-178v549h-200v144h578v-144h-200v-549zM414 1469h972c72 0 133.333 -25 184 -75s76 -110.333 76 -181v-982c0 -70.667 -25.333 -131 -76 -181s-112 -75 -184 -75h-972c-71.333 0 -132.5 25 -183.5 75s-76.5 110.333 -76.5 181v982c0 70.667 25.5 131 76.5 181
s112.167 75 183.5 75zM1484 1187c0 36 -13.333 66.833 -40 92.5s-58.667 38.5 -96 38.5h-896c-37.333 0 -69.333 -12.833 -96 -38.5s-40 -56.5 -40 -92.5v-930c0 -35.333 13.5 -66 40.5 -92s58.833 -39 95.5 -39h896c36.667 0 68.5 13 95.5 39s40.5 56.667 40.5 92v930z" />
    <glyph glyph-name="uni1F144" unicode="U&#x20de;" 
d="M900 507c39.333 0 70.5 10.833 93.5 32.5s34.5 51.834 34.5 90.501v438h172v-454c0 -74 -27.5 -134.333 -82.5 -181s-127.5 -70 -217.5 -70s-162.5 23.333 -217.5 70s-82.5 107 -82.5 181v454h172v-438c0 -38.667 11.5 -68.834 34.5 -90.501s54.167 -32.5 93.5 -32.5z
M414 1469h972c72 0 133.333 -25 184 -75s76 -110.333 76 -181v-982c0 -70.667 -25.333 -131 -76 -181s-112 -75 -184 -75h-972c-71.333 0 -132.5 25 -183.5 75s-76.5 110.333 -76.5 181v982c0 70.667 25.5 131 76.5 181s112.167 75 183.5 75zM1484 1187
c0 36 -13.333 66.833 -40 92.5s-58.667 38.5 -96 38.5h-896c-37.333 0 -69.333 -12.833 -96 -38.5s-40 -56.5 -40 -92.5v-930c0 -35.333 13.5 -66 40.5 -92s58.833 -39 95.5 -39h896c36.667 0 68.5 13 95.5 39s40.5 56.667 40.5 92v930z" />
    <glyph glyph-name="uni1F145" unicode="V&#x20de;" 
d="M787 372l-226 693h195l139 -518h10l139 518h195l-226 -693h-226zM414 1469h972c72 0 133.333 -25 184 -75s76 -110.333 76 -181v-982c0 -70.667 -25.333 -131 -76 -181s-112 -75 -184 -75h-972c-71.333 0 -132.5 25 -183.5 75s-76.5 110.333 -76.5 181v982
c0 70.667 25.5 131 76.5 181s112.167 75 183.5 75zM1484 1187c0 36 -13.333 66.833 -40 92.5s-58.667 38.5 -96 38.5h-896c-37.333 0 -69.333 -12.833 -96 -38.5s-40 -56.5 -40 -92.5v-930c0 -35.333 13.5 -66 40.5 -92s58.833 -39 95.5 -39h896c36.667 0 68.5 13 95.5 39
s40.5 56.667 40.5 92v930z" />
    <glyph glyph-name="uni1F146" unicode="W&#x20de;" 
d="M897 827l-117 -452h-151l-174 693h166l94 -482h8l113 482h128l113 -482h8l94 482h166l-174 -693h-151l-117 452h-6zM414 1469h972c72 0 133.333 -25 184 -75s76 -110.333 76 -181v-982c0 -70.667 -25.333 -131 -76 -181s-112 -75 -184 -75h-972
c-71.333 0 -132.5 25 -183.5 75s-76.5 110.333 -76.5 181v982c0 70.667 25.5 131 76.5 181s112.167 75 183.5 75zM1484 1187c0 36 -13.333 66.833 -40 92.5s-58.667 38.5 -96 38.5h-896c-37.333 0 -69.333 -12.833 -96 -38.5s-40 -56.5 -40 -92.5v-930
c0 -35.333 13.5 -66 40.5 -92s58.833 -39 95.5 -39h896c36.667 0 68.5 13 95.5 39s40.5 56.667 40.5 92v930z" />
    <glyph glyph-name="uni1F147" unicode="X&#x20de;" 
d="M1227 1077l-222 -347l220 -346h-190l-135 233h-9l-135 -233h-189l222 348l-221 345h198l132 -235h9l132 235h188zM414 1469h972c72 0 133.333 -25 184 -75s76 -110.333 76 -181v-982c0 -70.667 -25.333 -131 -76 -181s-112 -75 -184 -75h-972
c-71.333 0 -132.5 25 -183.5 75s-76.5 110.333 -76.5 181v982c0 70.667 25.5 131 76.5 181s112.167 75 183.5 75zM1484 1187c0 36 -13.333 66.833 -40 92.5s-58.667 38.5 -96 38.5h-896c-37.333 0 -69.333 -12.833 -96 -38.5s-40 -56.5 -40 -92.5v-930
c0 -35.333 13.5 -66 40.5 -92s58.833 -39 95.5 -39h896c36.667 0 68.5 13 95.5 39s40.5 56.667 40.5 92v930z" />
    <glyph glyph-name="uni1F148" unicode="Y&#x20de;" 
d="M991 375h-181v242l-240 451h193l135 -282h6l135 282h191l-239 -449v-244zM414 1469h972c72 0 133.333 -25 184 -75s76 -110.333 76 -181v-982c0 -70.667 -25.333 -131 -76 -181s-112 -75 -184 -75h-972c-71.333 0 -132.5 25 -183.5 75s-76.5 110.333 -76.5 181v982
c0 70.667 25.5 131 76.5 181s112.167 75 183.5 75zM1484 1187c0 36 -13.333 66.833 -40 92.5s-58.667 38.5 -96 38.5h-896c-37.333 0 -69.333 -12.833 -96 -38.5s-40 -56.5 -40 -92.5v-930c0 -35.333 13.5 -66 40.5 -92s58.833 -39 95.5 -39h896c36.667 0 68.5 13 95.5 39
s40.5 56.667 40.5 92v930z" />
    <glyph glyph-name="uni1F149" unicode="Z&#x20de;" 
d="M630 384v113l321 430v9h-317v141h529v-113l-321 -430v-9h332v-141h-544zM414 1469h972c72 0 133.333 -25 184 -75s76 -110.333 76 -181v-982c0 -70.667 -25.333 -131 -76 -181s-112 -75 -184 -75h-972c-71.333 0 -132.5 25 -183.5 75s-76.5 110.333 -76.5 181v982
c0 70.667 25.5 131 76.5 181s112.167 75 183.5 75zM1484 1187c0 36 -13.333 66.833 -40 92.5s-58.667 38.5 -96 38.5h-896c-37.333 0 -69.333 -12.833 -96 -38.5s-40 -56.5 -40 -92.5v-930c0 -35.333 13.5 -66 40.5 -92s58.833 -39 95.5 -39h896c36.667 0 68.5 13 95.5 39
s40.5 56.667 40.5 92v930z" />
    <glyph glyph-name="uni1F150" unicode="A&#x20dd;&#x25cf;" 
d="M991 677h-182l87 287h8zM726 376l52 165h244l52 -165h196l-254 757h-231l-255 -757h196zM900 -52c-139.333 0 -268.333 34.667 -387 104s-212.667 163.333 -282 282s-104 247.667 -104 387s34.667 268.5 104 387.5s163.333 213.167 282 282.5s247.667 104 387 104
s268.333 -34.667 387 -104s212.667 -163.5 282 -282.5s104 -248.167 104 -387.5s-34.667 -268.333 -104 -387s-163.333 -212.667 -282 -282s-247.667 -104 -387 -104z" />
    <glyph glyph-name="uni1F151" unicode="B&#x20dd;&#x25cf;" 
d="M611 353l358.999 0.000976562c81.333 0 146.833 19.5 196.5 58.5s74.5 90.5 74.5 154.5c0 50.667 -15.167 92.667 -45.5 126s-72.166 54 -125.499 62v2c42 10.667 74.667 30.667 98 60s35 64.666 35 105.999c0 58 -21 103.833 -63 137.5s-99.667 50.5 -173 50.5h-356
v-757zM795.999 976.001h120c32 0 57.167 -7.5 75.5 -22.5s27.5 -35.833 27.5 -62.5c0 -59.333 -44 -89 -132 -89h-91v174zM794.999 684.001l129.001 -0.000976562c39.333 0 69.666 -8.66699 90.999 -26s32 -41.666 32 -72.999c0 -62.667 -49.667 -94 -149 -94h-103v193z
M900 -52c-139.333 0 -268.333 34.667 -387 104s-212.667 163.333 -282 282s-104 247.667 -104 387s34.667 268.5 104 387.5s163.333 213.167 282 282.5s247.667 104 387 104s268.333 -34.667 387 -104s212.667 -163.5 282 -282.5s104 -248.167 104 -387.5
s-34.667 -268.333 -104 -387s-163.333 -212.667 -282 -282s-247.667 -104 -387 -104z" />
    <glyph glyph-name="uni1F152" unicode="C&#x20dd;&#x25cf;" 
d="M1051 614c-4 -30.667 -20.1699 -56.499 -48.5029 -77.499s-61.5 -31.5 -99.5 -31.5c-51.333 0 -92.333 20 -123 60s-46 94.667 -46 164s15.333 124.166 46 164.499s71.667 60.5 123 60.5c38.667 0 72.334 -11.167 101.001 -33.5s45.334 -49.833 50.001 -82.5h187
c-7.33301 84 -42 152 -104 204s-141 78 -237 78c-107.333 0 -194.666 -35.667 -261.999 -107s-101 -166 -101 -284c0 -118.667 33.667 -213.5 101 -284.5s154.666 -106.5 261.999 -106.5c94 0 171.833 25.5 233.5 76.5s96.834 117.5 105.501 199.5h-188zM899.997 -51.999
c-139.333 0 -268.333 34.667 -387 104s-212.667 163.333 -282 282s-104 247.667 -104 387s34.667 268.5 104 387.5s163.333 213.167 282 282.5s247.667 104 387 104s268.333 -34.667 387 -104s212.667 -163.5 282 -282.5s104 -248.167 104 -387.5
s-34.667 -268.333 -104 -387s-163.333 -212.667 -282 -282s-247.667 -104 -387 -104z" />
    <glyph glyph-name="uni1F153" unicode="D&#x20dd;&#x25cf;" 
d="M606 1110v-757h310c116.667 0 205 32.167 265 96.5s90 158.5 90 282.5s-30 218 -90 282s-148.333 96 -265 96h-310zM795 960h92c64.667 0 112 -18.5 142 -55.5s45 -95.167 45 -174.5c0 -78.667 -15 -136.167 -45 -172.5s-77.333 -54.5 -142 -54.5h-92v457zM900 -52
c-139.333 0 -268.333 34.667 -387 104s-212.667 163.333 -282 282s-104 247.667 -104 387s34.667 268.5 104 387.5s163.333 213.167 282 282.5s247.667 104 387 104s268.333 -34.667 387 -104s212.667 -163.5 282 -282.5s104 -248.167 104 -387.5
s-34.667 -268.333 -104 -387s-163.333 -212.667 -282 -282s-247.667 -104 -387 -104z" />
    <glyph glyph-name="uni1F154" unicode="E&#x20dd;&#x25cf;" 
d="M1171 500h-345v166h324v136h-324v160h345v148h-533v-757h533v147zM900 -52c-139.333 0 -268.333 34.667 -387 104s-212.667 163.333 -282 282s-104 247.667 -104 387s34.667 268.5 104 387.5s163.333 213.167 282 282.5s247.667 104 387 104s268.333 -34.667 387 -104
s212.667 -163.5 282 -282.5s104 -248.167 104 -387.5s-34.667 -268.333 -104 -387s-163.333 -212.667 -282 -282s-247.667 -104 -387 -104z" />
    <glyph glyph-name="uni1F155" unicode="F&#x20dd;&#x25cf;" 
d="M857 353v281h303v154h-303v168h332v154h-527v-757h195zM900 -52c-139.333 0 -268.333 34.667 -387 104s-212.667 163.333 -282 282s-104 247.667 -104 387s34.667 268.5 104 387.5s163.333 213.167 282 282.5s247.667 104 387 104s268.333 -34.667 387 -104
s212.667 -163.5 282 -282.5s104 -248.167 104 -387.5s-34.667 -268.333 -104 -387s-163.333 -212.667 -282 -282s-247.667 -104 -387 -104z" />
    <glyph glyph-name="uni1F156" unicode="G&#x20dd;&#x25cf;" 
d="M1053 617c0 -34 -13.165 -62.334 -39.498 -85.001s-62.833 -34 -109.5 -34c-51.333 0 -92.5 20.833 -123.5 62.5s-46.5 97.834 -46.5 168.501c0 70 15.333 125.333 46 166s72 61 124 61c40.667 0 74.167 -8.5 100.5 -25.5s41.166 -38.833 44.499 -65.5h192
c-10.667 76 -47.167 137.5 -109.5 184.5s-138.833 70.5 -229.5 70.5c-108.667 0 -196.834 -36 -264.501 -108s-101.5 -166.333 -101.5 -283s33.5 -210.834 100.5 -282.501s155.167 -107.5 264.5 -107.5c101.333 0 182.5 28.833 243.5 86.5s91.5 129.834 91.5 216.501v132
h-326v-139h143v-18zM900.002 -52.001c-139.333 0 -268.333 34.667 -387 104s-212.667 163.333 -282 282s-104 247.667 -104 387s34.667 268.5 104 387.5s163.333 213.167 282 282.5s247.667 104 387 104s268.333 -34.667 387 -104s212.667 -163.5 282 -282.5
s104 -248.167 104 -387.5s-34.667 -268.333 -104 -387s-163.333 -212.667 -282 -282s-247.667 -104 -387 -104z" />
    <glyph glyph-name="uni1F157" unicode="H&#x20dd;&#x25cf;" 
d="M1231 353v757h-187v-294h-287v294h-188v-757h188v301h287v-301h187zM900 -52c-139.333 0 -268.333 34.667 -387 104s-212.667 163.333 -282 282s-104 247.667 -104 387s34.667 268.5 104 387.5s163.333 213.167 282 282.5s247.667 104 387 104s268.333 -34.667 387 -104
s212.667 -163.5 282 -282.5s104 -248.167 104 -387.5s-34.667 -268.333 -104 -387s-163.333 -212.667 -282 -282s-247.667 -104 -387 -104z" />
    <glyph glyph-name="uni1F158" unicode="I&#x20dd;&#x25cf;" 
d="M1003 353v757h-206v-757h206zM900 -52c-139.333 0 -268.333 34.667 -387 104s-212.667 163.333 -282 282s-104 247.667 -104 387s34.667 268.5 104 387.5s163.333 213.167 282 282.5s247.667 104 387 104s268.333 -34.667 387 -104s212.667 -163.5 282 -282.5
s104 -248.167 104 -387.5s-34.667 -268.333 -104 -387s-163.333 -212.667 -282 -282s-247.667 -104 -387 -104z" />
    <glyph glyph-name="uni1F159" unicode="J&#x20dd;&#x25cf;" 
d="M585 600c0 -81.333 25.668 -146.168 77.001 -194.501s119.666 -72.5 204.999 -72.5c88.667 0 158 24.333 208 73s75 116.667 75 204v493h-198v-492c0 -67.333 -29.667 -101 -89 -101c-26.667 0 -47.5 7.83301 -62.5 23.5s-22.5 37.834 -22.5 66.501h-193z
M900.001 -52.002c-139.333 0 -268.333 34.667 -387 104s-212.667 163.333 -282 282s-104 247.667 -104 387s34.667 268.5 104 387.5s163.333 213.167 282 282.5s247.667 104 387 104s268.333 -34.667 387 -104s212.667 -163.5 282 -282.5s104 -248.167 104 -387.5
s-34.667 -268.333 -104 -387s-163.333 -212.667 -282 -282s-247.667 -104 -387 -104z" />
    <glyph glyph-name="uni1F15A" unicode="K&#x20dd;&#x25cf;" 
d="M1257 1110h-215l-260 -312h-6v312h-184v-757h184v217l70 77l191 -294h228l-274 418zM900 -52c-139.333 0 -268.333 34.667 -387 104s-212.667 163.333 -282 282s-104 247.667 -104 387s34.667 268.5 104 387.5s163.333 213.167 282 282.5s247.667 104 387 104
s268.333 -34.667 387 -104s212.667 -163.5 282 -282.5s104 -248.167 104 -387.5s-34.667 -268.333 -104 -387s-163.333 -212.667 -282 -282s-247.667 -104 -387 -104z" />
    <glyph glyph-name="uni1F15B" unicode="L&#x20dd;&#x25cf;" 
d="M1197 527h-320v590h-200v-757h520v167zM900 -52c-139.333 0 -268.333 34.667 -387 104s-212.667 163.333 -282 282s-104 247.667 -104 387s34.667 268.5 104 387.5s163.333 213.167 282 282.5s247.667 104 387 104s268.333 -34.667 387 -104s212.667 -163.5 282 -282.5
s104 -248.167 104 -387.5s-34.667 -268.333 -104 -387s-163.333 -212.667 -282 -282s-247.667 -104 -387 -104z" />
    <glyph glyph-name="uni1F15C" unicode="M&#x20dd;&#x25cf;" 
d="M671 353v479h8l166 -442h109l167 440h8v-477h158v757h-188l-198 -520h-2l-197 520h-188v-757h157zM900 -52c-139.333 0 -268.333 34.667 -387 104s-212.667 163.333 -282 282s-104 247.667 -104 387s34.667 268.5 104 387.5s163.333 213.167 282 282.5
s247.667 104 387 104s268.333 -34.667 387 -104s212.667 -163.5 282 -282.5s104 -248.167 104 -387.5s-34.667 -268.333 -104 -387s-163.333 -212.667 -282 -282s-247.667 -104 -387 -104z" />
    <glyph glyph-name="uni1F15D" unicode="N&#x20dd;&#x25cf;" 
d="M750 353v452h5l321 -452h150v757h-175v-451h-6l-321 451h-149v-757h175zM900 -52c-139.333 0 -268.333 34.667 -387 104s-212.667 163.333 -282 282s-104 247.667 -104 387s34.667 268.5 104 387.5s163.333 213.167 282 282.5s247.667 104 387 104
s268.333 -34.667 387 -104s212.667 -163.5 282 -282.5s104 -248.167 104 -387.5s-34.667 -268.333 -104 -387s-163.333 -212.667 -282 -282s-247.667 -104 -387 -104z" />
    <glyph glyph-name="uni1F15E" unicode="O&#x20dd;&#x25cf;" 
d="M900 501c-49.333 0 -90 19.833 -122 59.5s-48 95.834 -48 168.501s16 128.834 48 168.501s72.667 59.5 122 59.5s90 -19.833 122 -59.5s48 -95.834 48 -168.501s-16 -128.834 -48 -168.501s-72.667 -59.5 -122 -59.5zM900 338c105.333 0 192.5 34.833 261.5 104.5
s103.5 165.167 103.5 286.5s-34.5 216.833 -103.5 286.5s-156.167 104.5 -261.5 104.5s-192.5 -34.833 -261.5 -104.5s-103.5 -165.167 -103.5 -286.5s34.5 -216.833 103.5 -286.5s156.167 -104.5 261.5 -104.5zM900 -52c-139.333 0 -268.333 34.667 -387 104
s-212.667 163.333 -282 282s-104 247.667 -104 387s34.667 268.5 104 387.5s163.333 213.167 282 282.5s247.667 104 387 104s268.333 -34.667 387 -104s212.667 -163.5 282 -282.5s104 -248.167 104 -387.5s-34.667 -268.333 -104 -387s-163.333 -212.667 -282 -282
s-247.667 -104 -387 -104z" />
    <glyph glyph-name="uni1F15F" unicode="P&#x20dd;&#x25cf;" 
d="M967 1110h-333v-757h198v226h133c84.667 0 152.5 23.833 203.5 71.5s76.5 111.5 76.5 191.5c0 80.667 -25.5 145.5 -76.5 194.5s-118.167 73.5 -201.5 73.5zM1053 842c0 -37.333 -10.333 -66.166 -31 -86.499s-50 -30.5 -88 -30.5h-112v234h112
c37.333 0 66.5 -10.333 87.5 -31s31.5 -49.334 31.5 -86.001zM900 -52c-139.333 0 -268.333 34.667 -387 104s-212.667 163.333 -282 282s-104 247.667 -104 387s34.667 268.5 104 387.5s163.333 213.167 282 282.5s247.667 104 387 104s268.333 -34.667 387 -104
s212.667 -163.5 282 -282.5s104 -248.167 104 -387.5s-34.667 -268.333 -104 -387s-163.333 -212.667 -282 -282s-247.667 -104 -387 -104z" />
    <glyph glyph-name="uni1F160" unicode="Q&#x20dd;&#x25cf;" 
d="M1247 285l-102.001 142c80 71.333 120 172 120 302c0 121.333 -34.5 216.833 -103.5 286.5s-156.167 104.5 -261.5 104.5s-192.5 -34.833 -261.5 -104.5s-103.5 -165.167 -103.5 -286.5s34.5 -216.833 103.5 -286.5s156.167 -104.5 261.5 -104.5
c40.667 0 77.334 5.33301 110.001 16l43 -69h194zM899.999 501c-49.333 0 -90 19.832 -122 59.499s-48 95.834 -48 168.501s16 128.834 48 168.501s72.667 59.5 122 59.5s90 -19.833 122 -59.5s48 -95.834 48 -168.501c0 -62 -13.667 -112 -41 -150l-31 40h-136l72 -115
c-10.667 -2 -22 -3 -34 -3zM899.999 -52.001c-139.333 0 -268.333 34.667 -387 104s-212.667 163.333 -282 282s-104 247.667 -104 387s34.667 268.5 104 387.5s163.333 213.167 282 282.5s247.667 104 387 104s268.333 -34.667 387 -104s212.667 -163.5 282 -282.5
s104 -248.167 104 -387.5s-34.667 -268.333 -104 -387s-163.333 -212.667 -282 -282s-247.667 -104 -387 -104z" />
    <glyph glyph-name="uni1F161" unicode="R&#x20dd;&#x25cf;" 
d="M783 755v206.999h127c38 0 67.333 -9.16699 88 -27.5s31 -44.166 31 -77.499c0 -32 -10.5 -57 -31.5 -75s-50.833 -27 -89.5 -27h-125zM932 1110h-330v-757h185v267h114l130 -267h212l-162 300c44.667 16.667 79.667 43.667 105 81s38 81 38 131
c0 77.333 -25.667 137.5 -77 180.5s-123 64.5 -215 64.5zM900 -52.001c-139.333 0 -268.333 34.667 -387 104s-212.667 163.333 -282 282s-104 247.667 -104 387s34.667 268.5 104 387.5s163.333 213.167 282 282.5s247.667 104 387 104s268.333 -34.667 387 -104
s212.667 -163.5 282 -282.5s104 -248.167 104 -387.5s-34.667 -268.333 -104 -387s-163.333 -212.667 -282 -282s-247.667 -104 -387 -104z" />
    <glyph glyph-name="uni1F162" unicode="S&#x20dd;&#x25cf;" 
d="M579 577c2.66699 -73.333 32.499 -131.162 89.499 -173.495s133.167 -63.5 228.5 -63.5c98.667 0 177.334 22.167 236.001 66.5s88 104.166 88 179.499c0 118 -72.333 190.667 -217 218l-112 21c-70.667 13.333 -106 38.333 -106 75c0 24 10.667 43.333 32 58
s49.333 22 84 22c34 0 62.167 -7.83301 84.5 -23.5s35.166 -36.5 38.499 -62.5h182c-2.66699 69.333 -32 125 -88 167s-128.333 63 -217 63c-91.333 0 -165.166 -21.833 -221.499 -65.5s-84.5 -101.167 -84.5 -172.5c0 -56.667 18 -103.334 54 -140.001
s88.333 -61.667 157 -75l108 -22c44 -8.66699 74.667 -18.834 92 -30.501s26 -27.834 26 -48.501c0 -25.333 -11.5 -45.5 -34.5 -60.5s-54.167 -22.5 -93.5 -22.5c-38.667 0 -70.5 8.16699 -95.5 24.5s-38.833 38.166 -41.5 65.499h-189zM899.999 -51.9961
c-139.333 0 -268.333 34.667 -387 104s-212.667 163.333 -282 282s-104 247.667 -104 387s34.667 268.5 104 387.5s163.333 213.167 282 282.5s247.667 104 387 104s268.333 -34.667 387 -104s212.667 -163.5 282 -282.5s104 -248.167 104 -387.5
s-34.667 -268.333 -104 -387s-163.333 -212.667 -282 -282s-247.667 -104 -387 -104z" />
    <glyph glyph-name="uni1F163" unicode="T&#x20dd;&#x25cf;" 
d="M999 331v594h218v163h-633v-163h217v-594h198zM900 -52c-139.333 0 -268.333 34.667 -387 104s-212.667 163.333 -282 282s-104 247.667 -104 387s34.667 268.5 104 387.5s163.333 213.167 282 282.5s247.667 104 387 104s268.333 -34.667 387 -104
s212.667 -163.5 282 -282.5s104 -248.167 104 -387.5s-34.667 -268.333 -104 -387s-163.333 -212.667 -282 -282s-247.667 -104 -387 -104z" />
    <glyph glyph-name="uni1F164" unicode="U&#x20dd;&#x25cf;" 
d="M900 482c-42 0 -74.834 11.5 -98.501 34.5s-35.5 54.167 -35.5 93.5v478h-195v-502c0 -80.667 30 -145.5 90 -194.5s139.667 -73.5 239 -73.5c98.667 0 178.167 24.5 238.5 73.5s90.5 113.833 90.5 194.5v502h-194v-478c0 -40 -12.167 -71.333 -36.5 -94
s-57.166 -34 -98.499 -34zM899.999 -52c-139.333 0 -268.333 34.667 -387 104s-212.667 163.333 -282 282s-104 247.667 -104 387s34.667 268.5 104 387.5s163.333 213.167 282 282.5s247.667 104 387 104s268.333 -34.667 387 -104s212.667 -163.5 282 -282.5
s104 -248.167 104 -387.5s-34.667 -268.333 -104 -387s-163.333 -212.667 -282 -282s-247.667 -104 -387 -104z" />
    <glyph glyph-name="uni1F165" unicode="V&#x20dd;&#x25cf;" 
d="M1023 328l248 757h-218l-149 -563h-8l-149 563h-218l248 -757h246zM900 -52c-139.333 0 -268.333 34.667 -387 104s-212.667 163.333 -282 282s-104 247.667 -104 387s34.667 268.5 104 387.5s163.333 213.167 282 282.5s247.667 104 387 104s268.333 -34.667 387 -104
s212.667 -163.5 282 -282.5s104 -248.167 104 -387.5s-34.667 -268.333 -104 -387s-163.333 -212.667 -282 -282s-247.667 -104 -387 -104z" />
    <glyph glyph-name="uni1F166" unicode="W&#x20dd;&#x25cf;" 
d="M898 817h4l126 -486h171l191 757h-189l-99 -522h-5l-122 522h-150l-122 -522h-5l-98 522h-190l192 -757h170zM900 -52c-139.333 0 -268.333 34.667 -387 104s-212.667 163.333 -282 282s-104 247.667 -104 387s34.667 268.5 104 387.5s163.333 213.167 282 282.5
s247.667 104 387 104s268.333 -34.667 387 -104s212.667 -163.5 282 -282.5s104 -248.167 104 -387.5s-34.667 -268.333 -104 -387s-163.333 -212.667 -282 -282s-247.667 -104 -387 -104z" />
    <glyph glyph-name="uni1F167" unicode="X&#x20dd;&#x25cf;" 
d="M1261 1110h-212l-141 -254h-7l-144 254h-222l241 -377l-243 -380h214l145 252h7l146 -252h213l-241 377zM900 -52c-139.333 0 -268.333 34.667 -387 104s-212.667 163.333 -282 282s-104 247.667 -104 387s34.667 268.5 104 387.5s163.333 213.167 282 282.5
s247.667 104 387 104s268.333 -34.667 387 -104s212.667 -163.5 282 -282.5s104 -248.167 104 -387.5s-34.667 -268.333 -104 -387s-163.333 -212.667 -282 -282s-247.667 -104 -387 -104z" />
    <glyph glyph-name="uni1F168" unicode="Y&#x20dd;&#x25cf;" 
d="M799 341h203v265l264 492h-218l-146 -305h-4l-146 305h-217l264 -492v-265zM900 -52c-139.333 0 -268.333 34.667 -387 104s-212.667 163.333 -282 282s-104 247.667 -104 387s34.667 268.5 104 387.5s163.333 213.167 282 282.5s247.667 104 387 104
s268.333 -34.667 387 -104s212.667 -163.5 282 -282.5s104 -248.167 104 -387.5s-34.667 -268.333 -104 -387s-163.333 -212.667 -282 -282s-247.667 -104 -387 -104z" />
    <glyph glyph-name="uni1F169" unicode="Z&#x20dd;&#x25cf;" 
d="M603 353h598v160h-357v3l346 467v127h-582v-161h340v-3l-345 -466v-127zM900 -52c-139.333 0 -268.333 34.667 -387 104s-212.667 163.333 -282 282s-104 247.667 -104 387s34.667 268.5 104 387.5s163.333 213.167 282 282.5s247.667 104 387 104
s268.333 -34.667 387 -104s212.667 -163.5 282 -282.5s104 -248.167 104 -387.5s-34.667 -268.333 -104 -387s-163.333 -212.667 -282 -282s-247.667 -104 -387 -104z" />
    <glyph glyph-name="uni1F170" unicode="A&#x20de;&#x25a0;" 
d="M991 664h-182l87 287h8zM726 363l52 165h244l52 -165h196l-254 757h-231l-255 -757h196zM414 1469h972c72 0 133.333 -25 184 -75s76 -110.333 76 -181v-982c0 -70.667 -25.333 -131 -76 -181s-112 -75 -184 -75h-972c-71.333 0 -132.5 25 -183.5 75
s-76.5 110.333 -76.5 181v982c0 70.667 25.5 131 76.5 181s112.167 75 183.5 75z" />
    <glyph glyph-name="uni1F171" unicode="B&#x20de;&#x25a0;" 
d="M611 353l359 -0.000976562c80.667 0 146 19.333 196 58s75 90.334 75 155.001c0 52 -15.5 94.333 -46.5 127s-72.5 53 -124.5 61v2c40.667 10 73 29.333 97 58s36 64.667 36 108c0 58 -21.167 103.833 -63.5 137.5s-99.833 50.5 -172.5 50.5h-356v-757zM796 975.999h120
c32 0 57.167 -7.66699 75.5 -23s27.5 -36 27.5 -62c0 -59.333 -44 -89 -132 -89h-91v174zM795 683.999l129.001 -0.000976562c39.333 0 69.666 -8.66699 90.999 -26s32 -41.666 32 -72.999c0 -62.667 -49.667 -94 -149 -94h-103v193zM414.001 1469h972
c72 0 133.333 -25 184 -75s76 -110.333 76 -181v-982c0 -70.667 -25.333 -131 -76 -181s-112 -75 -184 -75h-972c-71.333 0 -132.5 25 -183.5 75s-76.5 110.333 -76.5 181v982c0 70.667 25.5 131 76.5 181s112.167 75 183.5 75z" />
    <glyph glyph-name="uni1F172" unicode="C&#x20de;&#x25a0;" 
d="M1051 614c-4 -30.667 -20.1699 -56.499 -48.5029 -77.499s-61.5 -31.5 -99.5 -31.5c-51.333 0 -92.333 20 -123 60s-46 94.667 -46 164s15.333 124.166 46 164.499s71.667 60.5 123 60.5c38.667 0 72.334 -11.167 101.001 -33.5s45.334 -49.833 50.001 -82.5h187
c-7.33301 84 -42 152 -104 204s-141 78 -237 78c-107.333 0 -194.666 -35.667 -261.999 -107s-101 -166 -101 -284c0 -118.667 33.667 -213.5 101 -284.5s154.666 -106.5 261.999 -106.5c94 0 171.833 25.5 233.5 76.5s96.834 117.5 105.501 199.5h-188zM413.997 1469h972
c72 0 133.333 -25 184 -75s76 -110.333 76 -181v-982c0 -70.667 -25.333 -131 -76 -181s-112 -75 -184 -75h-972c-71.333 0 -132.5 25 -183.5 75s-76.5 110.333 -76.5 181v982c0 70.667 25.5 131 76.5 181s112.167 75 183.5 75z" />
    <glyph glyph-name="uni1F173" unicode="D&#x20de;&#x25a0;" 
d="M591 1110v-757.001h310c117.333 0 205.833 32.333 265.5 97s89.5 158.667 89.5 282c0 122.667 -29.833 216.334 -89.5 281.001s-148.167 97 -265.5 97h-310zM779 959.999h93c64.667 0 112 -18.667 142 -56s45 -95.333 45 -174c0 -78 -15 -135.333 -45 -172
s-77.333 -55 -142 -55h-93v457zM414 1469h972c72 0 133.333 -25 184 -75s76 -110.333 76 -181v-982c0 -70.667 -25.333 -131 -76 -181s-112 -75 -184 -75h-972c-71.333 0 -132.5 25 -183.5 75s-76.5 110.333 -76.5 181v982c0 70.667 25.5 131 76.5 181s112.167 75 183.5 75z
" />
    <glyph glyph-name="uni1F174" unicode="E&#x20de;&#x25a0;" 
d="M1171 500h-345v166h324v136h-324v160h345v148h-533v-757h533v147zM414 1469h972c72 0 133.333 -25 184 -75s76 -110.333 76 -181v-982c0 -70.667 -25.333 -131 -76 -181s-112 -75 -184 -75h-972c-71.333 0 -132.5 25 -183.5 75s-76.5 110.333 -76.5 181v982
c0 70.667 25.5 131 76.5 181s112.167 75 183.5 75z" />
    <glyph glyph-name="uni1F175" unicode="F&#x20de;&#x25a0;" 
d="M857 353v281h303v154h-303v168h332v154h-527v-757h195zM414 1469h972c72 0 133.333 -25 184 -75s76 -110.333 76 -181v-982c0 -70.667 -25.333 -131 -76 -181s-112 -75 -184 -75h-972c-71.333 0 -132.5 25 -183.5 75s-76.5 110.333 -76.5 181v982
c0 70.667 25.5 131 76.5 181s112.167 75 183.5 75z" />
    <glyph glyph-name="uni1F176" unicode="G&#x20de;&#x25a0;" 
d="M1053 617c0 -34 -13.165 -62.334 -39.498 -85.001s-62.833 -34 -109.5 -34c-51.333 0 -92.5 20.833 -123.5 62.5s-46.5 97.834 -46.5 168.501c0 70 15.333 125.333 46 166s72 61 124 61c40.667 0 74.167 -8.5 100.5 -25.5s41.166 -38.833 44.499 -65.5h192
c-10.667 76 -47.167 137.5 -109.5 184.5s-138.833 70.5 -229.5 70.5c-108.667 0 -196.834 -36 -264.501 -108s-101.5 -166.333 -101.5 -283s33.5 -210.834 100.5 -282.501s155.167 -107.5 264.5 -107.5c101.333 0 182.5 28.833 243.5 86.5s91.5 129.834 91.5 216.501v132
h-326v-139h143v-18zM414.002 1469h972c72 0 133.333 -25 184 -75s76 -110.333 76 -181v-982c0 -70.667 -25.333 -131 -76 -181s-112 -75 -184 -75h-972c-71.333 0 -132.5 25 -183.5 75s-76.5 110.333 -76.5 181v982c0 70.667 25.5 131 76.5 181s112.167 75 183.5 75z" />
    <glyph glyph-name="uni1F177" unicode="H&#x20de;&#x25a0;" 
d="M1231 353v757h-187v-294h-287v294h-188v-757h188v301h287v-301h187zM414 1469h972c72 0 133.333 -25 184 -75s76 -110.333 76 -181v-982c0 -70.667 -25.333 -131 -76 -181s-112 -75 -184 -75h-972c-71.333 0 -132.5 25 -183.5 75s-76.5 110.333 -76.5 181v982
c0 70.667 25.5 131 76.5 181s112.167 75 183.5 75z" />
    <glyph glyph-name="uni1F178" unicode="I&#x20de;&#x25a0;" 
d="M1003 353v757h-206v-757h206zM414 1469h972c72 0 133.333 -25 184 -75s76 -110.333 76 -181v-982c0 -70.667 -25.333 -131 -76 -181s-112 -75 -184 -75h-972c-71.333 0 -132.5 25 -183.5 75s-76.5 110.333 -76.5 181v982c0 70.667 25.5 131 76.5 181s112.167 75 183.5 75
z" />
    <glyph glyph-name="uni1F179" unicode="J&#x20de;&#x25a0;" 
d="M585 600c0 -79.333 25 -143.668 75 -193.001s119 -74 207 -74s157.167 24.333 207.5 73s75.5 116.667 75.5 204v493h-198v-492c0 -67.333 -29.667 -101 -89 -101c-26.667 0 -47.5 7.83301 -62.5 23.5s-22.5 37.834 -22.5 66.501h-193zM414 1469h972
c72 0 133.333 -25 184 -75s76 -110.333 76 -181v-982c0 -70.667 -25.333 -131 -76 -181s-112 -75 -184 -75h-972c-71.333 0 -132.5 25 -183.5 75s-76.5 110.333 -76.5 181v982c0 70.667 25.5 131 76.5 181s112.167 75 183.5 75z" />
    <glyph glyph-name="uni1F17A" unicode="K&#x20de;&#x25a0;" 
d="M1257 1110h-215l-260 -312h-6v312h-184v-757h184v217l70 77l191 -294h228c-21.333 29.333 -66.5 98.333 -135.5 207s-115.167 179 -138.5 211zM414 1469h972c72 0 133.333 -25 184 -75s76 -110.333 76 -181v-982c0 -70.667 -25.333 -131 -76 -181s-112 -75 -184 -75h-972
c-71.333 0 -132.5 25 -183.5 75s-76.5 110.333 -76.5 181v982c0 70.667 25.5 131 76.5 181s112.167 75 183.5 75z" />
    <glyph glyph-name="uni1F17B" unicode="L&#x20de;&#x25a0;" 
d="M1203 527h-320v590h-199v-757h519v167zM414 1469h972c72 0 133.333 -25 184 -75s76 -110.333 76 -181v-982c0 -70.667 -25.333 -131 -76 -181s-112 -75 -184 -75h-972c-71.333 0 -132.5 25 -183.5 75s-76.5 110.333 -76.5 181v982c0 70.667 25.5 131 76.5 181
s112.167 75 183.5 75z" />
    <glyph glyph-name="uni1F17C" unicode="M&#x20de;&#x25a0;" 
d="M671 353v479h8l166 -442h109l167 440h8v-477h158v757h-188l-198 -520h-2l-197 520h-188v-757h157zM414 1469h972c72 0 133.333 -25 184 -75s76 -110.333 76 -181v-982c0 -70.667 -25.333 -131 -76 -181s-112 -75 -184 -75h-972c-71.333 0 -132.5 25 -183.5 75
s-76.5 110.333 -76.5 181v982c0 70.667 25.5 131 76.5 181s112.167 75 183.5 75z" />
    <glyph glyph-name="uni1F17D" unicode="N&#x20de;&#x25a0;" 
d="M750 353v452h5l321 -452h150v757h-175v-451h-6l-321 451h-149v-757h175zM414 1469h972c72 0 133.333 -25 184 -75s76 -110.333 76 -181v-982c0 -70.667 -25.333 -131 -76 -181s-112 -75 -184 -75h-972c-71.333 0 -132.5 25 -183.5 75s-76.5 110.333 -76.5 181v982
c0 70.667 25.5 131 76.5 181s112.167 75 183.5 75z" />
    <glyph glyph-name="uni1F17E" unicode="O&#x20de;&#x25a0;" 
d="M900 501c-49.333 0 -90 19.833 -122 59.5s-48 95.834 -48 168.501s16 128.834 48 168.501s72.667 59.5 122 59.5s90 -19.833 122 -59.5s48 -95.834 48 -168.501s-16 -128.834 -48 -168.501s-72.667 -59.5 -122 -59.5zM900 338c105.333 0 192.5 34.833 261.5 104.5
s103.5 165.167 103.5 286.5s-34.5 216.833 -103.5 286.5s-156.167 104.5 -261.5 104.5s-192.5 -34.833 -261.5 -104.5s-103.5 -165.167 -103.5 -286.5s34.5 -216.833 103.5 -286.5s156.167 -104.5 261.5 -104.5zM414 1469h972c72 0 133.333 -25 184 -75s76 -110.333 76 -181
v-982c0 -70.667 -25.333 -131 -76 -181s-112 -75 -184 -75h-972c-71.333 0 -132.5 25 -183.5 75s-76.5 110.333 -76.5 181v982c0 70.667 25.5 131 76.5 181s112.167 75 183.5 75z" />
    <glyph glyph-name="uni1F17F" unicode="P&#x20de;&#x25a0;" 
d="M967 1110h-333v-757h198v226h133c86 0 154.167 24.167 204.5 72.5s75.5 111.833 75.5 190.5c0 80 -25 144.667 -75 194s-117.667 74 -203 74zM1053 842c0 -37.333 -10.333 -66.167 -31 -86.5s-50 -30.5 -88 -30.5h-112v234h112c38 0 67.333 -10 88 -30s31 -49 31 -87z
M414 1469h972c72 0 133.333 -25 184 -75s76 -110.333 76 -181v-982c0 -70.667 -25.333 -131 -76 -181s-112 -75 -184 -75h-972c-71.333 0 -132.5 25 -183.5 75s-76.5 110.333 -76.5 181v982c0 70.667 25.5 131 76.5 181s112.167 75 183.5 75z" />
    <glyph glyph-name="uni1F180" unicode="Q&#x20de;&#x25a0;" 
d="M1247 285l-102.001 142c80 71.333 120 172 120 302c0 121.333 -34.5 216.833 -103.5 286.5s-156.167 104.5 -261.5 104.5s-192.5 -34.833 -261.5 -104.5s-103.5 -165.167 -103.5 -286.5s34.5 -216.833 103.5 -286.5s156.167 -104.5 261.5 -104.5
c40.667 0 77.334 5.33301 110.001 16l43 -69h194zM899.999 501c-49.333 0 -90 19.832 -122 59.499s-48 95.834 -48 168.501s16 128.834 48 168.501s72.667 59.5 122 59.5s90 -19.833 122 -59.5s48 -95.834 48 -168.501c0 -62 -13.667 -112 -41 -150l-31 40h-136l72 -115
c-10.667 -2 -22 -3 -34 -3zM413.999 1469h972c72 0 133.333 -25 184 -75s76 -110.333 76 -181v-982c0 -70.667 -25.333 -131 -76 -181s-112 -75 -184 -75h-972c-71.333 0 -132.5 25 -183.5 75s-76.5 110.333 -76.5 181v982c0 70.667 25.5 131 76.5 181s112.167 75 183.5 75z
" />
    <glyph glyph-name="uni1F181" unicode="R&#x20de;&#x25a0;" 
d="M783 755v207.001h127c37.333 0 66.5 -9 87.5 -27s31.5 -44 31.5 -78c0 -32.667 -10.667 -57.834 -32 -75.501s-51 -26.5 -89 -26.5h-125zM932 1110h-330v-757h185v267h114l130 -267h212l-162 300c43.333 16 78 42.5 104 79.5s39 81.167 39 132.5
c0 76.667 -25.667 136.667 -77 180s-123 65 -215 65zM414 1469h972c72 0 133.333 -25 184 -75s76 -110.333 76 -181v-982c0 -70.667 -25.333 -131 -76 -181s-112 -75 -184 -75h-972c-71.333 0 -132.5 25 -183.5 75s-76.5 110.333 -76.5 181v982c0 70.667 25.5 131 76.5 181
s112.167 75 183.5 75z" />
    <glyph glyph-name="uni1F182" unicode="S&#x20de;&#x25a0;" 
d="M579 577c2.66699 -73.333 32.499 -131.162 89.499 -173.495s133.167 -63.5 228.5 -63.5c98.667 0 177.334 22.167 236.001 66.5s88 104.166 88 179.499c0 118 -72.333 190.667 -217 218l-112 21c-70.667 13.333 -106 38.333 -106 75c0 24 10.667 43.333 32 58
s49.333 22 84 22c34 0 62.167 -7.83301 84.5 -23.5s35.166 -36.5 38.499 -62.5h182c-2.66699 69.333 -32 125 -88 167s-128.333 63 -217 63c-91.333 0 -165.166 -21.833 -221.499 -65.5s-84.5 -101.167 -84.5 -172.5c0 -56.667 18 -103.334 54 -140.001
s88.333 -61.667 157 -75l108 -22c44 -8.66699 74.667 -18.834 92 -30.501s26 -27.834 26 -48.501c0 -25.333 -11.5 -45.5 -34.5 -60.5s-54.167 -22.5 -93.5 -22.5c-38.667 0 -70.5 8.16699 -95.5 24.5s-38.833 38.166 -41.5 65.499h-189zM413.999 1469h972
c72 0 133.333 -25 184 -75s76 -110.333 76 -181v-982c0 -70.667 -25.333 -131 -76 -181s-112 -75 -184 -75h-972c-71.333 0 -132.5 25 -183.5 75s-76.5 110.333 -76.5 181v982c0 70.667 25.5 131 76.5 181s112.167 75 183.5 75z" />
    <glyph glyph-name="uni1F183" unicode="T&#x20de;&#x25a0;" 
d="M999 344v594h218v163h-633v-163h217v-594h198zM414 1469h972c72 0 133.333 -25 184 -75s76 -110.333 76 -181v-982c0 -70.667 -25.333 -131 -76 -181s-112 -75 -184 -75h-972c-71.333 0 -132.5 25 -183.5 75s-76.5 110.333 -76.5 181v982c0 70.667 25.5 131 76.5 181
s112.167 75 183.5 75z" />
    <glyph glyph-name="uni1F184" unicode="U&#x20de;&#x25a0;" 
d="M900 495c-42 0 -74.834 11.5 -98.501 34.5s-35.5 54.167 -35.5 93.5v478h-195v-502c0 -80.667 30 -145.5 90 -194.5s139.667 -73.5 239 -73.5c98.667 0 178.167 24.5 238.5 73.5s90.5 113.833 90.5 194.5v502h-194v-478c0 -40 -12.167 -71.333 -36.5 -94
s-57.166 -34 -98.499 -34zM413.999 1469h972c72 0 133.333 -25 184 -75s76 -110.333 76 -181v-982c0 -70.667 -25.333 -131 -76 -181s-112 -75 -184 -75h-972c-71.333 0 -132.5 25 -183.5 75s-76.5 110.333 -76.5 181v982c0 70.667 25.5 131 76.5 181s112.167 75 183.5 75z
" />
    <glyph glyph-name="uni1F185" unicode="V&#x20de;&#x25a0;" 
d="M1023 341l248 757h-218l-149 -563h-8l-149 563h-218l248 -757h246zM414 1469h972c72 0 133.333 -25 184 -75s76 -110.333 76 -181v-982c0 -70.667 -25.333 -131 -76 -181s-112 -75 -184 -75h-972c-71.333 0 -132.5 25 -183.5 75s-76.5 110.333 -76.5 181v982
c0 70.667 25.5 131 76.5 181s112.167 75 183.5 75z" />
    <glyph glyph-name="uni1F186" unicode="W&#x20de;&#x25a0;" 
d="M898 830h4l126 -486h171l191 757h-189l-99 -522h-5l-122 522h-150l-122 -522h-5l-98 522h-190l192 -757h170zM414 1469h972c72 0 133.333 -25 184 -75s76 -110.333 76 -181v-982c0 -70.667 -25.333 -131 -76 -181s-112 -75 -184 -75h-972c-71.333 0 -132.5 25 -183.5 75
s-76.5 110.333 -76.5 181v982c0 70.667 25.5 131 76.5 181s112.167 75 183.5 75z" />
    <glyph glyph-name="uni1F187" unicode="X&#x20de;&#x25a0;" 
d="M1261 1110h-212l-141 -254h-7l-144 254h-222l241 -377l-243 -380h214l145 252h7l146 -252h213l-241 377zM414 1469h972c72 0 133.333 -25 184 -75s76 -110.333 76 -181v-982c0 -70.667 -25.333 -131 -76 -181s-112 -75 -184 -75h-972c-71.333 0 -132.5 25 -183.5 75
s-76.5 110.333 -76.5 181v982c0 70.667 25.5 131 76.5 181s112.167 75 183.5 75z" />
    <glyph glyph-name="uni1F188" unicode="Y&#x20de;&#x25a0;" 
d="M799 344h203v265l264 492h-218l-146 -305h-4l-146 305h-217l264 -492v-265zM414 1469h972c72 0 133.333 -25 184 -75s76 -110.333 76 -181v-982c0 -70.667 -25.333 -131 -76 -181s-112 -75 -184 -75h-972c-71.333 0 -132.5 25 -183.5 75s-76.5 110.333 -76.5 181v982
c0 70.667 25.5 131 76.5 181s112.167 75 183.5 75z" />
    <glyph glyph-name="uni1F189" unicode="Z&#x20de;&#x25a0;" 
d="M603 353h598v160h-357v3l346 467v127h-582v-161h340v-3l-345 -466v-127zM414 1469h972c72 0 133.333 -25 184 -75s76 -110.333 76 -181v-982c0 -70.667 -25.333 -131 -76 -181s-112 -75 -184 -75h-972c-71.333 0 -132.5 25 -183.5 75s-76.5 110.333 -76.5 181v982
c0 70.667 25.5 131 76.5 181s112.167 75 183.5 75z" />
    <glyph glyph-name="plus.uc.whitecircle" unicode="&#x2b;&#x20dd;" 
d="M975 656v-212h-150v212h-208v146h208v207h150v-207h208v-146h-208zM900 108c111.333 0 213.666 27.333 306.999 82s166.666 128.834 219.999 222.501s80 196.167 80 307.5s-26.667 213.833 -80 307.5s-126.666 167.834 -219.999 222.501s-195.666 82 -306.999 82
s-213.666 -27.333 -306.999 -82s-166.666 -128.834 -219.999 -222.501s-80 -196.167 -80 -307.5s26.667 -213.833 80 -307.5s126.666 -167.834 219.999 -222.501s195.666 -82 306.999 -82zM900 -53c-105.333 0 -205.666 20.333 -300.999 61s-177.666 95.5 -246.999 164.5
s-124.333 151.333 -165 247s-61 196.167 -61 301.5s20.333 205.833 61 301.5s95.667 177.834 165 246.501s151.666 123.334 246.999 164.001s195.666 61 300.999 61s205.666 -20.333 300.999 -61s177.666 -95.334 246.999 -164.001s124.333 -150.834 165 -246.501
s61 -196.167 61 -301.5s-20.333 -205.833 -61 -301.5s-95.667 -178 -165 -247s-151.666 -123.833 -246.999 -164.5s-195.666 -61 -300.999 -61z" />
    <glyph glyph-name="minus.uc.whitecircle" unicode="&#x2212;&#x20dd;" 
d="M1161 651h-522v151h522v-151zM900 108c111.333 0 213.666 27.333 306.999 82s166.666 128.834 219.999 222.501s80 196.167 80 307.5s-26.667 213.833 -80 307.5s-126.666 167.834 -219.999 222.501s-195.666 82 -306.999 82s-213.666 -27.333 -306.999 -82
s-166.666 -128.834 -219.999 -222.501s-80 -196.167 -80 -307.5s26.667 -213.833 80 -307.5s126.666 -167.834 219.999 -222.501s195.666 -82 306.999 -82zM900 -53c-105.333 0 -205.666 20.333 -300.999 61s-177.666 95.5 -246.999 164.5s-124.333 151.333 -165 247
s-61 196.167 -61 301.5s20.333 205.833 61 301.5s95.667 177.834 165 246.501s151.666 123.334 246.999 164.001s195.666 61 300.999 61s205.666 -20.333 300.999 -61s177.666 -95.334 246.999 -164.001s124.333 -150.834 165 -246.501s61 -196.167 61 -301.5
s-20.333 -205.833 -61 -301.5s-95.667 -178 -165 -247s-151.666 -123.833 -246.999 -164.5s-195.666 -61 -300.999 -61z" />
    <glyph glyph-name="multiply.uc.whitecircle" unicode="&#xd7;&#x20dd;" 
d="M900 833l160 156l107 -107l-161 -156l161 -155l-107 -106l-160 155l-161 -155l-105 106l160 155l-161 157l106 106zM900 108c111.333 0 213.666 27.333 306.999 82s166.666 128.834 219.999 222.501s80 196.167 80 307.5s-26.667 213.833 -80 307.5
s-126.666 167.834 -219.999 222.501s-195.666 82 -306.999 82s-213.666 -27.333 -306.999 -82s-166.666 -128.834 -219.999 -222.501s-80 -196.167 -80 -307.5s26.667 -213.833 80 -307.5s126.666 -167.834 219.999 -222.501s195.666 -82 306.999 -82zM900 -53
c-105.333 0 -205.666 20.333 -300.999 61s-177.666 95.5 -246.999 164.5s-124.333 151.333 -165 247s-61 196.167 -61 301.5s20.333 205.833 61 301.5s95.667 177.834 165 246.501s151.666 123.334 246.999 164.001s195.666 61 300.999 61s205.666 -20.333 300.999 -61
s177.666 -95.334 246.999 -164.001s124.333 -150.834 165 -246.501s61 -196.167 61 -301.5s-20.333 -205.833 -61 -301.5s-95.667 -178 -165 -247s-151.666 -123.833 -246.999 -164.5s-195.666 -61 -300.999 -61z" />
    <glyph glyph-name="divide.uc.whitecircle" unicode="&#xf7;&#x20dd;" 
d="M1161 666h-522v121h522v-121zM809 944c0 24.667 8.49902 44.834 25.499 60.501s38.5 23.5 64.5 23.5c26.667 0 48.834 -7.83301 66.501 -23.5s26.5 -35.834 26.5 -60.501c0 -24 -8.83301 -43.833 -26.5 -59.5s-39.834 -23.5 -66.501 -23.5
c-25.333 0 -46.666 7.83301 -63.999 23.5s-26 35.5 -26 59.5zM808.999 511c0 24.667 8.66699 45 26 61s39 24 65 24s47.833 -8 65.5 -24s26.5 -36.333 26.5 -61c0 -23.333 -8.83301 -42.833 -26.5 -58.5s-39.5 -23.5 -65.5 -23.5s-47.667 7.83301 -65 23.5
s-26 35.167 -26 58.5zM899.999 108c111.333 0 213.666 27.333 306.999 82s166.666 128.834 219.999 222.501s80 196.167 80 307.5s-26.667 213.833 -80 307.5s-126.666 167.834 -219.999 222.501s-195.666 82 -306.999 82s-213.666 -27.333 -306.999 -82
s-166.666 -128.834 -219.999 -222.501s-80 -196.167 -80 -307.5s26.667 -213.833 80 -307.5s126.666 -167.834 219.999 -222.501s195.666 -82 306.999 -82zM899.999 -53c-105.333 0 -205.666 20.333 -300.999 61s-177.666 95.5 -246.999 164.5s-124.333 151.333 -165 247
s-61 196.167 -61 301.5s20.333 205.833 61 301.5s95.667 177.834 165 246.501s151.666 123.334 246.999 164.001s195.666 61 300.999 61s205.666 -20.333 300.999 -61s177.666 -95.334 246.999 -164.001s124.333 -150.834 165 -246.501s61 -196.167 61 -301.5
s-20.333 -205.833 -61 -301.5s-95.667 -178 -165 -247s-151.666 -123.833 -246.999 -164.5s-195.666 -61 -300.999 -61z" />
    <glyph glyph-name="equal.uc.whitecircle" unicode="&#x3d;&#x20dd;" 
d="M1161 533h-522v134h522v-134zM1161 785h-522v133h522v-133zM900 108c111.333 0 213.666 27.333 306.999 82s166.666 128.834 219.999 222.501s80 196.167 80 307.5s-26.667 213.833 -80 307.5s-126.666 167.834 -219.999 222.501s-195.666 82 -306.999 82
s-213.666 -27.333 -306.999 -82s-166.666 -128.834 -219.999 -222.501s-80 -196.167 -80 -307.5s26.667 -213.833 80 -307.5s126.666 -167.834 219.999 -222.501s195.666 -82 306.999 -82zM900 -53c-105.333 0 -205.666 20.333 -300.999 61s-177.666 95.5 -246.999 164.5
s-124.333 151.333 -165 247s-61 196.167 -61 301.5s20.333 205.833 61 301.5s95.667 177.834 165 246.501s151.666 123.334 246.999 164.001s195.666 61 300.999 61s205.666 -20.333 300.999 -61s177.666 -95.334 246.999 -164.001s124.333 -150.834 165 -246.501
s61 -196.167 61 -301.5s-20.333 -205.833 -61 -301.5s-95.667 -178 -165 -247s-151.666 -123.833 -246.999 -164.5s-195.666 -61 -300.999 -61z" />
    <glyph glyph-name="greater.uc.whitecircle" unicode="&#x3e;&#x20dd;" 
d="M1179 773v-102l-507 -250v165l304 136v7l-304 135v169zM900 108c111.333 0 213.666 27.333 306.999 82s166.666 128.834 219.999 222.501s80 196.167 80 307.5s-26.667 213.833 -80 307.5s-126.666 167.834 -219.999 222.501s-195.666 82 -306.999 82
s-213.666 -27.333 -306.999 -82s-166.666 -128.834 -219.999 -222.501s-80 -196.167 -80 -307.5s26.667 -213.833 80 -307.5s126.666 -167.834 219.999 -222.501s195.666 -82 306.999 -82zM900 -53c-105.333 0 -205.666 20.333 -300.999 61s-177.666 95.5 -246.999 164.5
s-124.333 151.333 -165 247s-61 196.167 -61 301.5s20.333 205.833 61 301.5s95.667 177.834 165 246.501s151.666 123.334 246.999 164.001s195.666 61 300.999 61s205.666 -20.333 300.999 -61s177.666 -95.334 246.999 -164.001s124.333 -150.834 165 -246.501
s61 -196.167 61 -301.5s-20.333 -205.833 -61 -301.5s-95.667 -178 -165 -247s-151.666 -123.833 -246.999 -164.5s-195.666 -61 -300.999 -61z" />
    <glyph glyph-name="less.uc.whitecircle" unicode="&#x3c;&#x20dd;" 
d="M621 671v102l507 260v-169l-305 -135v-7l305 -136v-165zM900 108c111.333 0 213.666 27.333 306.999 82s166.666 128.834 219.999 222.501s80 196.167 80 307.5s-26.667 213.833 -80 307.5s-126.666 167.834 -219.999 222.501s-195.666 82 -306.999 82
s-213.666 -27.333 -306.999 -82s-166.666 -128.834 -219.999 -222.501s-80 -196.167 -80 -307.5s26.667 -213.833 80 -307.5s126.666 -167.834 219.999 -222.501s195.666 -82 306.999 -82zM900 -53c-105.333 0 -205.666 20.333 -300.999 61s-177.666 95.5 -246.999 164.5
s-124.333 151.333 -165 247s-61 196.167 -61 301.5s20.333 205.833 61 301.5s95.667 177.834 165 246.501s151.666 123.334 246.999 164.001s195.666 61 300.999 61s205.666 -20.333 300.999 -61s177.666 -95.334 246.999 -164.001s124.333 -150.834 165 -246.501
s61 -196.167 61 -301.5s-20.333 -205.833 -61 -301.5s-95.667 -178 -165 -247s-151.666 -123.833 -246.999 -164.5s-195.666 -61 -300.999 -61z" />
    <glyph glyph-name="numbersign.whitecircle" unicode="&#x30;&#x20dd;" 
d="M1191 786h-104l-23 -110h102l-23 -118h-103l-37 -177h-124l37 177h-107l-36 -177h-124l37 177h-100l23 118h100l24 110h-98l22 118h99l35 170h123l-35 -170h107l35 170h123l-34 -170h104zM849 794l-29 -134h128l28 134h-127zM900 108
c111.333 0 213.666 27.333 306.999 82s166.666 128.834 219.999 222.501s80 196.167 80 307.5s-26.667 213.833 -80 307.5s-126.666 167.834 -219.999 222.501s-195.666 82 -306.999 82s-213.666 -27.333 -306.999 -82s-166.666 -128.834 -219.999 -222.501
s-80 -196.167 -80 -307.5s26.667 -213.833 80 -307.5s126.666 -167.834 219.999 -222.501s195.666 -82 306.999 -82zM900 -53c-105.333 0 -205.666 20.333 -300.999 61s-177.666 95.5 -246.999 164.5s-124.333 151.333 -165 247s-61 196.167 -61 301.5
s20.333 205.833 61 301.5s95.667 177.834 165 246.501s151.666 123.334 246.999 164.001s195.666 61 300.999 61s205.666 -20.333 300.999 -61s177.666 -95.334 246.999 -164.001s124.333 -150.834 165 -246.501s61 -196.167 61 -301.5s-20.333 -205.833 -61 -301.5
s-95.667 -178 -165 -247s-151.666 -123.833 -246.999 -164.5s-195.666 -61 -300.999 -61z" />
    <glyph glyph-name="uni25BC.whitecircle" unicode="&#x25bc;&#x20dd;" 
d="M1223 946l-323 -560l-322 560h645zM900 108c111.333 0 213.666 27.333 306.999 82s166.666 128.834 219.999 222.501s80 196.167 80 307.5s-26.667 213.833 -80 307.5s-126.666 167.834 -219.999 222.501s-195.666 82 -306.999 82s-213.666 -27.333 -306.999 -82
s-166.666 -128.834 -219.999 -222.501s-80 -196.167 -80 -307.5s26.667 -213.833 80 -307.5s126.666 -167.834 219.999 -222.501s195.666 -82 306.999 -82zM900 -53c-105.333 0 -205.666 20.333 -300.999 61s-177.666 95.5 -246.999 164.5s-124.333 151.333 -165 247
s-61 196.167 -61 301.5s20.333 205.833 61 301.5s95.667 177.834 165 246.501s151.666 123.334 246.999 164.001s195.666 61 300.999 61s205.666 -20.333 300.999 -61s177.666 -95.334 246.999 -164.001s124.333 -150.834 165 -246.501s61 -196.167 61 -301.5
s-20.333 -205.833 -61 -301.5s-95.667 -178 -165 -247s-151.666 -123.833 -246.999 -164.5s-195.666 -61 -300.999 -61z" />
    <glyph glyph-name="uni25B2.whitecircle" unicode="&#x25b2;&#x20dd;" 
d="M1223 507h-645l322 561zM900 108c111.333 0 213.666 27.333 306.999 82s166.666 128.834 219.999 222.501s80 196.167 80 307.5s-26.667 213.833 -80 307.5s-126.666 167.834 -219.999 222.501s-195.666 82 -306.999 82s-213.666 -27.333 -306.999 -82
s-166.666 -128.834 -219.999 -222.501s-80 -196.167 -80 -307.5s26.667 -213.833 80 -307.5s126.666 -167.834 219.999 -222.501s195.666 -82 306.999 -82zM900 -53c-105.333 0 -205.666 20.333 -300.999 61s-177.666 95.5 -246.999 164.5s-124.333 151.333 -165 247
s-61 196.167 -61 301.5s20.333 205.833 61 301.5s95.667 177.834 165 246.501s151.666 123.334 246.999 164.001s195.666 61 300.999 61s205.666 -20.333 300.999 -61s177.666 -95.334 246.999 -164.001s124.333 -150.834 165 -246.501s61 -196.167 61 -301.5
s-20.333 -205.833 -61 -301.5s-95.667 -178 -165 -247s-151.666 -123.833 -246.999 -164.5s-195.666 -61 -300.999 -61z" />
    <glyph glyph-name="uni25C0.whitecircle" unicode="&#x25c0;&#x20dd;" 
d="M1118 405l-559 323l559 323v-646zM900 108c111.333 0 213.666 27.333 306.999 82s166.666 128.834 219.999 222.501s80 196.167 80 307.5s-26.667 213.833 -80 307.5s-126.666 167.834 -219.999 222.501s-195.666 82 -306.999 82s-213.666 -27.333 -306.999 -82
s-166.666 -128.834 -219.999 -222.501s-80 -196.167 -80 -307.5s26.667 -213.833 80 -307.5s126.666 -167.834 219.999 -222.501s195.666 -82 306.999 -82zM900 -53c-105.333 0 -205.666 20.333 -300.999 61s-177.666 95.5 -246.999 164.5s-124.333 151.333 -165 247
s-61 196.167 -61 301.5s20.333 205.833 61 301.5s95.667 177.834 165 246.501s151.666 123.334 246.999 164.001s195.666 61 300.999 61s205.666 -20.333 300.999 -61s177.666 -95.334 246.999 -164.001s124.333 -150.834 165 -246.501s61 -196.167 61 -301.5
s-20.333 -205.833 -61 -301.5s-95.667 -178 -165 -247s-151.666 -123.833 -246.999 -164.5s-195.666 -61 -300.999 -61z" />
    <glyph glyph-name="uni25B6.whitecircle" unicode="&#x25b6;&#x20dd;" 
d="M682 405v646l559 -323zM900 108c111.333 0 213.666 27.333 306.999 82s166.666 128.834 219.999 222.501s80 196.167 80 307.5s-26.667 213.833 -80 307.5s-126.666 167.834 -219.999 222.501s-195.666 82 -306.999 82s-213.666 -27.333 -306.999 -82
s-166.666 -128.834 -219.999 -222.501s-80 -196.167 -80 -307.5s26.667 -213.833 80 -307.5s126.666 -167.834 219.999 -222.501s195.666 -82 306.999 -82zM900 -53c-105.333 0 -205.666 20.333 -300.999 61s-177.666 95.5 -246.999 164.5s-124.333 151.333 -165 247
s-61 196.167 -61 301.5s20.333 205.833 61 301.5s95.667 177.834 165 246.501s151.666 123.334 246.999 164.001s195.666 61 300.999 61s205.666 -20.333 300.999 -61s177.666 -95.334 246.999 -164.001s124.333 -150.834 165 -246.501s61 -196.167 61 -301.5
s-20.333 -205.833 -61 -301.5s-95.667 -178 -165 -247s-151.666 -123.833 -246.999 -164.5s-195.666 -61 -300.999 -61z" />
    <glyph glyph-name="question.whitecircle" unicode="&#x3f;&#x20dd;" 
d="M785 459c0 26.667 9.5 47.667 28.5 63s44.167 23 75.5 23c32.667 0 58.5 -7.83301 77.5 -23.5s28.5 -36.5 28.5 -62.5s-9.5 -46.667 -28.5 -62s-44.833 -23 -77.5 -23c-31.333 0 -56.5 7.83301 -75.5 23.5s-28.5 36.167 -28.5 61.5zM808 605
c-0.666992 2.66699 -0.999023 13.333 -0.999023 32c-2.66699 60.667 27.333 112 90 154c30.667 20.667 52.167 37.5 64.5 50.5s18.5 28.5 18.5 46.5c0 22.667 -8 40.167 -24 52.5s-35.667 18.5 -59 18.5c-26 0 -46.667 -7.83301 -62 -23.5s-23.333 -35.5 -24 -59.5h-154
c-0.666992 71.333 22.666 124.5 69.999 159.5s108.333 52.5 183 52.5c70 0 127.667 -17 173 -51s68 -81.333 68 -142c0 -37.333 -8.83301 -68.333 -26.5 -93s-43.167 -48 -76.5 -70c-38 -26 -62.5 -45.167 -73.5 -57.5s-16.5 -29.5 -16.5 -51.5v-18h-150zM900.001 107.999
c111.333 0 213.666 27.333 306.999 82s166.666 128.834 219.999 222.501s80 196.167 80 307.5s-26.667 213.833 -80 307.5s-126.666 167.834 -219.999 222.501s-195.666 82 -306.999 82s-213.666 -27.333 -306.999 -82s-166.666 -128.834 -219.999 -222.501
s-80 -196.167 -80 -307.5s26.667 -213.833 80 -307.5s126.666 -167.834 219.999 -222.501s195.666 -82 306.999 -82zM900.001 -53.001c-105.333 0 -205.666 20.333 -300.999 61s-177.666 95.5 -246.999 164.5s-124.333 151.333 -165 247s-61 196.167 -61 301.5
s20.333 205.833 61 301.5s95.667 177.834 165 246.501s151.666 123.334 246.999 164.001s195.666 61 300.999 61s205.666 -20.333 300.999 -61s177.666 -95.334 246.999 -164.001s124.333 -150.834 165 -246.501s61 -196.167 61 -301.5s-20.333 -205.833 -61 -301.5
s-95.667 -178 -165 -247s-151.666 -123.833 -246.999 -164.5s-195.666 -61 -300.999 -61z" />
    <glyph glyph-name="exclam.whitecircle" unicode="&#x21;&#x20dd;" 
d="M797 459c0 26.667 9.5 47.667 28.5 63s44.833 23 77.5 23c32 0 57.333 -7.83301 76 -23.5s28 -36.5 28 -62.5c0 -25.333 -9.33301 -45.833 -28 -61.5s-44 -23.5 -76 -23.5s-57.667 7.83301 -77 23.5s-29 36.167 -29 61.5zM809 1077h187l-20 -456h-147zM900 108
c111.333 0 213.666 27.333 306.999 82s166.666 128.834 219.999 222.501s80 196.167 80 307.5s-26.667 213.833 -80 307.5s-126.666 167.834 -219.999 222.501s-195.666 82 -306.999 82s-213.666 -27.333 -306.999 -82s-166.666 -128.834 -219.999 -222.501
s-80 -196.167 -80 -307.5s26.667 -213.833 80 -307.5s126.666 -167.834 219.999 -222.501s195.666 -82 306.999 -82zM900 -53c-105.333 0 -205.666 20.333 -300.999 61s-177.666 95.5 -246.999 164.5s-124.333 151.333 -165 247s-61 196.167 -61 301.5
s20.333 205.833 61 301.5s95.667 177.834 165 246.501s151.666 123.334 246.999 164.001s195.666 61 300.999 61s205.666 -20.333 300.999 -61s177.666 -95.334 246.999 -164.001s124.333 -150.834 165 -246.501s61 -196.167 61 -301.5s-20.333 -205.833 -61 -301.5
s-95.667 -178 -165 -247s-151.666 -123.833 -246.999 -164.5s-195.666 -61 -300.999 -61z" />
    <glyph glyph-name="uni2717.whitecircle" unicode="&#x2717;&#x20dd;" 
d="M904 832l238 234l105 -107l-237 -235l237 -236l-105 -109l-238 235l-239 -235l-106 108l238 237l-238 236l106 108zM900 108c111.333 0 213.666 27.333 306.999 82s166.666 128.834 219.999 222.501s80 196.167 80 307.5s-26.667 213.833 -80 307.5
s-126.666 167.834 -219.999 222.501s-195.666 82 -306.999 82s-213.666 -27.333 -306.999 -82s-166.666 -128.834 -219.999 -222.501s-80 -196.167 -80 -307.5s26.667 -213.833 80 -307.5s126.666 -167.834 219.999 -222.501s195.666 -82 306.999 -82zM900 -53
c-105.333 0 -205.666 20.333 -300.999 61s-177.666 95.5 -246.999 164.5s-124.333 151.333 -165 247s-61 196.167 -61 301.5s20.333 205.833 61 301.5s95.667 177.834 165 246.501s151.666 123.334 246.999 164.001s195.666 61 300.999 61s205.666 -20.333 300.999 -61
s177.666 -95.334 246.999 -164.001s124.333 -150.834 165 -246.501s61 -196.167 61 -301.5s-20.333 -205.833 -61 -301.5s-95.667 -178 -165 -247s-151.666 -123.833 -246.999 -164.5s-195.666 -61 -300.999 -61z" />
    <glyph glyph-name="uni2713.whitecircle" unicode="&#x2713;&#x20dd;" 
d="M1326 922l-544 -536l-303 300l112 112l192 -191l434 430zM900 108c111.333 0 213.666 27.333 306.999 82s166.666 128.834 219.999 222.501s80 196.167 80 307.5s-26.667 213.833 -80 307.5s-126.666 167.834 -219.999 222.501s-195.666 82 -306.999 82
s-213.666 -27.333 -306.999 -82s-166.666 -128.834 -219.999 -222.501s-80 -196.167 -80 -307.5s26.667 -213.833 80 -307.5s126.666 -167.834 219.999 -222.501s195.666 -82 306.999 -82zM900 -53c-105.333 0 -205.666 20.333 -300.999 61s-177.666 95.5 -246.999 164.5
s-124.333 151.333 -165 247s-61 196.167 -61 301.5s20.333 205.833 61 301.5s95.667 177.834 165 246.501s151.666 123.334 246.999 164.001s195.666 61 300.999 61s205.666 -20.333 300.999 -61s177.666 -95.334 246.999 -164.001s124.333 -150.834 165 -246.501
s61 -196.167 61 -301.5s-20.333 -205.833 -61 -301.5s-95.667 -178 -165 -247s-151.666 -123.833 -246.999 -164.5s-195.666 -61 -300.999 -61z" />
    <glyph glyph-name="zero.whitesquare" unicode="&#x30;&#x20de;" 
d="M900 514c36.667 0 65.5 18.167 86.5 54.5s31.5 90.166 31.5 161.499c0 70.667 -10.5 124.334 -31.5 161.001s-49.833 55 -86.5 55s-65.5 -18.333 -86.5 -55s-31.5 -90.334 -31.5 -161.001c0 -71.333 10.5 -125.166 31.5 -161.499s49.833 -54.5 86.5 -54.5zM899 372
c-85.333 0 -153.666 31.833 -204.999 95.5s-77 151.167 -77 262.5s25.667 198.666 77 261.999s119.666 95 204.999 95s154 -31.667 206 -95s78 -150.666 78 -261.999s-26.167 -198.833 -78.5 -262.5s-120.833 -95.5 -205.5 -95.5zM414 1469h972c72 0 133.333 -25 184 -75
s76 -110.333 76 -181v-982c0 -70.667 -25.333 -131 -76 -181s-112 -75 -184 -75h-972c-71.333 0 -132.5 25 -183.5 75s-76.5 110.333 -76.5 181v982c0 70.667 25.5 131 76.5 181s112.167 75 183.5 75zM1484 1187c0 36 -13.333 66.833 -40 92.5s-58.667 38.5 -96 38.5h-896
c-37.333 0 -69.333 -12.833 -96 -38.5s-40 -56.5 -40 -92.5v-930c0 -35.333 13.5 -66 40.5 -92s58.833 -39 95.5 -39h896c36.667 0 68.5 13 95.5 39s40.5 56.667 40.5 92v930z" />
    <glyph glyph-name="one.whitesquare" unicode="&#x31;&#x20de;" 
d="M1029 384h-175v532h-9l-160 -108v155l169 114h175v-693zM414 1469h972c72 0 133.333 -25 184 -75s76 -110.333 76 -181v-982c0 -70.667 -25.333 -131 -76 -181s-112 -75 -184 -75h-972c-71.333 0 -132.5 25 -183.5 75s-76.5 110.333 -76.5 181v982
c0 70.667 25.5 131 76.5 181s112.167 75 183.5 75zM1484 1187c0 36 -13.333 66.833 -40 92.5s-58.667 38.5 -96 38.5h-896c-37.333 0 -69.333 -12.833 -96 -38.5s-40 -56.5 -40 -92.5v-930c0 -35.333 13.5 -66 40.5 -92s58.833 -39 95.5 -39h896c36.667 0 68.5 13 95.5 39
s40.5 56.667 40.5 92v930z" />
    <glyph glyph-name="two.whitesquare" unicode="&#x32;&#x20de;" 
d="M803 857l-163.002 0.00292969v4c0 64.667 23 118.667 69 162s110 65 192 65c76 0 137.667 -18.833 185 -56.5s71 -85.834 71 -144.501c0 -38.667 -10.5 -73.834 -31.5 -105.501s-53.833 -68.5 -98.5 -110.5l-140 -140v-7h281v-140h-519v109l257 251
c26.667 26 46.334 48.333 59.001 67s19 39 19 61c0 23.333 -8.16699 42.166 -24.5 56.499s-37.5 21.5 -63.5 21.5c-29.333 0 -52.166 -8.33301 -68.499 -25s-24.5 -38 -24.5 -64v-4zM413.998 1469h972c72 0 133.333 -25 184 -75s76 -110.333 76 -181v-982
c0 -70.667 -25.333 -131 -76 -181s-112 -75 -184 -75h-972c-71.333 0 -132.5 25 -183.5 75s-76.5 110.333 -76.5 181v982c0 70.667 25.5 131 76.5 181s112.167 75 183.5 75zM1484 1187c0 36 -13.333 66.833 -40 92.5s-58.667 38.5 -96 38.5h-896
c-37.333 0 -69.333 -12.833 -96 -38.5s-40 -56.5 -40 -92.5v-930c0 -35.333 13.5 -66 40.5 -92s58.833 -39 95.5 -39h896c36.667 0 68.5 13 95.5 39s40.5 56.667 40.5 92v930z" />
    <glyph glyph-name="three.whitesquare" unicode="&#x33;&#x20de;" 
d="M823 672l-0.000976562 131.003h72c28.667 0 52 7.66699 70 23s27 34.666 27 57.999c-0.666992 22.667 -9.83398 41 -27.501 55s-40.834 21 -69.501 21s-52.167 -7.83301 -70.5 -23.5s-28.166 -34.5 -29.499 -56.5h-162c2.66699 63.333 27 113.833 73 151.5
s110.333 56.5 193 56.5c78 0 140.667 -16.833 188 -50.5s71.666 -77.834 72.999 -132.501c0.666992 -40 -13 -74.167 -41 -102.5s-58.667 -45.166 -92 -50.499v-8c40 -4 75.333 -20.5 106 -49.5s46.334 -67.5 47.001 -115.5
c0.666992 -62.667 -25.666 -112.834 -78.999 -150.501s-121.666 -56.5 -204.999 -56.5c-82.667 0 -148.5 19.667 -197.5 59s-74.167 89.666 -75.5 150.999h160c1.33301 -23.333 12.333 -42.166 33 -56.499s47 -21.833 79 -22.5c34 0 61.5 8 82.5 24s31.5 36.333 31.5 61
c-0.666992 25.333 -11 45.666 -31 60.999s-46.667 23 -80 23h-75zM413.999 1469h972c72 0 133.333 -25 184 -75s76 -110.333 76 -181v-982c0 -70.667 -25.333 -131 -76 -181s-112 -75 -184 -75h-972c-71.333 0 -132.5 25 -183.5 75s-76.5 110.333 -76.5 181v982
c0 70.667 25.5 131 76.5 181s112.167 75 183.5 75zM1484 1187c0 36 -13.333 66.833 -40 92.5s-58.667 38.5 -96 38.5h-896c-37.333 0 -69.333 -12.833 -96 -38.5s-40 -56.5 -40 -92.5v-930c0 -35.333 13.5 -66 40.5 -92s58.833 -39 95.5 -39h896c36.667 0 68.5 13 95.5 39
s40.5 56.667 40.5 92v930z" />
    <glyph glyph-name="four.whitesquare" unicode="&#x34;&#x20de;" 
d="M856 1077l241 -0.000976562v-439h94v-134h-94v-120h-151v120h-348v136c38.667 72.667 124.667 218.334 258 437.001zM751 637.999l194.999 0.000976562v313h-11c-85.333 -136.667 -146.666 -240.334 -183.999 -311.001v-2zM413.999 1469h972c72 0 133.333 -25 184 -75
s76 -110.333 76 -181v-982c0 -70.667 -25.333 -131 -76 -181s-112 -75 -184 -75h-972c-71.333 0 -132.5 25 -183.5 75s-76.5 110.333 -76.5 181v982c0 70.667 25.5 131 76.5 181s112.167 75 183.5 75zM1484 1187c0 36 -13.333 66.833 -40 92.5s-58.667 38.5 -96 38.5h-896
c-37.333 0 -69.333 -12.833 -96 -38.5s-40 -56.5 -40 -92.5v-930c0 -35.333 13.5 -66 40.5 -92s58.833 -39 95.5 -39h896c36.667 0 68.5 13 95.5 39s40.5 56.667 40.5 92v930z" />
    <glyph glyph-name="five.whitesquare" unicode="&#x35;&#x20de;" 
d="M639 581l160.999 -0.00195312c4.66699 -23.333 17.334 -41.166 38.001 -53.499s44.667 -18.5 72 -18.5c30.667 0 57 10.333 79 31s33 47.667 33 81c0 30.667 -11 55.834 -33 75.501s-48.667 29.5 -80 29.5c-24.667 0 -45.834 -5.5 -63.501 -16.5
s-30.5 -23.833 -38.5 -38.5h-154l29 409h464v-130h-330l-14 -165h8c10 16.667 28.333 31.5 55 44.5s58 19.5 94 19.5c66.667 0 121.834 -20.167 165.501 -60.5s65.5 -94.833 65.5 -163.5c0 -75.333 -25.833 -135.833 -77.5 -181.5s-120.167 -68.5 -205.5 -68.5
c-78 0 -141.667 19.333 -191 58s-75 88 -77 148zM413.999 1469h972c72 0 133.333 -25 184 -75s76 -110.333 76 -181v-982c0 -70.667 -25.333 -131 -76 -181s-112 -75 -184 -75h-972c-71.333 0 -132.5 25 -183.5 75s-76.5 110.333 -76.5 181v982c0 70.667 25.5 131 76.5 181
s112.167 75 183.5 75zM1484 1187c0 36 -13.333 66.833 -40 92.5s-58.667 38.5 -96 38.5h-896c-37.333 0 -69.333 -12.833 -96 -38.5s-40 -56.5 -40 -92.5v-930c0 -35.333 13.5 -66 40.5 -92s58.833 -39 95.5 -39h896c36.667 0 68.5 13 95.5 39s40.5 56.667 40.5 92v930z" />
    <glyph glyph-name="six.whitesquare" unicode="&#x36;&#x20de;" 
d="M1178 626c0 -76 -25.333 -137.333 -76 -184s-117.334 -70 -200.001 -70c-83.333 0 -151.166 23.833 -203.499 71.5s-78.5 109.834 -78.5 186.501c0 84.667 31.667 171.667 95 261c23.333 37.333 70 99.333 140 186h202c-18 -20.667 -50.5 -60.334 -97.5 -119.001
s-76.167 -96.334 -87.5 -113.001l-25 -39l9 -1c30 24.667 67.667 37 113 37c60 0 109.833 -20.667 149.5 -62s59.5 -92.666 59.5 -153.999zM791 617c0 -30.667 10.333 -56.167 31 -76.5s47 -30.5 79 -30.5s58.333 10.167 79 30.5s31 45.833 31 76.5s-10.333 56.167 -31 76.5
s-47 30.5 -79 30.5s-58.333 -10.167 -79 -30.5s-31 -45.833 -31 -76.5zM414 1469h972c72 0 133.333 -25 184 -75s76 -110.333 76 -181v-982c0 -70.667 -25.333 -131 -76 -181s-112 -75 -184 -75h-972c-71.333 0 -132.5 25 -183.5 75s-76.5 110.333 -76.5 181v982
c0 70.667 25.5 131 76.5 181s112.167 75 183.5 75zM1484 1187c0 36 -13.333 66.833 -40 92.5s-58.667 38.5 -96 38.5h-896c-37.333 0 -69.333 -12.833 -96 -38.5s-40 -56.5 -40 -92.5v-930c0 -35.333 13.5 -66 40.5 -92s58.833 -39 95.5 -39h896c36.667 0 68.5 13 95.5 39
s40.5 56.667 40.5 92v930z" />
    <glyph glyph-name="seven.whitesquare" unicode="&#x37;&#x20de;" 
d="M644 1077h523v-142l-281 -551h-186l290 546v7h-346v140zM414 1469h972c72 0 133.333 -25 184 -75s76 -110.333 76 -181v-982c0 -70.667 -25.333 -131 -76 -181s-112 -75 -184 -75h-972c-71.333 0 -132.5 25 -183.5 75s-76.5 110.333 -76.5 181v982
c0 70.667 25.5 131 76.5 181s112.167 75 183.5 75zM1484 1187c0 36 -13.333 66.833 -40 92.5s-58.667 38.5 -96 38.5h-896c-37.333 0 -69.333 -12.833 -96 -38.5s-40 -56.5 -40 -92.5v-930c0 -35.333 13.5 -66 40.5 -92s58.833 -39 95.5 -39h896c36.667 0 68.5 13 95.5 39
s40.5 56.667 40.5 92v930z" />
    <glyph glyph-name="eight.whitesquare" unicode="&#x38;&#x20de;" 
d="M900 492c34 0 62.001 9.16797 84.001 27.501s33 41.833 33 70.5c0 29.333 -10.833 53.166 -32.5 71.499s-49.834 27.5 -84.501 27.5c-34 0 -62.167 -9.5 -84.5 -28.5s-33.5 -42.5 -33.5 -70.5c0 -28.667 11 -52.167 33 -70.5s50.333 -27.5 85 -27.5zM900.001 799.001
c28.667 0 52 8 70 24s27 36.333 27 61s-9.16699 44.834 -27.5 60.501s-41.5 23.5 -69.5 23.5s-51.167 -7.83301 -69.5 -23.5s-27.5 -35.834 -27.5 -60.501s9 -45 27 -61s41.333 -24 70 -24zM899.001 372.001c-89.333 0 -160.5 18.499 -213.5 55.499
s-79.5 86.833 -79.5 149.5c0 43.333 14 80.5 42 111.5s65.333 50.167 112 57.5v7c-83.333 24.667 -125 75 -125 151c0 55.333 24.333 99.833 73 133.5s112.667 50.5 192 50.5s143.333 -16.833 192 -50.5s73 -78.167 73 -133.5c0 -36.667 -10.833 -68.167 -32.5 -94.5
s-52.5 -45.166 -92.5 -56.499v-7c46.667 -7.33301 84 -26.333 112 -57s42 -67.667 42 -111c0 -62.667 -26.833 -112.667 -80.5 -150s-125.167 -56 -214.5 -56zM414.001 1469h972c72 0 133.333 -25 184 -75s76 -110.333 76 -181v-982c0 -70.667 -25.333 -131 -76 -181
s-112 -75 -184 -75h-972c-71.333 0 -132.5 25 -183.5 75s-76.5 110.333 -76.5 181v982c0 70.667 25.5 131 76.5 181s112.167 75 183.5 75zM1484 1187c0 36 -13.333 66.833 -40 92.5s-58.667 38.5 -96 38.5h-896c-37.333 0 -69.333 -12.833 -96 -38.5s-40 -56.5 -40 -92.5
v-930c0 -35.333 13.5 -66 40.5 -92s58.833 -39 95.5 -39h896c36.667 0 68.5 13 95.5 39s40.5 56.667 40.5 92v930z" />
    <glyph glyph-name="nine.whitesquare" unicode="&#x39;&#x20de;" 
d="M620 835c0 75.333 25.501 136.501 76.501 183.501s117.833 70.5 200.5 70.5c83.333 0 151.166 -24 203.499 -72s78.5 -110.333 78.5 -187c0 -84.667 -32.667 -172.667 -98 -264c-7.33301 -12 -28.833 -41.5 -64.5 -88.5s-60.167 -78.167 -73.5 -93.5h-202
c16 17.333 47.333 55.166 94 113.499s76.334 96.5 89.001 114.5c6.66699 8.66699 16 23 28 43l-9 1c-30 -24.667 -67.667 -37 -113 -37c-60.667 0 -110.834 20.5 -150.501 61.5s-59.5 92.5 -59.5 154.5zM1008 844.001c0 30.667 -10.5 56 -31.5 76s-47.167 30 -78.5 30
c-32 0 -58.333 -10 -79 -30s-31 -45.333 -31 -76s10.333 -56.167 31 -76.5s47 -30.5 79 -30.5c31.333 0 57.5 10.167 78.5 30.5s31.5 45.833 31.5 76.5zM414.001 1469h972c72 0 133.333 -25 184 -75s76 -110.333 76 -181v-982c0 -70.667 -25.333 -131 -76 -181
s-112 -75 -184 -75h-972c-71.333 0 -132.5 25 -183.5 75s-76.5 110.333 -76.5 181v982c0 70.667 25.5 131 76.5 181s112.167 75 183.5 75zM1484 1187c0 36 -13.333 66.833 -40 92.5s-58.667 38.5 -96 38.5h-896c-37.333 0 -69.333 -12.833 -96 -38.5s-40 -56.5 -40 -92.5
v-930c0 -35.333 13.5 -66 40.5 -92s58.833 -39 95.5 -39h896c36.667 0 68.5 13 95.5 39s40.5 56.667 40.5 92v930z" />
    <glyph glyph-name="plus.uc.whitesquare" unicode="&#x2b;&#x20de;" 
d="M975 656v-212h-150v212h-208v146h208v207h150v-207h208v-146h-208zM414 1469h972c72 0 133.333 -25 184 -75s76 -110.333 76 -181v-982c0 -70.667 -25.333 -131 -76 -181s-112 -75 -184 -75h-972c-71.333 0 -132.5 25 -183.5 75s-76.5 110.333 -76.5 181v982
c0 70.667 25.5 131 76.5 181s112.167 75 183.5 75zM1484 1187c0 36 -13.333 66.833 -40 92.5s-58.667 38.5 -96 38.5h-896c-37.333 0 -69.333 -12.833 -96 -38.5s-40 -56.5 -40 -92.5v-930c0 -35.333 13.5 -66 40.5 -92s58.833 -39 95.5 -39h896c36.667 0 68.5 13 95.5 39
s40.5 56.667 40.5 92v930z" />
    <glyph glyph-name="minus.uc.whitesquare" unicode="&#x2212;&#x20de;" 
d="M1161 651h-522v151h522v-151zM414 1469h972c72 0 133.333 -25 184 -75s76 -110.333 76 -181v-982c0 -70.667 -25.333 -131 -76 -181s-112 -75 -184 -75h-972c-71.333 0 -132.5 25 -183.5 75s-76.5 110.333 -76.5 181v982c0 70.667 25.5 131 76.5 181s112.167 75 183.5 75
zM1484 1187c0 36 -13.333 66.833 -40 92.5s-58.667 38.5 -96 38.5h-896c-37.333 0 -69.333 -12.833 -96 -38.5s-40 -56.5 -40 -92.5v-930c0 -35.333 13.5 -66 40.5 -92s58.833 -39 95.5 -39h896c36.667 0 68.5 13 95.5 39s40.5 56.667 40.5 92v930z" />
    <glyph glyph-name="multiply.uc.whitesquare" unicode="&#xd7;&#x20de;" 
d="M900 833l160 156l106 -106l-160 -156l160 -156l-106 -106l-160 156l-161 -156l-106 106l161 156l-161 156l106 106zM414 1469h972c72 0 133.333 -25 184 -75s76 -110.333 76 -181v-982c0 -70.667 -25.333 -131 -76 -181s-112 -75 -184 -75h-972
c-71.333 0 -132.5 25 -183.5 75s-76.5 110.333 -76.5 181v982c0 70.667 25.5 131 76.5 181s112.167 75 183.5 75zM1484 1187c0 36 -13.333 66.833 -40 92.5s-58.667 38.5 -96 38.5h-896c-37.333 0 -69.333 -12.833 -96 -38.5s-40 -56.5 -40 -92.5v-930
c0 -35.333 13.5 -66 40.5 -92s58.833 -39 95.5 -39h896c36.667 0 68.5 13 95.5 39s40.5 56.667 40.5 92v930z" />
    <glyph glyph-name="divide.uc.whitesquare" unicode="&#xf7;&#x20de;" 
d="M1161 666h-522v121h522v-121zM809 944c0 24.667 8.49902 44.834 25.499 60.501s38.5 23.5 64.5 23.5c26.667 0 48.834 -7.83301 66.501 -23.5s26.5 -35.834 26.5 -60.501c0 -24 -8.83301 -43.833 -26.5 -59.5s-39.834 -23.5 -66.501 -23.5
c-25.333 0 -46.666 7.83301 -63.999 23.5s-26 35.5 -26 59.5zM808.999 511c0 24.667 8.66699 45 26 61s39 24 65 24s47.833 -8 65.5 -24s26.5 -36.333 26.5 -61c0 -23.333 -8.83301 -42.833 -26.5 -58.5s-39.5 -23.5 -65.5 -23.5s-47.667 7.83301 -65 23.5
s-26 35.167 -26 58.5zM413.999 1469h972c72 0 133.333 -25 184 -75s76 -110.333 76 -181v-982c0 -70.667 -25.333 -131 -76 -181s-112 -75 -184 -75h-972c-71.333 0 -132.5 25 -183.5 75s-76.5 110.333 -76.5 181v982c0 70.667 25.5 131 76.5 181s112.167 75 183.5 75z
M1484 1187c0 36 -13.333 66.833 -40 92.5s-58.667 38.5 -96 38.5h-896c-37.333 0 -69.333 -12.833 -96 -38.5s-40 -56.5 -40 -92.5v-930c0 -35.333 13.5 -66 40.5 -92s58.833 -39 95.5 -39h896c36.667 0 68.5 13 95.5 39s40.5 56.667 40.5 92v930z" />
    <glyph glyph-name="equal.uc.whitesquare" unicode="&#x3d;&#x20de;" 
d="M1161 533h-522v134h522v-134zM1161 785h-522v133h522v-133zM414 1469h972c72 0 133.333 -25 184 -75s76 -110.333 76 -181v-982c0 -70.667 -25.333 -131 -76 -181s-112 -75 -184 -75h-972c-71.333 0 -132.5 25 -183.5 75s-76.5 110.333 -76.5 181v982
c0 70.667 25.5 131 76.5 181s112.167 75 183.5 75zM1484 1187c0 36 -13.333 66.833 -40 92.5s-58.667 38.5 -96 38.5h-896c-37.333 0 -69.333 -12.833 -96 -38.5s-40 -56.5 -40 -92.5v-930c0 -35.333 13.5 -66 40.5 -92s58.833 -39 95.5 -39h896c36.667 0 68.5 13 95.5 39
s40.5 56.667 40.5 92v930z" />
    <glyph glyph-name="greater.uc.whitesquare" unicode="&#x3e;&#x20de;" 
d="M1179 773v-102l-507 -250v165l304 136v7l-304 135v169zM414 1469h972c72 0 133.333 -25 184 -75s76 -110.333 76 -181v-982c0 -70.667 -25.333 -131 -76 -181s-112 -75 -184 -75h-972c-71.333 0 -132.5 25 -183.5 75s-76.5 110.333 -76.5 181v982
c0 70.667 25.5 131 76.5 181s112.167 75 183.5 75zM1484 1187c0 36 -13.333 66.833 -40 92.5s-58.667 38.5 -96 38.5h-896c-37.333 0 -69.333 -12.833 -96 -38.5s-40 -56.5 -40 -92.5v-930c0 -35.333 13.5 -66 40.5 -92s58.833 -39 95.5 -39h896c36.667 0 68.5 13 95.5 39
s40.5 56.667 40.5 92v930z" />
    <glyph glyph-name="less.uc.whitesquare" unicode="&#x3c;&#x20de;" 
d="M621 671v102l507 260v-169l-305 -135v-7l305 -136v-165zM414 1469h972c72 0 133.333 -25 184 -75s76 -110.333 76 -181v-982c0 -70.667 -25.333 -131 -76 -181s-112 -75 -184 -75h-972c-71.333 0 -132.5 25 -183.5 75s-76.5 110.333 -76.5 181v982
c0 70.667 25.5 131 76.5 181s112.167 75 183.5 75zM1484 1187c0 36 -13.333 66.833 -40 92.5s-58.667 38.5 -96 38.5h-896c-37.333 0 -69.333 -12.833 -96 -38.5s-40 -56.5 -40 -92.5v-930c0 -35.333 13.5 -66 40.5 -92s58.833 -39 95.5 -39h896c36.667 0 68.5 13 95.5 39
s40.5 56.667 40.5 92v930z" />
    <glyph glyph-name="numbersign.whitesquare" unicode="&#x23;&#x20de;" 
d="M1191 786h-104l-23 -110h102l-23 -118h-103l-37 -177h-124l37 177h-107l-36 -177h-124l37 177h-100l23 118h100l24 110h-98l22 118h99l35 170h123l-35 -170h107l35 170h123l-34 -170h104zM849 794l-29 -134h128l28 134h-127zM414 1469h972c72 0 133.333 -25 184 -75
s76 -110.333 76 -181v-982c0 -70.667 -25.333 -131 -76 -181s-112 -75 -184 -75h-972c-71.333 0 -132.5 25 -183.5 75s-76.5 110.333 -76.5 181v982c0 70.667 25.5 131 76.5 181s112.167 75 183.5 75zM1484 1187c0 36 -13.333 66.833 -40 92.5s-58.667 38.5 -96 38.5h-896
c-37.333 0 -69.333 -12.833 -96 -38.5s-40 -56.5 -40 -92.5v-930c0 -35.333 13.5 -66 40.5 -92s58.833 -39 95.5 -39h896c36.667 0 68.5 13 95.5 39s40.5 56.667 40.5 92v930z" />
    <glyph glyph-name="uni25BC.whitesquare" unicode="&#x25bc;&#x20de;" 
d="M1224 946l-323 -560l-323 560h646zM414 1469h972c72 0 133.333 -25 184 -75s76 -110.333 76 -181v-982c0 -70.667 -25.333 -131 -76 -181s-112 -75 -184 -75h-972c-71.333 0 -132.5 25 -183.5 75s-76.5 110.333 -76.5 181v982c0 70.667 25.5 131 76.5 181
s112.167 75 183.5 75zM1484 1187c0 36 -13.333 66.833 -40 92.5s-58.667 38.5 -96 38.5h-896c-37.333 0 -69.333 -12.833 -96 -38.5s-40 -56.5 -40 -92.5v-930c0 -35.333 13.5 -66 40.5 -92s58.833 -39 95.5 -39h896c36.667 0 68.5 13 95.5 39s40.5 56.667 40.5 92v930z" />
    <glyph glyph-name="uni25B2.whitesquare" unicode="&#x25b2;&#x20de;" 
d="M1223 507h-645l322 561zM414 1469h972c72 0 133.333 -25 184 -75s76 -110.333 76 -181v-982c0 -70.667 -25.333 -131 -76 -181s-112 -75 -184 -75h-972c-71.333 0 -132.5 25 -183.5 75s-76.5 110.333 -76.5 181v982c0 70.667 25.5 131 76.5 181s112.167 75 183.5 75z
M1484 1187c0 36 -13.333 66.833 -40 92.5s-58.667 38.5 -96 38.5h-896c-37.333 0 -69.333 -12.833 -96 -38.5s-40 -56.5 -40 -92.5v-930c0 -35.333 13.5 -66 40.5 -92s58.833 -39 95.5 -39h896c36.667 0 68.5 13 95.5 39s40.5 56.667 40.5 92v930z" />
    <glyph glyph-name="uni25C0.whitesquare" unicode="&#x25c0;&#x20de;" 
d="M1118 405l-559 323l559 323v-646zM414 1469h972c72 0 133.333 -25 184 -75s76 -110.333 76 -181v-982c0 -70.667 -25.333 -131 -76 -181s-112 -75 -184 -75h-972c-71.333 0 -132.5 25 -183.5 75s-76.5 110.333 -76.5 181v982c0 70.667 25.5 131 76.5 181
s112.167 75 183.5 75zM1484 1187c0 36 -13.333 66.833 -40 92.5s-58.667 38.5 -96 38.5h-896c-37.333 0 -69.333 -12.833 -96 -38.5s-40 -56.5 -40 -92.5v-930c0 -35.333 13.5 -66 40.5 -92s58.833 -39 95.5 -39h896c36.667 0 68.5 13 95.5 39s40.5 56.667 40.5 92v930z" />
    <glyph glyph-name="uni25B6.whitesquare" unicode="&#x25b6;&#x20de;" 
d="M682 405v646l559 -323zM414 1469h972c72 0 133.333 -25 184 -75s76 -110.333 76 -181v-982c0 -70.667 -25.333 -131 -76 -181s-112 -75 -184 -75h-972c-71.333 0 -132.5 25 -183.5 75s-76.5 110.333 -76.5 181v982c0 70.667 25.5 131 76.5 181s112.167 75 183.5 75z
M1484 1187c0 36 -13.333 66.833 -40 92.5s-58.667 38.5 -96 38.5h-896c-37.333 0 -69.333 -12.833 -96 -38.5s-40 -56.5 -40 -92.5v-930c0 -35.333 13.5 -66 40.5 -92s58.833 -39 95.5 -39h896c36.667 0 68.5 13 95.5 39s40.5 56.667 40.5 92v930z" />
    <glyph glyph-name="question.whitesquare" unicode="&#x3f;&#x20de;" 
d="M785 459c0 26.667 9.5 47.667 28.5 63s44.167 23 75.5 23c32.667 0 58.5 -7.83301 77.5 -23.5s28.5 -36.5 28.5 -62.5s-9.5 -46.667 -28.5 -62s-44.833 -23 -77.5 -23c-31.333 0 -56.5 7.83301 -75.5 23.5s-28.5 36.167 -28.5 61.5zM657 876
c-0.666992 71.333 22.667 124.499 70 159.499s108.333 52.5 183 52.5c70 0 127.667 -17 173 -51s68 -81.333 68 -142c0 -37.333 -8.83301 -68.333 -26.5 -93s-43.167 -48 -76.5 -70c-38 -26 -62.5 -45.167 -73.5 -57.5s-16.5 -29.5 -16.5 -51.5v-18h-150
c-0.666992 2.66699 -1 13.334 -1 32.001c-2.66699 60.667 27.333 112 90 154c30.667 20.667 52.167 37.5 64.5 50.5s18.5 28.5 18.5 46.5c0 22.667 -8 40.167 -24 52.5s-35.667 18.5 -59 18.5c-26 0 -46.667 -7.83301 -62 -23.5s-23.333 -35.5 -24 -59.5h-154zM414.001 1469
h972c72 0 133.333 -25 184 -75s76 -110.333 76 -181v-982c0 -70.667 -25.333 -131 -76 -181s-112 -75 -184 -75h-972c-71.333 0 -132.5 25 -183.5 75s-76.5 110.333 -76.5 181v982c0 70.667 25.5 131 76.5 181s112.167 75 183.5 75zM1484 1187c0 36 -13.333 66.833 -40 92.5
s-58.667 38.5 -96 38.5h-896c-37.333 0 -69.333 -12.833 -96 -38.5s-40 -56.5 -40 -92.5v-930c0 -35.333 13.5 -66 40.5 -92s58.833 -39 95.5 -39h896c36.667 0 68.5 13 95.5 39s40.5 56.667 40.5 92v930z" />
    <glyph glyph-name="exclam.whitesquare" unicode="&#x21;&#x20de;" 
d="M797 459c0 26.667 9.5 47.667 28.5 63s44.833 23 77.5 23c32 0 57.333 -7.83301 76 -23.5s28 -36.5 28 -62.5c0 -25.333 -9.33301 -45.833 -28 -61.5s-44 -23.5 -76 -23.5s-57.667 7.83301 -77 23.5s-29 36.167 -29 61.5zM809 1077h187l-20 -456h-147zM414 1469h972
c72 0 133.333 -25 184 -75s76 -110.333 76 -181v-982c0 -70.667 -25.333 -131 -76 -181s-112 -75 -184 -75h-972c-71.333 0 -132.5 25 -183.5 75s-76.5 110.333 -76.5 181v982c0 70.667 25.5 131 76.5 181s112.167 75 183.5 75zM1484 1187c0 36 -13.333 66.833 -40 92.5
s-58.667 38.5 -96 38.5h-896c-37.333 0 -69.333 -12.833 -96 -38.5s-40 -56.5 -40 -92.5v-930c0 -35.333 13.5 -66 40.5 -92s58.833 -39 95.5 -39h896c36.667 0 68.5 13 95.5 39s40.5 56.667 40.5 92v930z" />
    <glyph glyph-name="uni2717.whitesquare" unicode="&#x2717;&#x20de;" 
d="M904 832l238 234l105 -107l-237 -235l237 -236l-105 -109l-238 235l-239 -235l-106 108l238 237l-238 236l106 108zM414 1469h972c72 0 133.333 -25 184 -75s76 -110.333 76 -181v-982c0 -70.667 -25.333 -131 -76 -181s-112 -75 -184 -75h-972
c-71.333 0 -132.5 25 -183.5 75s-76.5 110.333 -76.5 181v982c0 70.667 25.5 131 76.5 181s112.167 75 183.5 75zM1484 1187c0 36 -13.333 66.833 -40 92.5s-58.667 38.5 -96 38.5h-896c-37.333 0 -69.333 -12.833 -96 -38.5s-40 -56.5 -40 -92.5v-930
c0 -35.333 13.5 -66 40.5 -92s58.833 -39 95.5 -39h896c36.667 0 68.5 13 95.5 39s40.5 56.667 40.5 92v930z" />
    <glyph glyph-name="uni2713.whitesquare" unicode="&#x2713;&#x20de;" 
d="M1326 922l-544 -536l-303 300l112 112l192 -191l434 430zM414 1469h972c72 0 133.333 -25 184 -75s76 -110.333 76 -181v-982c0 -70.667 -25.333 -131 -76 -181s-112 -75 -184 -75h-972c-71.333 0 -132.5 25 -183.5 75s-76.5 110.333 -76.5 181v982
c0 70.667 25.5 131 76.5 181s112.167 75 183.5 75zM1484 1187c0 36 -13.333 66.833 -40 92.5s-58.667 38.5 -96 38.5h-896c-37.333 0 -69.333 -12.833 -96 -38.5s-40 -56.5 -40 -92.5v-930c0 -35.333 13.5 -66 40.5 -92s58.833 -39 95.5 -39h896c36.667 0 68.5 13 95.5 39
s40.5 56.667 40.5 92v930z" />
    <glyph glyph-name="plus.uc.blackcircle" unicode="&#x2b;&#x20dd;&#x25cf;" 
d="M985 647h225v164h-225v225h-170v-225h-225v-164h225v-230h170v230zM900 -52c-139.333 0 -268.333 34.667 -387 104s-212.667 163.333 -282 282s-104 247.667 -104 387s34.667 268.5 104 387.5s163.333 213.167 282 282.5s247.667 104 387 104s268.333 -34.667 387 -104
s212.667 -163.5 282 -282.5s104 -248.167 104 -387.5s-34.667 -268.333 -104 -387s-163.333 -212.667 -282 -282s-247.667 -104 -387 -104z" />
    <glyph glyph-name="minus.uc.blackcircle" unicode="&#x2212;&#x20dd;&#x25cf;" 
d="M1187 641v170h-574v-170h574zM900 -52c-139.333 0 -268.333 34.667 -387 104s-212.667 163.333 -282 282s-104 247.667 -104 387s34.667 268.5 104 387.5s163.333 213.167 282 282.5s247.667 104 387 104s268.333 -34.667 387 -104s212.667 -163.5 282 -282.5
s104 -248.167 104 -387.5s-34.667 -268.333 -104 -387s-163.333 -212.667 -282 -282s-247.667 -104 -387 -104z" />
    <glyph glyph-name="multiply.uc.blackcircle" unicode="&#xd7;&#x20dd;&#x25cf;" 
d="M900 846l-175 169l-119 -119l174 -170l-174 -168l119 -120l175 169l174 -169l119 120l-174 168l174 170l-119 119zM900 -52c-139.333 0 -268.333 34.667 -387 104s-212.667 163.333 -282 282s-104 247.667 -104 387s34.667 268.5 104 387.5s163.333 213.167 282 282.5
s247.667 104 387 104s268.333 -34.667 387 -104s212.667 -163.5 282 -282.5s104 -248.167 104 -387.5s-34.667 -268.333 -104 -387s-163.333 -212.667 -282 -282s-247.667 -104 -387 -104z" />
    <glyph glyph-name="divide.uc.blackcircle" unicode="&#xf7;&#x20dd;&#x25cf;" 
d="M798 961c0 -26.667 9.66699 -48.667 29 -66s43.333 -26 72 -26c29.333 0 54 8.83301 74 26.5s30 39.5 30 65.5c0 28 -9.83301 50.833 -29.5 68.5s-44.5 26.5 -74.5 26.5c-28.667 0 -52.667 -8.83301 -72 -26.5s-29 -40.5 -29 -68.5zM1187 657v138h-574v-138h574zM798 494
c0 -26.667 9.66699 -48.834 29 -66.501s43.666 -26.5 72.999 -26.5s53.833 8.83301 73.5 26.5s29.5 39.834 29.5 66.501c0 27.333 -9.83301 49.833 -29.5 67.5s-44.167 26.5 -73.5 26.5s-53.666 -8.83301 -72.999 -26.5s-29 -40.167 -29 -67.5zM900 -52
c-139.333 0 -268.333 34.667 -387 104s-212.667 163.333 -282 282s-104 247.667 -104 387s34.667 268.5 104 387.5s163.333 213.167 282 282.5s247.667 104 387 104s268.333 -34.667 387 -104s212.667 -163.5 282 -282.5s104 -248.167 104 -387.5
s-34.667 -268.333 -104 -387s-163.333 -212.667 -282 -282s-247.667 -104 -387 -104z" />
    <glyph glyph-name="equal.uc.blackcircle" unicode="&#x3d;&#x20dd;&#x25cf;" 
d="M1185 788v150h-570v-150h570zM1185 514v149h-570v-149h570zM900 -52c-139.333 0 -268.333 34.667 -387 104s-212.667 163.333 -282 282s-104 247.667 -104 387s34.667 268.5 104 387.5s163.333 213.167 282 282.5s247.667 104 387 104s268.333 -34.667 387 -104
s212.667 -163.5 282 -282.5s104 -248.167 104 -387.5s-34.667 -268.333 -104 -387s-163.333 -212.667 -282 -282s-247.667 -104 -387 -104z" />
    <glyph glyph-name="greater.uc.blackcircle" unicode="&#x3e;&#x20dd;&#x25cf;" 
d="M1200 778l-557 286v-184l330 -155l1 -2l-331 -154v-179l557 275v113zM900 -52c-139.333 0 -268.333 34.667 -387 104s-212.667 163.333 -282 282s-104 247.667 -104 387s34.667 268.5 104 387.5s163.333 213.167 282 282.5s247.667 104 387 104s268.333 -34.667 387 -104
s212.667 -163.5 282 -282.5s104 -248.167 104 -387.5s-34.667 -268.333 -104 -387s-163.333 -212.667 -282 -282s-247.667 -104 -387 -104z" />
    <glyph glyph-name="less.uc.blackcircle" unicode="&#x3c;&#x20dd;&#x25cf;" 
d="M595 665l555 -275v179l-328 154v2l328 155v184l-555 -286v-113zM900 -52c-139.333 0 -268.333 34.667 -387 104s-212.667 163.333 -282 282s-104 247.667 -104 387s34.667 268.5 104 387.5s163.333 213.167 282 282.5s247.667 104 387 104s268.333 -34.667 387 -104
s212.667 -163.5 282 -282.5s104 -248.167 104 -387.5s-34.667 -268.333 -104 -387s-163.333 -212.667 -282 -282s-247.667 -104 -387 -104z" />
    <glyph glyph-name="numbersign.blackcircle" unicode="&#x23;&#x20dd;&#x25cf;" 
d="M843 802h139l-31 -149h-139zM1218 788l26 135h-113l38 183h-144l-36 -183h-107l38 183h-143l-37 -183h-108l-26 -135h107l-24 -111h-109l-26 -136h107l-39 -192h142l41 192h106l-40 -192h143l39 192h112l27 136h-110c0.666992 2.66699 4.5 21.167 11.5 55.5
s10.5 52.833 10.5 55.5h114zM900 -52c-139.333 0 -268.333 34.667 -387 104s-212.667 163.333 -282 282s-104 247.667 -104 387s34.667 268.5 104 387.5s163.333 213.167 282 282.5s247.667 104 387 104s268.333 -34.667 387 -104s212.667 -163.5 282 -282.5
s104 -248.167 104 -387.5s-34.667 -268.333 -104 -387s-163.333 -212.667 -282 -282s-247.667 -104 -387 -104z" />
    <glyph glyph-name="uni25BC.blackcircle" unicode="&#x25bc;&#x20dd;&#x25cf;" 
d="M1248 981h-695l347 -602zM900 -52c-139.333 0 -268.333 34.667 -387 104s-212.667 163.333 -282 282s-104 247.667 -104 387s34.667 268.5 104 387.5s163.333 213.167 282 282.5s247.667 104 387 104s268.333 -34.667 387 -104s212.667 -163.5 282 -282.5
s104 -248.167 104 -387.5s-34.667 -268.333 -104 -387s-163.333 -212.667 -282 -282s-247.667 -104 -387 -104z" />
    <glyph glyph-name="uni25B2.blackcircle" unicode="&#x25b2;&#x20dd;&#x25cf;" 
d="M1248 490l-348 602l-347 -602h695zM900 -52c-139.333 0 -268.333 34.667 -387 104s-212.667 163.333 -282 282s-104 247.667 -104 387s34.667 268.5 104 387.5s163.333 213.167 282 282.5s247.667 104 387 104s268.333 -34.667 387 -104s212.667 -163.5 282 -282.5
s104 -248.167 104 -387.5s-34.667 -268.333 -104 -387s-163.333 -212.667 -282 -282s-247.667 -104 -387 -104z" />
    <glyph glyph-name="uni25C0.blackcircle" unicode="&#x25c0;&#x20dd;&#x25cf;" 
d="M1140 388v694l-603 -346zM900 -52c-139.333 0 -268.333 34.667 -387 104s-212.667 163.333 -282 282s-104 247.667 -104 387s34.667 268.5 104 387.5s163.333 213.167 282 282.5s247.667 104 387 104s268.333 -34.667 387 -104s212.667 -163.5 282 -282.5
s104 -248.167 104 -387.5s-34.667 -268.333 -104 -387s-163.333 -212.667 -282 -282s-247.667 -104 -387 -104z" />
    <glyph glyph-name="uni25B6.blackcircle" unicode="&#x25b6;&#x20dd;&#x25cf;" 
d="M660 388l603 348l-603 346v-694zM900 -52c-139.333 0 -268.333 34.667 -387 104s-212.667 163.333 -282 282s-104 247.667 -104 387s34.667 268.5 104 387.5s163.333 213.167 282 282.5s247.667 104 387 104s268.333 -34.667 387 -104s212.667 -163.5 282 -282.5
s104 -248.167 104 -387.5s-34.667 -268.333 -104 -387s-163.333 -212.667 -282 -282s-247.667 -104 -387 -104z" />
    <glyph glyph-name="question.blackcircle" unicode="&#x3f;&#x20dd;&#x25cf;" 
d="M767 429c0 -29.333 10.667 -52.833 32 -70.5s50 -26.5 86 -26.5s64.667 8.83301 86 26.5s32 41.167 32 70.5c0 30 -10.667 53.833 -32 71.5s-50 26.5 -86 26.5s-64.667 -8.66699 -86 -26s-32 -41.333 -32 -72zM793 591h169.997v22c0 24 5.33301 42.167 16 54.5
s34.667 30.833 72 55.5c42.667 29.333 73.334 56.5 92.001 81.5s28 59.833 28 104.5c0 66 -25.167 118 -75.5 156s-113.5 57 -189.5 57c-82 0 -148.833 -19.5 -200.5 -58.5s-77.5 -97.833 -77.5 -176.5v-3l178 2c0 27.333 7.83301 49.666 23.5 66.999s37.5 26 65.5 26
c24 0 44.333 -6.5 61 -19.5s25 -31.833 25 -56.5c0 -12.667 -3.33301 -24.5 -10 -35.5s-14.167 -19.833 -22.5 -26.5l-35.5 -27.5c-15.333 -11.667 -27.666 -21.5 -36.999 -29.5c-59.333 -45.333 -87.666 -96.666 -84.999 -153.999c0 -23.333 0.666992 -36.333 2 -39z
M900.997 -52c-139.333 0 -268.333 34.667 -387 104s-212.667 163.333 -282 282s-104 247.667 -104 387s34.667 268.5 104 387.5s163.333 213.167 282 282.5s247.667 104 387 104s268.333 -34.667 387 -104s212.667 -163.5 282 -282.5s104 -248.167 104 -387.5
s-34.667 -268.333 -104 -387s-163.333 -212.667 -282 -282s-247.667 -104 -387 -104z" />
    <glyph glyph-name="exclam.blackcircle" unicode="&#x21;&#x20dd;&#x25cf;" 
d="M795 1110l22 -502h168l22 502h-212zM784 430c0 -29.333 10.666 -52.833 31.999 -70.5s50 -26.5 86 -26.5s64.5 8.83301 85.5 26.5s31.5 41.167 31.5 70.5s-10.667 52.833 -32 70.5s-49.666 26.5 -84.999 26.5c-36 0 -64.667 -8.83301 -86 -26.5s-32 -41.167 -32 -70.5z
M899.999 -52c-139.333 0 -268.333 34.667 -387 104s-212.667 163.333 -282 282s-104 247.667 -104 387s34.667 268.5 104 387.5s163.333 213.167 282 282.5s247.667 104 387 104s268.333 -34.667 387 -104s212.667 -163.5 282 -282.5s104 -248.167 104 -387.5
s-34.667 -268.333 -104 -387s-163.333 -212.667 -282 -282s-247.667 -104 -387 -104z" />
    <glyph glyph-name="uni2717.blackcircle" unicode="&#x2717;&#x20dd;&#x25cf;" 
d="M902 841l-260 257l-115 -117l259 -258l-259 -256l116 -119l259 256l259 -255l115 119l-258 255l258 256l-115 118zM900 -52c-139.333 0 -268.333 34.667 -387 104s-212.667 163.333 -282 282s-104 247.667 -104 387s34.667 268.5 104 387.5s163.333 213.167 282 282.5
s247.667 104 387 104s268.333 -34.667 387 -104s212.667 -163.5 282 -282.5s104 -248.167 104 -387.5s-34.667 -268.333 -104 -387s-163.333 -212.667 -282 -282s-247.667 -104 -387 -104z" />
    <glyph glyph-name="uni2713.blackcircle" unicode="&#x2713;&#x20dd;&#x25cf;" 
d="M769 365l596 588l-122 126l-473 -470l-210 208l-122 -123zM900 -52c-139.333 0 -268.333 34.667 -387 104s-212.667 163.333 -282 282s-104 247.667 -104 387s34.667 268.5 104 387.5s163.333 213.167 282 282.5s247.667 104 387 104s268.333 -34.667 387 -104
s212.667 -163.5 282 -282.5s104 -248.167 104 -387.5s-34.667 -268.333 -104 -387s-163.333 -212.667 -282 -282s-247.667 -104 -387 -104z" />
    <glyph glyph-name="zero.blacksquare" unicode="&#x30;&#x20de;&#x25a0;" 
d="M897 490c-80 0 -120 79.999 -120 239.999s40 240 120 240c38.667 0 68.5 -20.167 89.5 -60.5s31.5 -100.166 31.5 -179.499c0 -160 -40.333 -240 -121 -240zM896 337.999c96 0 172.5 35 229.5 105s85.5 165.667 85.5 287s-28.5 217 -85.5 287s-133.5 105 -229.5 105
c-95.333 0 -171.166 -35 -227.499 -105s-84.5 -165.667 -84.5 -287c0 -122 28.167 -217.833 84.5 -287.5s132.166 -104.5 227.499 -104.5zM414 1469h972c72 0 133.333 -25 184 -75s76 -110.333 76 -181v-982c0 -70.667 -25.333 -131 -76 -181s-112 -75 -184 -75h-972
c-71.333 0 -132.5 25 -183.5 75s-76.5 110.333 -76.5 181v982c0 70.667 25.5 131 76.5 181s112.167 75 183.5 75z" />
    <glyph glyph-name="one.blacksquare" unicode="&#x31;&#x20de;&#x25a0;" 
d="M1043 352v757h-195l-186 -125v-179l180 121h4v-574h197zM414 1469h972c72 0 133.333 -25 184 -75s76 -110.333 76 -181v-982c0 -70.667 -25.333 -131 -76 -181s-112 -75 -184 -75h-972c-71.333 0 -132.5 25 -183.5 75s-76.5 110.333 -76.5 181v982
c0 70.667 25.5 131 76.5 181s112.167 75 183.5 75z" />
    <glyph glyph-name="two.blacksquare" unicode="&#x32;&#x20de;&#x25a0;" 
d="M791 862l0.000976562 7.00098c0 30 8.83301 54.5 26.5 73.5s42.167 28.5 73.5 28.5c28 0 51 -7.83301 69 -23.5s27 -35.834 27 -60.501s-7.33301 -47.834 -22 -69.501s-38.334 -48.167 -71.001 -79.5l-273 -265v-122h569v159h-311v1l162 159
c45.333 44 79 83.167 101 117.5s33 72.5 33 114.5c0 62.667 -25.833 114.834 -77.5 156.501s-117.5 62.5 -197.5 62.5c-90.667 0 -161.667 -24 -213 -72s-77 -108 -77 -180v-7h181zM414.001 1469h972c72 0 133.333 -25 184 -75s76 -110.333 76 -181v-982
c0 -70.667 -25.333 -131 -76 -181s-112 -75 -184 -75h-972c-71.333 0 -132.5 25 -183.5 75s-76.5 110.333 -76.5 181v982c0 70.667 25.5 131 76.5 181s112.167 75 183.5 75z" />
    <glyph glyph-name="three.blacksquare" unicode="&#x33;&#x20de;&#x25a0;" 
d="M809 668l86.0029 0.00195312c35.333 0 63.666 -8.33301 84.999 -25s32.333 -38.334 33 -65.001c0 -27.333 -11 -49.5 -33 -66.5s-51 -25.5 -87 -25.5c-34.667 0.666992 -63 9 -85 25s-34.333 36.667 -37 62h-179c2 -68 30 -124.167 84 -168.5s126 -66.5 216 -66.5
c91.333 0 166.166 20.833 224.499 62.5s87.166 97.5 86.499 167.5c-0.666992 51.333 -17.667 93 -51 125s-71 50.333 -113 55v3c36 6 68.833 24.667 98.5 56s44.167 69 43.5 113c-1.33301 59.333 -28 107.833 -80 145.5s-120.667 56.5 -206 56.5
c-91.333 -0.666992 -162 -21.834 -212 -63.501s-76.667 -98.167 -80 -169.5h182c1.33301 25.333 11.333 46 30 62s44 24 76 24c30 0 54.5 -7.5 73.5 -22.5s28.5 -34.5 28.5 -58.5c0 -25.333 -9.5 -45.833 -28.5 -61.5s-43.833 -23.5 -74.5 -23.5h-81v-141zM414.003 1469h972
c72 0 133.333 -25 184 -75s76 -110.333 76 -181v-982c0 -70.667 -25.333 -131 -76 -181s-112 -75 -184 -75h-972c-71.333 0 -132.5 25 -183.5 75s-76.5 110.333 -76.5 181v982c0 70.667 25.5 131 76.5 181s112.167 75 183.5 75z" />
    <glyph glyph-name="four.blacksquare" unicode="&#x34;&#x20de;&#x25a0;" 
d="M846 1109c-130.667 -209.333 -224.333 -368.333 -281 -477v-151h376v-129h173v129h101v152h-101v476h-268zM740.001 634c17.333 32.667 35.833 65.667 55.5 99l74.5 123.5l65 106.5h6v-330h-201v1zM414.001 1469h972c72 0 133.333 -25 184 -75s76 -110.333 76 -181v-982
c0 -70.667 -25.333 -131 -76 -181s-112 -75 -184 -75h-972c-71.333 0 -132.5 25 -183.5 75s-76.5 110.333 -76.5 181v982c0 70.667 25.5 131 76.5 181s112.167 75 183.5 75z" />
    <glyph glyph-name="five.blacksquare" unicode="&#x35;&#x20de;&#x25a0;" 
d="M608 571c2 -67.333 29.999 -122.332 83.999 -164.999s124 -64 210 -64c94 0 169.167 24.833 225.5 74.5s84.5 116.5 84.5 200.5c0 75.333 -24 135 -72 179s-108.667 66 -182 66c-38 0 -71.333 -6.66699 -100 -20s-49 -29 -61 -47h-3c6 87.333 10.667 145 14 173h357v144
h-510l-31 -449h167c10 17.333 24.833 32.166 44.5 44.499s42.834 18.5 69.501 18.5c34.667 0 63.667 -10.5 87 -31.5s35 -48.833 35 -83.5c0 -36.667 -12 -66.167 -36 -88.5s-52.333 -33.5 -85 -33.5c-30 0 -56.333 7.33301 -79 22s-36.667 34.667 -42 60h-177z
M413.999 1469h972c72 0 133.333 -25 184 -75s76 -110.333 76 -181v-982c0 -70.667 -25.333 -131 -76 -181s-112 -75 -184 -75h-972c-71.333 0 -132.5 25 -183.5 75s-76.5 110.333 -76.5 181v982c0 70.667 25.5 131 76.5 181s112.167 75 183.5 75z" />
    <glyph glyph-name="six.blacksquare" unicode="&#x36;&#x20de;&#x25a0;" 
d="M1209 617c0 67.333 -21.667 123.168 -65 167.501s-97.666 66.5 -162.999 66.5c-50 0 -91.667 -13 -125 -39l-9 1c5.33301 10 16.666 26.333 33.999 49c58 80 123 162.333 195 247h-219c-15.333 -18.667 -42.333 -53.5 -81 -104.5s-62 -82.833 -70 -95.5
c-70.667 -100.667 -106 -196.334 -106 -287.001c0 -84.667 28.333 -153 85 -205s130.667 -78 222 -78c90.667 0 163.667 25.5 219 76.5s83 118.167 83 201.5zM782 606.002c0 35.333 11.667 64.5 35 87.5s53 34.5 89 34.5c36.667 0 66.667 -11.5 90 -34.5
s35 -52.167 35 -87.5c0 -34.667 -11.833 -63.5 -35.5 -86.5s-53.5 -34.5 -89.5 -34.5s-65.667 11.5 -89 34.5s-35 51.833 -35 86.5zM414 1469h972c72 0 133.333 -25 184 -75s76 -110.333 76 -181v-982c0 -70.667 -25.333 -131 -76 -181s-112 -75 -184 -75h-972
c-71.333 0 -132.5 25 -183.5 75s-76.5 110.333 -76.5 181v982c0 70.667 25.5 131 76.5 181s112.167 75 183.5 75z" />
    <glyph glyph-name="seven.blacksquare" unicode="&#x37;&#x20de;&#x25a0;" 
d="M614 1109v-160h376v-2l-318 -595h209l307 599v158h-574zM414 1469h972c72 0 133.333 -25 184 -75s76 -110.333 76 -181v-982c0 -70.667 -25.333 -131 -76 -181s-112 -75 -184 -75h-972c-71.333 0 -132.5 25 -183.5 75s-76.5 110.333 -76.5 181v982
c0 70.667 25.5 131 76.5 181s112.167 75 183.5 75z" />
    <glyph glyph-name="eight.blacksquare" unicode="&#x38;&#x20de;&#x25a0;" 
d="M897 803c-31.333 0 -56.666 8.66699 -75.999 26s-29 39.666 -29 66.999c0 28 9.66699 50.667 29 68s44.666 26 75.999 26s56.833 -8.66699 76.5 -26s29.5 -40 29.5 -68c0 -27.333 -9.83301 -49.666 -29.5 -66.999s-45.167 -26 -76.5 -26zM897 470
c-37.333 0 -68 10.167 -92 30.5s-36 46.166 -36 77.499s12 57.166 36 77.499s54.667 30.5 92 30.5s68.166 -10.167 92.499 -30.5s36.5 -46.166 36.5 -77.499s-12.167 -57.166 -36.5 -77.499s-55.166 -30.5 -92.499 -30.5zM897 338c97.333 0 175.334 20.667 234.001 62
s88 96.333 88 165c0 47.333 -14.833 87.5 -44.5 120.5s-70.167 53.833 -121.5 62.5v2c89.333 28.667 134 84.334 134 167.001c0 61.333 -26.5 110.833 -79.5 148.5s-123.167 56.5 -210.5 56.5c-86.667 0 -156.5 -18.833 -209.5 -56.5s-79.5 -87.167 -79.5 -148.5
c0 -82.667 44.667 -138.334 134 -167.001v-2c-51.333 -8.66699 -91.833 -29.5 -121.5 -62.5s-44.5 -73.167 -44.5 -120.5c0 -68.667 29.167 -123.667 87.5 -165s136.166 -62 233.499 -62zM414.001 1469h972c72 0 133.333 -25 184 -75s76 -110.333 76 -181v-982
c0 -70.667 -25.333 -131 -76 -181s-112 -75 -184 -75h-972c-71.333 0 -132.5 25 -183.5 75s-76.5 110.333 -76.5 181v982c0 70.667 25.5 131 76.5 181s112.167 75 183.5 75z" />
    <glyph glyph-name="nine.blacksquare" unicode="&#x39;&#x20de;&#x25a0;" 
d="M587 843c0 -67.333 21.667 -123.331 65 -167.998s97.666 -67 162.999 -67c49.333 0 91 13.333 125 40l9 -1c-5.33301 -10 -15.666 -25.333 -30.999 -46c-50.667 -70 -116.667 -153.333 -198 -250h219c16 19.333 43 54.166 81 104.499s61 81.5 69 93.5
c71.333 101.333 107 197.666 107 288.999c0 84.667 -28.333 153 -85 205s-130.667 78 -222 78c-90.667 0 -163.667 -25.5 -219 -76.5s-83 -118.167 -83 -201.5zM1014 854.002c0 -35.333 -11.667 -64.5 -35 -87.5s-53 -34.5 -89 -34.5c-36.667 0 -66.667 11.5 -90 34.5
s-35 52.167 -35 87.5c0 34.667 11.833 63.5 35.5 86.5s53.5 34.5 89.5 34.5s65.667 -11.5 89 -34.5s35 -51.833 35 -86.5zM414 1469h972c72 0 133.333 -25 184 -75s76 -110.333 76 -181v-982c0 -70.667 -25.333 -131 -76 -181s-112 -75 -184 -75h-972
c-71.333 0 -132.5 25 -183.5 75s-76.5 110.333 -76.5 181v982c0 70.667 25.5 131 76.5 181s112.167 75 183.5 75z" />
    <glyph glyph-name="plus.uc.blacksquare" unicode="&#x2b;&#x20de;&#x25a0;" 
d="M985 647h225v164h-225v225h-170v-225h-225v-164h225v-230h170v230zM414 1469h972c72 0 133.333 -25 184 -75s76 -110.333 76 -181v-982c0 -70.667 -25.333 -131 -76 -181s-112 -75 -184 -75h-972c-71.333 0 -132.5 25 -183.5 75s-76.5 110.333 -76.5 181v982
c0 70.667 25.5 131 76.5 181s112.167 75 183.5 75z" />
    <glyph glyph-name="minus.uc.blacksquare" unicode="&#x2212;&#x20de;&#x25a0;" 
d="M1187 641v170h-574v-170h574zM414 1469h972c72 0 133.333 -25 184 -75s76 -110.333 76 -181v-982c0 -70.667 -25.333 -131 -76 -181s-112 -75 -184 -75h-972c-71.333 0 -132.5 25 -183.5 75s-76.5 110.333 -76.5 181v982c0 70.667 25.5 131 76.5 181s112.167 75 183.5 75
z" />
    <glyph glyph-name="multiply.uc.blacksquare" unicode="&#xd7;&#x20de;&#x25a0;" 
d="M900 846l-175 169l-119 -119l174 -170l-174 -168l119 -120l175 169l174 -169l119 120l-174 168l174 170l-119 119zM414 1469h972c72 0 133.333 -25 184 -75s76 -110.333 76 -181v-982c0 -70.667 -25.333 -131 -76 -181s-112 -75 -184 -75h-972
c-71.333 0 -132.5 25 -183.5 75s-76.5 110.333 -76.5 181v982c0 70.667 25.5 131 76.5 181s112.167 75 183.5 75z" />
    <glyph glyph-name="divide.uc.blacksquare" unicode="&#xf7;&#x20de;&#x25a0;" 
d="M798 961c0 -26.667 9.66699 -48.667 29 -66s43.333 -26 72 -26c29.333 0 54 8.83301 74 26.5s30 39.5 30 65.5c0 28 -9.83301 50.833 -29.5 68.5s-44.5 26.5 -74.5 26.5c-28.667 0 -52.667 -8.83301 -72 -26.5s-29 -40.5 -29 -68.5zM1187 657v138h-574v-138h574zM798 494
c0 -26.667 9.66699 -48.834 29 -66.501s43.666 -26.5 72.999 -26.5s53.833 8.83301 73.5 26.5s29.5 39.834 29.5 66.501c0 27.333 -9.83301 49.833 -29.5 67.5s-44.167 26.5 -73.5 26.5s-53.666 -8.83301 -72.999 -26.5s-29 -40.167 -29 -67.5zM414 1469h972
c72 0 133.333 -25 184 -75s76 -110.333 76 -181v-982c0 -70.667 -25.333 -131 -76 -181s-112 -75 -184 -75h-972c-71.333 0 -132.5 25 -183.5 75s-76.5 110.333 -76.5 181v982c0 70.667 25.5 131 76.5 181s112.167 75 183.5 75z" />
    <glyph glyph-name="equal.uc.blacksquare" unicode="&#x3d;&#x20de;&#x25a0;" 
d="M1185 788v150h-570v-150h570zM1185 514v149h-570v-149h570zM414 1469h972c72 0 133.333 -25 184 -75s76 -110.333 76 -181v-982c0 -70.667 -25.333 -131 -76 -181s-112 -75 -184 -75h-972c-71.333 0 -132.5 25 -183.5 75s-76.5 110.333 -76.5 181v982
c0 70.667 25.5 131 76.5 181s112.167 75 183.5 75z" />
    <glyph glyph-name="greater.uc.blacksquare" unicode="&#x3e;&#x20de;&#x25a0;" 
d="M1200 778l-557 286v-184l330 -155l1 -2l-331 -154v-179l557 275v113zM414 1469h972c72 0 133.333 -25 184 -75s76 -110.333 76 -181v-982c0 -70.667 -25.333 -131 -76 -181s-112 -75 -184 -75h-972c-71.333 0 -132.5 25 -183.5 75s-76.5 110.333 -76.5 181v982
c0 70.667 25.5 131 76.5 181s112.167 75 183.5 75z" />
    <glyph glyph-name="less.uc.blacksquare" unicode="&#x3c;&#x20de;&#x25a0;" 
d="M595 665l555 -275v179l-168.5 79.5l-159.5 74.5v2l328 155v184l-555 -286v-113zM414 1469h972c72 0 133.333 -25 184 -75s76 -110.333 76 -181v-982c0 -70.667 -25.333 -131 -76 -181s-112 -75 -184 -75h-972c-71.333 0 -132.5 25 -183.5 75s-76.5 110.333 -76.5 181v982
c0 70.667 25.5 131 76.5 181s112.167 75 183.5 75z" />
    <glyph glyph-name="numbersign.blacksquare" unicode="&#x23;&#x20de;&#x25a0;" 
d="M843 802h139l-31 -149h-139zM1218 788l26 135h-113l38 183h-144l-36 -183h-107l38 183h-143l-37 -183h-108l-26 -135h107l-24 -111h-109l-26 -136h107l-39 -192h142l41 192h106l-40 -192h143l39 192h112l27 136h-110c0.666992 2.66699 4.5 21.167 11.5 55.5
s10.5 52.833 10.5 55.5h114zM414 1469h972c72 0 133.333 -25 184 -75s76 -110.333 76 -181v-982c0 -70.667 -25.333 -131 -76 -181s-112 -75 -184 -75h-972c-71.333 0 -132.5 25 -183.5 75s-76.5 110.333 -76.5 181v982c0 70.667 25.5 131 76.5 181s112.167 75 183.5 75z
" />
    <glyph glyph-name="uni25BC.blacksquare" unicode="&#x25bc;&#x20de;&#x25a0;" 
d="M1248 977h-695l347 -602zM414 1469h972c72 0 133.333 -25 184 -75s76 -110.333 76 -181v-982c0 -70.667 -25.333 -131 -76 -181s-112 -75 -184 -75h-972c-71.333 0 -132.5 25 -183.5 75s-76.5 110.333 -76.5 181v982c0 70.667 25.5 131 76.5 181s112.167 75 183.5 75z
" />
    <glyph glyph-name="uni25B2.blacksquare" unicode="&#x25b2;&#x20de;&#x25a0;" 
d="M1248 490l-348 602l-347 -602h695zM414 1469h972c72 0 133.333 -25 184 -75s76 -110.333 76 -181v-982c0 -70.667 -25.333 -131 -76 -181s-112 -75 -184 -75h-972c-71.333 0 -132.5 25 -183.5 75s-76.5 110.333 -76.5 181v982c0 70.667 25.5 131 76.5 181
s112.167 75 183.5 75z" />
    <glyph glyph-name="uni25C0.blacksquare" unicode="&#x25c0;&#x20de;&#x25a0;" 
d="M1140 388v694l-603 -346zM414 1469h972c72 0 133.333 -25 184 -75s76 -110.333 76 -181v-982c0 -70.667 -25.333 -131 -76 -181s-112 -75 -184 -75h-972c-71.333 0 -132.5 25 -183.5 75s-76.5 110.333 -76.5 181v982c0 70.667 25.5 131 76.5 181s112.167 75 183.5 75z
" />
    <glyph glyph-name="uni25B6.blacksquare" unicode="&#x25b6;&#x20de;&#x25a0;" 
d="M660 388l603 348l-603 346v-694zM414 1469h972c72 0 133.333 -25 184 -75s76 -110.333 76 -181v-982c0 -70.667 -25.333 -131 -76 -181s-112 -75 -184 -75h-972c-71.333 0 -132.5 25 -183.5 75s-76.5 110.333 -76.5 181v982c0 70.667 25.5 131 76.5 181
s112.167 75 183.5 75z" />
    <glyph glyph-name="question.blacksquare" unicode="&#x3f;&#x20de;&#x25a0;" 
d="M767 429c0 -29.333 10.667 -52.833 32 -70.5s50 -26.5 86 -26.5s64.667 8.83301 86 26.5s32 41.167 32 70.5c0 30 -10.667 53.833 -32 71.5s-50 26.5 -86 26.5s-64.667 -8.66699 -86 -26s-32 -41.333 -32 -72zM906 1122c-82 0 -148.836 -19.5 -200.503 -58.5
s-77.5 -97.833 -77.5 -176.5v-3l178 2c0 27.333 7.83301 49.666 23.5 66.999s37.5 26 65.5 26c24 0 44.333 -6.5 61 -19.5s25 -31.833 25 -56.5c0 -12.667 -3.33301 -24.5 -10 -35.5s-14.167 -19.833 -22.5 -26.5l-35.5 -27.5c-15.333 -11.667 -27.666 -21.5 -36.999 -29.5
c-59.333 -45.333 -87.666 -96.666 -84.999 -153.999c0 -23.333 0.666992 -36.333 2 -39h170v22c0 24 5.33301 42.167 16 54.5s34.667 30.833 72 55.5c42.667 29.333 73.334 56.5 92.001 81.5s28 59.833 28 104.5c0 66 -25.167 118 -75.5 156s-113.5 57 -189.5 57z
M413.997 1469h972c72 0 133.333 -25 184 -75s76 -110.333 76 -181v-982c0 -70.667 -25.333 -131 -76 -181s-112 -75 -184 -75h-972c-71.333 0 -132.5 25 -183.5 75s-76.5 110.333 -76.5 181v982c0 70.667 25.5 131 76.5 181s112.167 75 183.5 75z" />
    <glyph glyph-name="exclam.blacksquare" unicode="&#x21;&#x20de;&#x25a0;" 
d="M795 1110l22 -502h168l22 502h-212zM784 430c0 -29.333 10.666 -52.833 31.999 -70.5s50 -26.5 86 -26.5s64.5 8.83301 85.5 26.5s31.5 41.167 31.5 70.5s-10.667 52.833 -32 70.5s-49.666 26.5 -84.999 26.5c-36 0 -64.667 -8.83301 -86 -26.5s-32 -41.167 -32 -70.5z
M413.999 1469h972c72 0 133.333 -25 184 -75s76 -110.333 76 -181v-982c0 -70.667 -25.333 -131 -76 -181s-112 -75 -184 -75h-972c-71.333 0 -132.5 25 -183.5 75s-76.5 110.333 -76.5 181v982c0 70.667 25.5 131 76.5 181s112.167 75 183.5 75z" />
    <glyph glyph-name="uni2717.blacksquare" unicode="&#x2717;&#x20de;&#x25a0;" 
d="M527 981l259 -258l-259 -256l116 -119l259 256l259 -255l115 119l-258 255l258 256l-115 118l-259 -256l-260 257zM414 1469h972c72 0 133.333 -25 184 -75s76 -110.333 76 -181v-982c0 -70.667 -25.333 -131 -76 -181s-112 -75 -184 -75h-972
c-71.333 0 -132.5 25 -183.5 75s-76.5 110.333 -76.5 181v982c0 70.667 25.5 131 76.5 181s112.167 75 183.5 75z" />
    <glyph glyph-name="uni2713.blacksquare" unicode="&#x2713;&#x20de;&#x25a0;" 
d="M769 365l596 588l-122 126l-473 -470l-210 208l-122 -123zM414 1469h972c72 0 133.333 -25 184 -75s76 -110.333 76 -181v-982c0 -70.667 -25.333 -131 -76 -181s-112 -75 -184 -75h-972c-71.333 0 -132.5 25 -183.5 75s-76.5 110.333 -76.5 181v982
c0 70.667 25.5 131 76.5 181s112.167 75 183.5 75z" />
    <glyph glyph-name=".notdef" horiz-adv-x="2048" 
d="M100 -494v229h1848v-229h-1848zM100 -51v229h1848v-229h-1848zM100 392v229h1848v-229h-1848zM100 835v229h1848v-229h-1848zM100 1278v229h1848v-229h-1848zM100 1721v229h1848v-229h-1848z" />
    <glyph glyph-name="space" unicode=" " horiz-adv-x="546" 
 />
    <glyph glyph-name="exclam" unicode="!" horiz-adv-x="696" 
d="M209 1444h277l-23 -967h-231zM348 -26c-50.667 0 -91 14.5 -121 43.5s-45 67.5 -45 115.5c0 48.667 15 87.5 45 116.5s70.333 43.5 121 43.5s91 -14.5 121 -43.5s45 -67.833 45 -116.5c0 -48 -15 -86.5 -45 -115.5s-70.333 -43.5 -121 -43.5z" />
    <glyph glyph-name="quotedbl" unicode="&#x22;" horiz-adv-x="972" 
d="M379 857h-217v586h217v-586zM810 857h-217v586h217v-586z" />
    <glyph glyph-name="numbersign" unicode="#" horiz-adv-x="1337" 
d="M662 0l78 387h-284l-79 -387h-192l78 387h-228l36 194h231l60 299h-236l37 192h237l77 371h191l-74 -371h283l77 371h193l-76 -371h241l-36 -192h-243l-62 -299h248l-36 -194h-250l-78 -387h-193zM482 567h302l68 325h-304z" />
    <glyph glyph-name="dollar" unicode="$" horiz-adv-x="1383" 
d="M765 -136l-138.003 -0.000976562v129c-148.667 8.66699 -266.167 50 -352.5 124s-129.833 170 -130.5 288h244c4.66699 -56 28.334 -102.667 71.001 -140s98.667 -59.666 168 -66.999v426l-96 23c-116 28.667 -204.333 76.334 -265 143.001s-91 150 -91 250
c0 118 40 213.667 120 287s190.667 116 332 128v138h138v-138c133.333 -12 240.333 -55 321 -129s122.334 -167.333 125.001 -280h-239c-1.33301 51.333 -21.166 95.666 -59.499 132.999s-87.5 60 -147.5 68v-405l99 -21c126.667 -29.333 220.834 -76.833 282.501 -142.5
s92.5 -151.167 92.5 -256.5c0 -124 -41.333 -223.167 -124 -297.5s-199.334 -117.833 -350.001 -130.5v-130zM994.997 395.999c0 53.333 -18.667 96.5 -56 129.5s-95.333 57.167 -174 72.5v-402c73.333 4.66699 130 24.5 170 59.5s60 81.833 60 140.5zM421.997 1061
c0 -48 17.5 -88.168 52.5 -120.501s85.833 -55.5 152.5 -69.5v377c-59.333 -3.33301 -108.333 -22.666 -147 -57.999s-58 -78.333 -58 -129z" />
    <glyph glyph-name="percent" unicode="%" horiz-adv-x="1668" 
d="M724 1114c0 -106.667 -30.167 -193.334 -90.5 -260.001s-138.833 -100 -235.5 -100c-97.333 0 -176.333 33.333 -237 100s-91 153.334 -91 260.001s30.333 193.167 91 259.5s139.667 99.5 237 99.5s176 -33.167 236 -99.5s90 -152.833 90 -259.5zM398 923
c38 0 68.499 17.333 91.499 52s34.5 81.334 34.5 140.001c0 59.333 -11.167 105.833 -33.5 139.5s-53.166 50.5 -92.499 50.5s-70.333 -17 -93 -51s-34 -80.333 -34 -139s11.5 -105.334 34.5 -140.001s53.833 -52 92.5 -52zM456.999 0h-246l547 754l460 689h245l-556 -764z
M1597 330c0 -107.333 -30.167 -194.168 -90.5 -260.501s-138.833 -99.5 -235.5 -99.5c-97.333 0 -176.166 33.333 -236.499 100s-90.5 153.334 -90.5 260.001s30.167 193.167 90.5 259.5s139.166 99.5 236.499 99.5c96.667 0 175.167 -33.167 235.5 -99.5
s90.5 -152.833 90.5 -259.5zM1271 138.998c38 0 68.499 17.333 91.499 52s34.5 81 34.5 139c0 59.333 -11.167 106 -33.5 140s-53.166 51 -92.499 51c-38.667 0 -69.5 -17.167 -92.5 -51.5s-34.5 -80.833 -34.5 -139.5s11.5 -105.167 34.5 -139.5s53.833 -51.5 92.5 -51.5z
" />
    <glyph glyph-name="ampersand" unicode="&#x26;" horiz-adv-x="1500" 
d="M1183 0l-119.001 127.001c-56.667 -48.667 -124.667 -86.5 -204 -113.5s-163 -40.5 -251 -40.5c-150 0 -270.667 37.167 -362 111.5s-137 172.833 -137 295.5c0 83.333 22.333 156.666 67 219.999s114 120.333 208 171c2.66699 1.33301 12.5 6.66602 29.5 15.999
s27.5 15 31.5 17c-65.333 68 -111.666 127.333 -138.999 178s-41 102.334 -41 155.001c0 96 37.5 175.5 112.5 238.5s169.167 94.5 282.5 94.5c114 0 207.667 -30.833 281 -92.5s110 -140.834 110 -237.501c0 -74 -24 -141.167 -72 -201.5s-124 -118.166 -228 -173.499
l307 -325c38 70.667 57 173.667 57 309v54h217v-66c0 -190.667 -40.333 -344 -121 -460l261 -277h-290zM523.999 641.001c-116.667 -62 -174.999 -142.333 -174.999 -241c0 -69.333 26.167 -125.5 78.5 -168.5s121.166 -64.5 206.499 -64.5c57.333 0 112.5 10 165.5 30
s95.833 47 128.5 81l-359 385c-12.667 -4.66699 -27.667 -12 -45 -22zM630 891.001c74 37.333 126.832 74.001 158.499 110.001s47.5 77 47.5 123c0 49.333 -16.167 89.333 -48.5 120s-74.166 46 -125.499 46c-50.667 0 -92.167 -15.5 -124.5 -46.5
s-48.5 -70.833 -48.5 -119.5c0 -35.333 10.5 -70.333 31.5 -105s57.5 -77.334 109.5 -128.001z" />
    <glyph glyph-name="quotesingle" unicode="'" horiz-adv-x="540" 
d="M379 857h-217v586h217v-586z" />
    <glyph glyph-name="parenleft" unicode="(" horiz-adv-x="843" 
d="M230 604c0 366 97.333 670.333 292 913h224c-73.333 -93.333 -135 -226.166 -185 -398.499s-75 -343.5 -75 -513.5c0 -170.667 24.833 -342.167 74.5 -514.5s111.5 -305.5 185.5 -399.5h-224c-194.667 243.333 -292 547.666 -292 912.999z" />
    <glyph glyph-name="parenright" unicode=")" horiz-adv-x="843" 
d="M613 604c0 -365.333 -97.333 -669.666 -292 -912.999h-224c74 94 135.833 227.167 185.5 399.5s74.5 343.833 74.5 514.5c0 170 -25 341.167 -75 513.5s-111.667 305.166 -185 398.499h224c194.667 -242.667 292 -547 292 -913z" />
    <glyph glyph-name="asterisk" unicode="*" horiz-adv-x="1032" 
d="M809 794l-235 172l31 -288h-178l31 289l-235 -173l-88 156l267 117l-267 117l88 157l236 -177l-32 294h178l-32 -294l236 177l88 -157l-266 -117l266 -117z" />
    <glyph glyph-name="plus" unicode="+" horiz-adv-x="1383" 
d="M800 474v-419h-216v419h-421v218h421v418h216v-418h420v-218h-420z" />
    <glyph glyph-name="comma" unicode="," horiz-adv-x="674" 
d="M312 -382h-171l93 604h251z" />
    <glyph glyph-name="hyphen" unicode="&#x2011;" horiz-adv-x="983" 
d="M820 465h-657v233h657v-233z" />
    <glyph glyph-name="hyphen" unicode="-" horiz-adv-x="983" 
d="M820 465h-657v233h657v-233z" />
    <glyph glyph-name="period" unicode="." horiz-adv-x="674" 
d="M337 -21c-46.667 0 -85 15 -115 45s-45 67.667 -45 113c0 46 15 83.833 45 113.5s68.333 44.5 115 44.5c47.333 0 85.833 -14.833 115.5 -44.5s44.5 -67.5 44.5 -113.5c0 -45.333 -14.833 -83 -44.5 -113s-68.167 -45 -115.5 -45z" />
    <glyph glyph-name="slash" unicode="/" horiz-adv-x="753" 
d="M228 -309h-228l525 1826h228z" />
    <glyph glyph-name="zero" unicode="0" horiz-adv-x="1361" 
d="M681 -36c-173.333 0 -308.5 66.668 -405.5 200.001s-145.5 319.666 -145.5 558.999c0 238 48.833 423.5 146.5 556.5s232.5 199.5 404.5 199.5s306.667 -66.667 404 -200s146 -319.333 146 -558c0 -238 -48.5 -423.667 -145.5 -557s-231.833 -200 -404.5 -200z
M681 178.001c92 0 163.167 46.833 213.5 140.5s75.5 228.5 75.5 404.5c0 174.667 -25.333 308.5 -76 401.5s-121.667 139.5 -213 139.5s-162.5 -46.667 -213.5 -140s-76.5 -227 -76.5 -401c0 -176 25.333 -310.833 76 -404.5s122 -140.5 214 -140.5z" />
    <glyph glyph-name="one" unicode="1" horiz-adv-x="1016" 
d="M499 0v1183h-17l-359 -252v248l377 264h257v-1443h-258z" />
    <glyph glyph-name="two" unicode="2" horiz-adv-x="1289" 
d="M137 1021c0 134.667 46.832 244.667 140.499 330s214.5 128 362.5 128c142.667 0 260.167 -39 352.5 -117s138.5 -177.333 138.5 -298c0 -77.333 -23.333 -153.833 -70 -229.5s-131.334 -174.167 -254.001 -295.5l-302 -303v-17h648v-219h-1002v179l481 492
c98.667 100 164.334 175.167 197.001 225.5s49 100.833 49 151.5c0 63.333 -23.167 115.666 -69.5 156.999s-105.166 62 -176.499 62c-75.333 0 -136.333 -22.667 -183 -68s-70 -104.666 -70 -177.999v-4h-242v4z" />
    <glyph glyph-name="three" unicode="3" horiz-adv-x="1339" 
d="M482 640l0.000976562 200h176c73.333 0 133 20.167 179 60.5s69 92.833 69 157.5c0 64 -22.5 115.167 -67.5 153.5s-105.167 57.5 -180.5 57.5c-74.667 0 -135.167 -19.667 -181.5 -59s-71.833 -93 -76.5 -161h-241c6.66699 132.667 55.334 237.5 146.001 314.5
s211 115.5 361 115.5c140 0 256.5 -36.5 349.5 -109.5s139.5 -164.833 139.5 -275.5c0 -84.667 -23.5 -157 -70.5 -217s-110.5 -98.333 -190.5 -115v-17c98.667 -11.333 176.5 -48.333 233.5 -111s85.5 -142 85.5 -238c0 -124 -51.833 -227 -155.5 -309
s-233.834 -123 -390.501 -123c-155.333 0 -281.833 39.667 -379.5 119s-149.834 185 -156.501 317h247c5.33301 -66.667 34.333 -119.834 87 -159.501s120.667 -59.5 204 -59.5c82.667 0 150.167 21.5 202.5 64.5s78.5 98.5 78.5 166.5
c0 70.667 -25.667 126.334 -77 167.001s-121.333 61 -210 61h-181z" />
    <glyph glyph-name="four" unicode="4" horiz-adv-x="1377" 
d="M820 0v269h-705v230c117.333 216 313.333 530.667 588 944h364v-956h195v-218h-195v-269h-247zM354 496v-14.999h470v752h-14c-156 -230.667 -308 -476.334 -456 -737.001z" />
    <glyph glyph-name="five" unicode="5" horiz-adv-x="1326" 
d="M671 -36c-148.667 0 -270.668 40.668 -366.001 122.001s-146 186 -152 314h242c8 -66 37.667 -119.333 89 -160s114.333 -61 189 -61c84.667 0 153.167 26.167 205.5 78.5s78.5 121.5 78.5 207.5s-26.167 155.833 -78.5 209.5s-120.166 80.5 -203.499 80.5
c-58.667 0 -110.834 -12.333 -156.501 -37s-81.834 -59.667 -108.501 -105h-234l75 830h869v-218h-669l-35 -405h17c66.667 90 168.334 135 305.001 135s248.834 -45.333 336.501 -136s131.5 -206.667 131.5 -348c0 -150.667 -49.167 -272.834 -147.5 -366.501
s-227.5 -140.5 -387.5 -140.5z" />
    <glyph glyph-name="six" unicode="6" horiz-adv-x="1366" 
d="M703 -35c-106 0 -199.668 24.333 -281.001 73s-146 119.334 -194 212.001c-68 120 -102 272 -102 456c0 242.667 51.5 432.167 154.5 568.5s246.5 204.5 430.5 204.5c131.333 0 243.5 -35.833 336.5 -107.5s150.167 -166.834 171.5 -285.501h-258
c-16 54.667 -46.5 97.834 -91.5 129.501s-98.5 47.5 -160.5 47.5c-105.333 0 -187.666 -46.5 -246.999 -139.5s-89 -222.167 -89 -387.5h17c34 68.667 83.667 121.834 149 159.501s140.333 56.5 225 56.5c137.333 0 250.833 -45.333 340.5 -136
s134.5 -205.334 134.5 -344.001c0 -148.667 -50.167 -270.334 -150.5 -365.001s-228.833 -142 -385.5 -142zM699.999 180c81.333 0 149.333 27.168 204 81.501s82 121.833 82 202.5c0 82.667 -26.667 150.5 -80 203.5s-121.333 79.5 -204 79.5s-151 -26.333 -205 -79
s-81 -119.334 -81 -200.001c0 -82 27.167 -150.5 81.5 -205.5s121.833 -82.5 202.5 -82.5z" />
    <glyph glyph-name="seven" unicode="7" horiz-adv-x="1213" 
d="M214 0l627 1210v16h-744v217h1004v-220l-617 -1223h-270z" />
    <glyph glyph-name="eight" unicode="8" horiz-adv-x="1380" 
d="M689 -36c-165.333 0 -299.834 39.1631 -403.501 117.496s-155.5 179.833 -155.5 304.5c0 91.333 28.333 170.5 85 237.5s132.334 110.5 227.001 130.5v17c-76.667 18.667 -138.167 56.834 -184.5 114.501s-69.5 125.167 -69.5 202.5c0 114 47 207.667 141 281
s214.333 110 361 110s266.834 -36.667 360.501 -110s140.5 -167 140.5 -281c0 -77.333 -22.833 -144.666 -68.5 -201.999s-107.167 -95.666 -184.5 -114.999v-17c94 -17.333 169.5 -59.5 226.5 -126.5s85.5 -147.167 85.5 -240.5
c0 -125.333 -51.833 -227.166 -155.5 -305.499s-238.834 -117.5 -405.501 -117.5zM689.999 164.996c86.667 0 157.167 22.5 211.5 67.5s81.5 103.5 81.5 175.5s-27.167 130.5 -81.5 175.5s-124.833 67.5 -211.5 67.5c-87.333 0 -158.166 -22.5 -212.499 -67.5
s-81.5 -103.5 -81.5 -175.5s27.167 -130.5 81.5 -175.5s125.166 -67.5 212.499 -67.5zM689.999 848.996c73.333 0 132.833 19.833 178.5 59.5s68.5 91.167 68.5 154.5c0 64.667 -22.833 117.167 -68.5 157.5s-105.167 60.5 -178.5 60.5c-74 0 -133.833 -20.167 -179.5 -60.5
s-68.5 -92.833 -68.5 -157.5c0 -63.333 23 -114.833 69 -154.5s105.667 -59.5 179 -59.5z" />
    <glyph glyph-name="nine" unicode="9" horiz-adv-x="1366" 
d="M655 -35c-132 0 -244.332 35.834 -336.999 107.501s-149.667 166.834 -171 285.501h257c16.667 -54.667 47.5 -97.834 92.5 -129.501s98.5 -47.5 160.5 -47.5c105.333 0 187.666 46.5 246.999 139.5s89 222.167 89 387.5h-9h-5h-3
c-34 -68.667 -83.667 -121.834 -149 -159.501s-140.333 -56.5 -225 -56.5c-137.333 0 -250.833 45.333 -340.5 136s-134.5 205.334 -134.5 344.001c0 148 50.167 269.5 150.5 364.5s228.833 142.5 385.5 142.5c105.333 0 198.666 -24.333 279.999 -73
s146.333 -119.334 195 -212.001c68 -120.667 102 -272.667 102 -456c0 -242.667 -51.667 -432.167 -155 -568.5s-246.666 -204.5 -429.999 -204.5zM664.001 697.001c82.667 0 151.002 26.333 205.002 79s81 119.334 81 200.001c0 81.333 -27.333 149.666 -82 204.999
s-122.334 83 -203.001 83s-148.334 -27.167 -203.001 -81.5s-82 -121.833 -82 -202.5c0 -82.667 26.667 -150.5 80 -203.5s121.333 -79.5 204 -79.5z" />
    <glyph glyph-name="colon" unicode=":" horiz-adv-x="674" 
d="M337 -21c-46.667 0 -85 15 -115 45s-45 67.667 -45 113c0 46 15 83.833 45 113.5s68.333 44.5 115 44.5c47.333 0 85.833 -14.833 115.5 -44.5s44.5 -67.5 44.5 -113.5c0 -45.333 -14.833 -83 -44.5 -113s-68.167 -45 -115.5 -45zM337 729
c-46.667 0 -85 14.833 -115 44.5s-45 67.167 -45 112.5c0 46 15 83.833 45 113.5s68.333 44.5 115 44.5c47.333 0 85.833 -14.833 115.5 -44.5s44.5 -67.5 44.5 -113.5c0 -45.333 -14.833 -82.833 -44.5 -112.5s-68.167 -44.5 -115.5 -44.5z" />
    <glyph glyph-name="semicolon" unicode=";" horiz-adv-x="674" 
d="M337 729c-46.667 0 -85 14.833 -115 44.5s-45 67.167 -45 112.5c0 46 15 83.833 45 113.5s68.333 44.5 115 44.5c47.333 0 85.833 -14.833 115.5 -44.5s44.5 -67.5 44.5 -113.5c0 -45.333 -14.833 -82.833 -44.5 -112.5s-68.167 -44.5 -115.5 -44.5zM297 -382h-177
l96 604h251z" />
    <glyph glyph-name="less" unicode="&#x3c;" horiz-adv-x="1383" 
d="M1155 935l-676 -333v-17l676 -333v-260l-927 501v201l927 501v-260z" />
    <glyph glyph-name="equal" unicode="=" horiz-adv-x="1383" 
d="M1216 251h-1049v219h1049v-219zM1216 697h-1049v219h1049v-219z" />
    <glyph glyph-name="greater" unicode="&#x3e;" horiz-adv-x="1383" 
d="M228 935v260l927 -501v-201l-927 -501v260l676 333v17z" />
    <glyph glyph-name="question" unicode="?" horiz-adv-x="1108" 
d="M78 1046c4 122 46.832 220.669 128.499 296.002s194.834 113 339.501 113c136 0 246.167 -35.333 330.5 -106s126.5 -161.667 126.5 -273c0 -143.333 -70.667 -257 -212 -341c-65.333 -38.667 -109.666 -73.834 -132.999 -105.501s-35 -72.167 -35 -121.5v-57h-232l-1 68
c-4.66699 74 7.83301 135.667 37.5 185s79.5 94.666 149.5 135.999c62.667 38 106 73.167 130 105.5s36 72.833 36 121.5c0 52.667 -19.333 95.667 -58 129s-89.334 50 -152.001 50c-64 0 -115.667 -18 -155 -54s-61 -84.667 -65 -146h-235zM517.999 -25.998
c-50 0 -90.167 14.5 -120.5 43.5s-45.5 67.5 -45.5 115.5c0 48.667 15.167 87.5 45.5 116.5s70.5 43.5 120.5 43.5c50.667 0 91 -14.5 121 -43.5s45 -67.833 45 -116.5c0 -48 -15 -86.5 -45 -115.5s-70.333 -43.5 -121 -43.5z" />
    <glyph glyph-name="at" unicode="@" horiz-adv-x="1892" 
d="M937 851c-58 0 -103.334 -21.833 -136.001 -65.5s-49 -104.167 -49 -181.5c0 -76.667 16.333 -137 49 -181s77.667 -66 135 -66c59.333 0 106.333 22.167 141 66.5s52 104.5 52 180.5s-17.167 136.167 -51.5 180.5s-81.166 66.5 -140.499 66.5zM970.999 1445
c118 0 227.003 -18.168 327.003 -54.501s185 -86.666 255 -150.999s124.667 -142.5 164 -234.5s59 -192.333 59 -301c0 -160.667 -34.833 -288 -104.5 -382s-163.834 -141 -282.501 -141c-60.667 0 -112 14.667 -154 44s-67.667 68.333 -77 117h-18
c-42.667 -104 -123.667 -156 -243 -156c-104 0 -187.833 38.833 -251.5 116.5s-95.5 179.834 -95.5 306.501c0 121.333 31.667 220.166 95 296.499s145.333 114.5 246 114.5c53.333 0 100.666 -12.5 141.999 -37.5s71.666 -59.833 90.999 -104.5h18v121h183v-551
c0 -35.333 8.83301 -62.833 26.5 -82.5s42.834 -29.5 75.501 -29.5c55.333 0 99.333 32.333 132 97s49 151.667 49 261c0 180.667 -59.167 326.167 -177.5 436.5s-274.5 165.5 -468.5 165.5s-352.667 -64.5 -476 -193.5s-185 -294.833 -185 -497.5
c0 -206.667 62.833 -371.167 188.5 -493.5s295.167 -183.5 508.5 -183.5c131.333 0 229.666 13 294.999 39v-150c-88.667 -26.667 -190.334 -40 -305.001 -40c-171.333 0 -321.666 34.167 -450.999 102.5s-229 165.5 -299 291.5s-105 272.333 -105 439
c0 163.333 35.167 308.333 105.5 435s169 225 296 295s272.5 105 436.5 105z" />
    <glyph glyph-name="A" unicode="A" horiz-adv-x="1456" 
d="M1109 0l-122 369h-531l-124 -369h-261l512 1443h290l513 -1443h-277zM714 1168l-198 -595h411l-196 595h-17z" />
    <glyph glyph-name="B" unicode="B" horiz-adv-x="1393" 
d="M795 0l-617 -0.00195312v1443h603c136.667 0 244 -32.167 322 -96.5s117 -152.166 117 -263.499c0 -76 -24.667 -143.667 -74 -203s-110.333 -94.666 -183 -105.999v-18c97.333 -9.33301 176.333 -45.833 237 -109.5s91 -142.5 91 -236.5
c0 -126.667 -44.167 -226.667 -132.5 -300s-209.5 -110 -363.5 -110zM436 1238v-401.998h249c91.333 0 160.833 17.167 208.5 51.5s71.5 84.166 71.5 149.499c0 63.333 -21.667 112.666 -65 147.999s-104 53 -182 53h-282zM436 205l300.001 0.000976562
c95.333 0 167.666 19.167 216.999 57.5s74 94.166 74 167.499c0 72 -25.5 126.667 -76.5 164s-125.833 56 -224.5 56h-290v-445z" />
    <glyph glyph-name="C" unicode="C" horiz-adv-x="1499" 
d="M780 -36c-204.667 0 -366.331 67.832 -484.998 203.499s-178 320.167 -178 553.5c0 234.667 59.167 419.667 177.5 555s279.833 203 484.5 203c164 0 303 -48.167 417 -144.5s178.667 -219.833 194 -370.5h-254c-18 86.667 -59.333 155.834 -124 207.501
s-142.334 77.5 -233.001 77.5c-122.667 0 -219.667 -47.167 -291 -141.5s-107 -222.833 -107 -385.5s35.667 -291.334 107 -386.001s168.666 -142 291.999 -142c91.333 0 169.333 23.833 234 71.5s105.667 111.834 123 192.501h254c-17.333 -148 -82 -267.333 -194 -358
s-251 -136 -417 -136z" />
    <glyph glyph-name="D" unicode="D" horiz-adv-x="1514" 
d="M178 1443h541c214.667 0 381.5 -62.5 500.5 -187.5s178.5 -300.833 178.5 -527.5c0 -231.333 -59.167 -410.5 -177.5 -537.5s-285.5 -190.5 -501.5 -190.5h-541v1443zM436 1220v-997.001h249c144 0 255 43.333 333 130s117 210.334 117 371.001
c0 157.333 -39.5 279.333 -118.5 366s-189.5 130 -331.5 130h-249z" />
    <glyph glyph-name="E" unicode="E" horiz-adv-x="1254" 
d="M1112 223v-223h-934v1443h934v-223h-676v-383h639v-210h-639v-404h676z" />
    <glyph glyph-name="F" unicode="F" horiz-adv-x="1205" 
d="M436 0h-258v1443h920v-223h-662v-420h605v-215h-605v-585z" />
    <glyph glyph-name="G" unicode="G" horiz-adv-x="1547" 
d="M1426 578c0 -187.333 -57.002 -336.499 -171.002 -447.499s-267.333 -166.5 -460 -166.5c-209.333 0 -374.666 67.833 -495.999 203.5s-182 320.5 -182 554.5c0 230.667 61 414.5 183 551.5s285.667 205.5 491 205.5c166.667 0 306.334 -44 419.001 -132
s180.667 -205.667 204 -353h-257c-26 82 -70.5 145 -133.5 189s-140.5 66 -232.5 66c-126 0 -225.833 -47 -299.5 -141s-110.5 -222 -110.5 -384c0 -164 37.5 -293.333 112.5 -388s176.833 -142 305.5 -142c110 0 199.333 30.667 268 92s104 141.666 106 240.999l1 30h-347
v202h599v-181z" />
    <glyph glyph-name="H" unicode="H" horiz-adv-x="1573" 
d="M1395 0h-257v623h-702v-623h-258v1443h258v-597h702v597h257v-1443z" />
    <glyph glyph-name="I" unicode="I" horiz-adv-x="614" 
d="M436 0h-258v1443h258v-1443z" />
    <glyph glyph-name="J" unicode="J" horiz-adv-x="1184" 
d="M79 393l252.001 0.000976562c0.666992 -59.333 20 -107 58 -143s87.667 -54 149 -54c68 0 120 20.167 156 60.5s54 99.166 54 176.499v1010h258v-1012c0 -148 -41 -262.833 -123 -344.5s-196 -122.5 -342 -122.5c-138.667 0 -250.334 39 -335.001 117s-127 182 -127 312z
" />
    <glyph glyph-name="K" unicode="K" horiz-adv-x="1415" 
d="M436 0h-258v1443h258v-664h17l569 664h296l-545 -629l588 -814h-315l-456 637l-154 -177v-460z" />
    <glyph glyph-name="L" unicode="L" horiz-adv-x="1198" 
d="M1098 226v-226h-920v1443h258v-1217h662z" />
    <glyph glyph-name="M" unicode="M" horiz-adv-x="1846" 
d="M1668 0h-240v1015h-14l-399 -959h-184l-399 959h-14v-1015h-240v1443h302l434 -1051h18l434 1051h302v-1443z" />
    <glyph glyph-name="N" unicode="N" horiz-adv-x="1554" 
d="M427 0h-249v1443h224l708 -981h17v981h248v-1443h-223l-708 982h-17v-982z" />
    <glyph glyph-name="O" unicode="O" horiz-adv-x="1599" 
d="M801 1479c209.333 0 375.166 -68 497.499 -204s183.5 -320.333 183.5 -553s-61 -417.167 -183 -553.5s-288 -204.5 -498 -204.5c-211.333 0 -378.166 68 -500.499 204s-183.5 320.667 -183.5 554c0 232.667 61.5 417 184.5 553s289.5 204 499.5 204zM801 1250
c-128.667 0 -230.833 -47.667 -306.5 -143s-113.5 -223.666 -113.5 -384.999c0 -162 37.5 -290.667 112.5 -386s177.5 -143 307.5 -143c128 0 229.5 47.833 304.5 143.5s112.5 224.167 112.5 385.5s-37.5 289.666 -112.5 384.999s-176.5 143 -304.5 143z" />
    <glyph glyph-name="P" unicode="P" horiz-adv-x="1351" 
d="M178 1443h582c144 0 260.833 -45 350.5 -135s134.5 -207.667 134.5 -353c0 -142.667 -46.167 -258.667 -138.5 -348s-211.5 -134 -357.5 -134h-313v-473h-258v1443zM436 1227l-0.000976562 -540h255c92.667 0 164.5 23.333 215.5 70s76.5 112.667 76.5 198
c0 88 -25.167 155.333 -75.5 202s-122.166 70 -215.499 70h-256z" />
    <glyph glyph-name="Q" unicode="Q" horiz-adv-x="1599" 
d="M801 -36c-211.333 0 -378.168 67.667 -500.501 203s-183.5 320 -183.5 554c0 233.333 61.5 418 184.5 554s289.5 204 499.5 204c208.667 0 374.334 -68 497.001 -204s184 -320.667 184 -554c0 -134 -20.5 -252.833 -61.5 -356.5s-99.833 -186.167 -176.5 -247.5l180 -266
h-259l-110 153c-78 -26.667 -162.667 -40 -254 -40zM800.998 193c41.333 0 81.999 5.66699 121.999 17l-173 246h248l91 -114c86 80 129 206.333 129 379c0 162 -37.667 290.667 -113 386s-176.666 143 -303.999 143c-128.667 0 -230.834 -47.5 -306.501 -142.5
s-113.5 -223.833 -113.5 -386.5c0 -162 37.833 -290.5 113.5 -385.5s177.834 -142.5 306.501 -142.5z" />
    <glyph glyph-name="R" unicode="R" horiz-adv-x="1391" 
d="M436 1229v-483h298c82 0 145.5 21 190.5 63s67.5 101.333 67.5 178c0 75.333 -23.5 134.5 -70.5 177.5s-111.5 64.5 -193.5 64.5h-292zM436 541v-540.999h-258v1443h586c151.333 0 271.333 -40.5 360 -121.5s133 -190.833 133 -329.5c0 -96 -24 -180.833 -72 -254.5
s-114.667 -125.834 -200 -156.501l315 -581h-295l-283 541h-286z" />
    <glyph glyph-name="S" unicode="S" horiz-adv-x="1354" 
d="M112 392l252.006 0.00488281c8 -64.667 41.667 -116.167 101 -154.5s134.666 -57.5 225.999 -57.5c85.333 0 155.5 19.5 210.5 58.5s82.5 88.833 82.5 149.5c0 52 -20.833 94.333 -62.5 127s-108.834 59.667 -201.501 81l-187 43
c-130.667 29.333 -227.5 77.166 -290.5 143.499s-94.5 153.166 -94.5 260.499c0 131.333 49.167 236.833 147.5 316.5s228.166 119.5 389.499 119.5c151.333 0 276.666 -39.333 375.999 -118s152 -180 158 -304h-247c-8.66699 63.333 -39 113.666 -91 150.999
s-117.667 56 -197 56c-83.333 0 -150.166 -18.5 -200.499 -55.5s-75.5 -86.167 -75.5 -147.5c0 -48.667 19.667 -88.167 59 -118.5s103.666 -55.833 192.999 -76.5l166 -38c146 -32.667 251.833 -81.334 317.5 -146.001s98.5 -152 98.5 -262
c0 -140.667 -50.833 -251.834 -152.5 -333.501s-239.834 -122.5 -414.501 -122.5c-165.333 0 -298.833 38.667 -400.5 116s-155.834 181.333 -162.501 312z" />
    <glyph glyph-name="T" unicode="T" horiz-adv-x="1332" 
d="M795 0h-258v1220h-444v223h1147v-223h-445v-1220z" />
    <glyph glyph-name="U" unicode="U" horiz-adv-x="1549" 
d="M439 1443l0.000976562 -922c0 -99.333 29.667 -178.5 89 -237.5s141.666 -88.5 246.999 -88.5s187.5 29.5 246.5 88.5s88.5 138.167 88.5 237.5v922h258v-946c0 -159.333 -53.667 -288 -161 -386s-251.333 -147 -432 -147s-324.667 49 -432 147s-161 226.667 -161 386
v946h257z" />
    <glyph glyph-name="V" unicode="V" horiz-adv-x="1442" 
d="M872 0h-297l-504 1443h285l363 -1142h17l360 1142h275z" />
    <glyph glyph-name="W" unicode="W" horiz-adv-x="2036" 
d="M1010 1022l-292 -1022h-243l-387 1443h269l247 -1074h15l284 1074h229l288 -1074h14l247 1074h267l-387 -1443h-242l-294 1022h-15z" />
    <glyph glyph-name="X" unicode="X" horiz-adv-x="1456" 
d="M89 0l472 727l-468 716h305l329 -530h17l334 530h290l-484 -722l476 -721h-298l-335 518h-17l-340 -518h-281z" />
    <glyph glyph-name="Y" unicode="Y" horiz-adv-x="1412" 
d="M835 0h-258v564l-506 879h283l344 -617h17l343 617h283l-506 -879v-564z" />
    <glyph glyph-name="Z" unicode="Z" horiz-adv-x="1373" 
d="M138 0v176l759 1027v17h-738v223h1057v-176l-756 -1027v-17h775v-223h-1097z" />
    <glyph glyph-name="bracketleft" unicode="[" horiz-adv-x="843" 
d="M258 1517h510v-191h-271v-1444h271v-191h-510v1826z" />
    <glyph glyph-name="backslash" unicode="\" horiz-adv-x="753" 
d="M522 -309l-522 1826h231l522 -1826h-231z" />
    <glyph glyph-name="bracketright" unicode="]" horiz-adv-x="843" 
d="M586 1517v-1826h-511v191h271v1444h-271v191h511z" />
    <glyph glyph-name="asciicircum" unicode="^" horiz-adv-x="1036" 
d="M509 1218l-196 -443h-222l310 637h234l311 -637h-223l-196 443h-18z" />
    <glyph glyph-name="underscore" unicode="_" horiz-adv-x="934" 
d="M939 -298h-944v191h944v-191z" />
    <glyph glyph-name="grave" unicode="`" horiz-adv-x="1096" 
d="M810 1275h-242l-284 347h277z" />
    <glyph glyph-name="a" unicode="a" horiz-adv-x="1179" 
d="M526 177c74.667 0 137 21.499 187 64.499s75 96.167 75 159.5v87l-247 -16c-136 -8.66699 -204 -58 -204 -148c0 -45.333 17.5 -81.166 52.5 -107.499s80.5 -39.5 136.5 -39.5zM453 -18.001c-106.667 0 -193.669 30.0029 -261.002 90.0029s-101 139.333 -101 238
s35.833 176 107.5 232s174.167 88 307.5 96l282 17v92c0 54 -17.667 95.333 -53 124s-86.333 43 -153 43c-57.333 0 -104.666 -9.83301 -141.999 -29.5s-61.666 -47.834 -72.999 -84.501h-234c10 96.667 56.833 173.5 140.5 230.5s190.5 85.5 320.5 85.5
c140 0 248.167 -32.333 324.5 -97s114.5 -155.334 114.5 -272.001v-747h-239v150h-17c-30.667 -52.667 -74.5 -93.834 -131.5 -123.501s-121.167 -44.5 -192.5 -44.5z" />
    <glyph glyph-name="b" unicode="b" horiz-adv-x="1306" 
d="M760 -18c-76.667 0 -145 16.834 -205 50.501s-105.667 80.5 -137 140.5h-17v-173h-239v1517h248v-597h17c28.667 59.333 72.667 106.166 132 140.499s126.333 51.5 201 51.5c138.667 0 248.167 -50.5 328.5 -151.5s120.5 -238.833 120.5 -413.5
c0 -174 -40.333 -311.667 -121 -413s-190 -152 -328 -152zM682 901.001c-84.667 0 -151.834 -31.833 -201.501 -95.5s-74.5 -149.834 -74.5 -258.501c0 -109.333 24.833 -195.666 74.5 -258.999s116.834 -95 201.501 -95s151.167 31.5 199.5 94.5s72.5 149.5 72.5 259.5
s-24.167 196.5 -72.5 259.5s-114.833 94.5 -199.5 94.5z" />
    <glyph glyph-name="c" unicode="c" horiz-adv-x="1182" 
d="M1097 726h-236.002c-12 55.333 -38.667 99.5 -80 132.5s-95 49.5 -161 49.5c-85.333 0 -151.833 -31.333 -199.5 -94s-71.5 -150.667 -71.5 -264c0 -114.667 24 -204 72 -268s114.333 -96 199 -96c64.667 0 117.834 15 159.501 45s68.834 73.333 81.501 130h236
c-14 -116.667 -62.833 -209.667 -146.5 -279s-193.5 -104 -329.5 -104c-164.667 0 -293 50.333 -385 151s-138 241 -138 421c0 178 46 316.833 138 416.5s220 149.5 384 149.5c137.333 0 247.833 -35.5 331.5 -106.5s132.167 -165.5 145.5 -283.5z" />
    <glyph glyph-name="d" unicode="d" horiz-adv-x="1306" 
d="M548 -18c-138.667 0 -248.334 50.832 -329.001 152.499s-121 239.5 -121 413.5c0 172.667 40.5 309.834 121.5 411.501s190.5 152.5 328.5 152.5c74.667 0 141.334 -17 200.001 -51s102.667 -81 132 -141h17v597h248v-1517h-240v173h-17
c-31.333 -60 -76.833 -106.833 -136.5 -140.5s-127.5 -50.5 -203.5 -50.5zM625 900.999c-84.667 0 -151.332 -31.498 -199.999 -94.498s-73 -149.5 -73 -259.5c0 -110.667 24.167 -197.334 72.5 -260.001s115.166 -94 200.499 -94s152.5 31.5 201.5 94.5
s73.5 149.5 73.5 259.5c0 109.333 -24.667 195.666 -74 258.999s-116.333 95 -201 95z" />
    <glyph glyph-name="e" unicode="e" horiz-adv-x="1208" 
d="M611 919c-74 0 -135 -24.333 -183 -73s-74.667 -113 -80 -193h515c-2.66699 81.333 -26.667 146 -72 194s-105.333 72 -180 72zM865 301l235.001 0.000976562c-23.333 -100 -78.166 -178.833 -164.499 -236.5s-193.5 -86.5 -321.5 -86.5
c-160.667 0 -286.834 50.167 -378.501 150.5s-137.5 238.5 -137.5 414.5s46 315.5 138 418.5s217.333 154.5 376 154.5c156 0 278.167 -48.833 366.5 -146.5s132.5 -232.834 132.5 -405.501v-80h-764v-13c3.33301 -91.333 29.5 -163.5 78.5 -216.5
s114.167 -79.5 195.5 -79.5c125.333 0 206.666 42 243.999 126z" />
    <glyph glyph-name="f" unicode="f" horiz-adv-x="801" 
d="M232 0l-0.000976562 889h-179v198h179v115c0 109.333 28.833 191 86.5 245s146.834 81 267.501 81c50 0 96 -3.66699 138 -11v-182c-22 3.33301 -50.333 5 -85 5c-57.333 0 -98.833 -12.5 -124.5 -37.5s-38.5 -63.833 -38.5 -116.5v-99h238v-198h-235v-889h-247z" />
    <glyph glyph-name="g" unicode="g" horiz-adv-x="1295" 
d="M622 218c86 0 153.667 30.665 203 91.998s74 144.333 74 249s-24.667 187.834 -74 249.501s-117 92.5 -203 92.5c-85.333 0 -151.833 -30.667 -199.5 -92s-71.5 -144.666 -71.5 -249.999s23.667 -188.5 71 -249.5s114 -91.5 200 -91.5zM622 -416.002
c-139.333 0 -252.5 28.333 -339.5 85s-135.5 132.334 -145.5 227.001h249c8 -38 33.167 -68 75.5 -90s97.166 -33 164.499 -33c84.667 0 150.667 19 198 57s71 91.333 71 160v207h-17c-31.333 -58.667 -75.833 -103.5 -133.5 -134.5s-124.5 -46.5 -200.5 -46.5
c-137.333 0 -246.333 49.167 -327 147.5s-121 230.166 -121 395.499c0 168 40.667 302.167 122 402.5s191.333 150.5 330 150.5c74.667 0 142.334 -17.333 203.001 -52s106 -81.667 136 -141h17v175h239v-1098c0 -126.667 -47 -227 -141 -301s-220.667 -111 -380 -111z" />
    <glyph glyph-name="h" unicode="h" horiz-adv-x="1274" 
d="M162 0v1517h244v-600h18c26 62 67.667 110.333 125 145s126.333 52 207 52c118 0 210.167 -35.667 276.5 -107s99.5 -171.666 99.5 -300.999v-706h-248v647c0 82.667 -18.667 145.167 -56 187.5s-92 63.5 -164 63.5c-80 0 -142.333 -23.833 -187 -71.5
s-67 -111.5 -67 -191.5v-635h-248z" />
    <glyph glyph-name="i" unicode="i" horiz-adv-x="557" 
d="M155 0v1094h247v-1094h-247zM278 1272c-44.667 0 -81.334 12.833 -110.001 38.5s-43 58.5 -43 98.5s14.333 72.833 43 98.5s65.334 38.5 110.001 38.5c45.333 0 82.166 -12.833 110.499 -38.5s42.5 -58.5 42.5 -98.5s-14.167 -72.833 -42.5 -98.5
s-65.166 -38.5 -110.499 -38.5z" />
    <glyph glyph-name="j" unicode="j" horiz-adv-x="557" 
d="M402 1094v-1135c0 -222 -122.667 -333 -368 -333c-26 0 -46 1 -60 3v195c0.666992 0 5.66699 -0.166992 15 -0.5s15 -0.5 17 -0.5c54.667 0 93.167 10.833 115.5 32.5s33.5 57.5 33.5 107.5v1131h247zM278 1272c-44.667 0 -81.334 12.833 -110.001 38.5
s-43 58.5 -43 98.5s14.333 72.833 43 98.5s65.334 38.5 110.001 38.5c45.333 0 82.166 -12.833 110.499 -38.5s42.5 -58.5 42.5 -98.5s-14.167 -72.833 -42.5 -98.5s-65.166 -38.5 -110.499 -38.5z" />
    <glyph glyph-name="k" unicode="k" horiz-adv-x="1188" 
d="M427 648l404 446h288l-436 -469l466 -625h-300l-351 469l-88 -88v-381h-248v1517h248v-869h17z" />
    <glyph glyph-name="l" unicode="l" horiz-adv-x="571" 
d="M162 0v1517h248v-1517h-248z" />
    <glyph glyph-name="m" unicode="m" horiz-adv-x="1856" 
d="M152 0l0.00292969 1094h239v-177h17c23.333 62.667 61.666 111.5 114.999 146.5s116.333 52.5 189 52.5c74 0 137 -17.5 189 -52.5s89.667 -83.833 113 -146.5h17c27.333 60.667 70.666 109 129.999 145s126.666 54 201.999 54c109.333 0 195.166 -32.333 257.499 -97
s93.5 -153.667 93.5 -267v-752h-247v689c0 140.667 -66.667 211 -200 211c-64 0 -115.667 -20.667 -155 -62s-59 -93.666 -59 -156.999v-681h-241v707c0 60 -17.667 107.167 -53 141.5s-83.666 51.5 -144.999 51.5s-112.333 -22.333 -153 -67s-61 -100.667 -61 -168v-665
h-248z" />
    <glyph glyph-name="n" unicode="n" horiz-adv-x="1252" 
d="M152 0v1094h239v-175h17c26.667 62.667 67.5 111.167 122.5 145.5s122.5 51.5 202.5 51.5c121.333 0 214.5 -35.333 279.5 -106s97.5 -171.334 97.5 -302.001v-708h-248v649c0 167.333 -73.667 251 -221 251c-74 0 -132.667 -23.667 -176 -71s-65 -111.333 -65 -192v-637
h-248z" />
    <glyph glyph-name="o" unicode="o" horiz-adv-x="1248" 
d="M624 -22c-164 0 -292.667 50.5 -386 151.5s-140 240.167 -140 417.5c0 176 47 314.833 141 416.5s222.333 152.5 385 152.5c163.333 0 291.833 -50.667 385.5 -152s140.5 -240.333 140.5 -417c0 -177.333 -46.833 -316.5 -140.5 -417.5s-222.167 -151.5 -385.5 -151.5z
M624 186c86.667 0 153.5 31.5 200.5 94.5s70.5 151.833 70.5 266.5c0 114 -23.667 202.667 -71 266s-114 95 -200 95c-86.667 0 -153.667 -31.667 -201 -95s-71 -152 -71 -266c0 -114.667 23.667 -203.5 71 -266.5s114.333 -94.5 201 -94.5z" />
    <glyph glyph-name="p" unicode="p" horiz-adv-x="1296" 
d="M748 1112c138.667 0 248.501 -50.333 329.501 -151s121.5 -238.667 121.5 -414c0 -174.667 -40.167 -312.5 -120.5 -413.5s-189.5 -151.5 -327.5 -151.5c-78 0 -146.167 16.167 -204.5 48.5s-101.5 77.5 -129.5 135.5h-17v-530h-248v1458h239v-181h17
c31.333 62 77.166 110.667 137.499 146s127.833 53 202.5 53zM670.001 193c86 0 153.166 31.3291 201.499 93.9961s72.5 149.334 72.5 260.001s-24.167 197.334 -72.5 260.001s-115.166 94 -200.499 94c-84.667 0 -151.667 -31.667 -201 -95s-74.333 -149.666 -75 -258.999
c0.666992 -109.333 25.5 -195.666 74.5 -258.999s115.833 -95 200.5 -95z" />
    <glyph glyph-name="q" unicode="q" horiz-adv-x="1296" 
d="M549 1112c74 0 141.334 -17.834 202.001 -53.501s106 -84.167 136 -145.5h17v181h241v-1458h-250v530h-17c-32 -59.333 -76.333 -104.833 -133 -136.5s-123.334 -47.5 -200.001 -47.5c-138 0 -247 50.833 -327 152.5s-120 239.5 -120 413.5
c0 172.667 40.667 309.834 122 411.501s191 152.5 329 152.5zM623.001 192.999c85.333 0 152.834 31.667 202.501 95s74.5 149.666 74.5 258.999c0 108.667 -24.833 194.834 -74.5 258.501s-116.834 95.5 -201.501 95.5s-151.167 -31.333 -199.5 -94
s-72.5 -149.334 -72.5 -260.001c0 -111.333 24 -198.166 72 -260.499s114.333 -93.5 199 -93.5z" />
    <glyph glyph-name="r" unicode="r" horiz-adv-x="851" 
d="M152 0v1094h239v-170h17c15.333 54.667 49.833 99.667 103.5 135s115.5 53 185.5 53c44.667 0 79 -3.66699 103 -11v-230c-25.333 9.33301 -67.666 14 -126.999 14c-80.667 0 -146.334 -23.167 -197.001 -69.5s-76 -107.5 -76 -183.5v-632h-248z" />
    <glyph glyph-name="s" unicode="s" horiz-adv-x="1128" 
d="M127 781c0 98.667 40.6689 179.167 122.002 241.5s186.666 93.5 315.999 93.5c130 0 233.833 -27.5 311.5 -82.5s120.834 -132.167 129.501 -231.5h-233c-9.33301 39.333 -31.833 70.166 -67.5 92.499s-82.167 33.5 -139.5 33.5s-104.666 -12.333 -141.999 -37
s-56 -56.667 -56 -96c0 -30.667 13.167 -56 39.5 -76s67.166 -36.333 122.499 -49l193 -44c105.333 -24 182.666 -59.667 231.999 -107s74 -111 74 -191c0 -104.667 -43.333 -189.167 -130 -253.5s-198.667 -96.5 -336 -96.5c-136.667 0 -245.834 28 -327.501 84
s-127.167 133.667 -136.5 233h245c12 -41.333 37.167 -73.166 75.5 -95.499s88.166 -33.5 149.499 -33.5c62.667 0 113.667 12.5 153 37.5s59 57.833 59 98.5c0 60.667 -50.333 102 -151 124l-194 45c-105.333 24 -183.166 61.167 -233.499 111.5s-75.5 116.5 -75.5 198.5z
" />
    <glyph glyph-name="t" unicode="t" horiz-adv-x="808" 
d="M231 1362h246.998v-275h234v-198h-234v-537c0 -54 12 -93.5 36 -118.5s62 -37.5 114 -37.5c22.667 0 50.667 1.66699 84 5v-194c-41.333 -8 -84.666 -12 -129.999 -12c-125.333 0 -215.166 23 -269.499 69s-81.5 122 -81.5 228v597h-173v198h173v275z" />
    <glyph glyph-name="u" unicode="u" horiz-adv-x="1256" 
d="M1104 1094v-1094h-239v174h-17c-55.333 -130.667 -164.333 -196 -327 -196c-119.333 0 -212.333 35.5 -279 106.5s-100 170.5 -100 298.5v711h248v-649c0 -84 17.667 -146.5 53 -187.5s90 -61.5 164 -61.5c80 0 141.5 23 184.5 69s64.5 110 64.5 192v637h248z" />
    <glyph glyph-name="v" unicode="v" horiz-adv-x="1163" 
d="M1106 1094l-387 -1094h-273l-389 1094h266l253 -846h17l251 846h262z" />
    <glyph glyph-name="w" unicode="w" horiz-adv-x="1681" 
d="M1617 1094l-296 -1094h-261l-213 788h-17l-212 -788h-258l-296 1094h250l182 -817h17l210 817h237l212 -817h17l181 817h247z" />
    <glyph glyph-name="x" unicode="x" horiz-adv-x="1149" 
d="M578 377h-17l-224 -377h-267l354 543l-357 551h287l218 -376h17l216 376h273l-353 -541l357 -553h-280z" />
    <glyph glyph-name="y" unicode="y" horiz-adv-x="1183" 
d="M272 -397c-51.333 0 -84.001 1.33301 -98.001 4v203c12.667 -2.66699 35.334 -4 68.001 -4c52.667 0 94.5 11 125.5 33s54.5 58 70.5 108l13 48l-391 1099h272l256 -854h17l255 854h262l-395 -1129c-46 -135.333 -102.5 -229.5 -169.5 -282.5
s-162.167 -79.5 -285.5 -79.5z" />
    <glyph glyph-name="z" unicode="z" horiz-adv-x="1140" 
d="M127 0v155l581 722v17h-576v200h872v-169l-560 -708v-17h569v-200h-886z" />
    <glyph glyph-name="braceleft" unicode="{" horiz-adv-x="843" 
d="M296 591c81.333 -8.66699 142.833 -33.5 184.5 -74.5s62.5 -97.5 62.5 -169.5v-262c0 -73.333 14 -125.5 42 -156.5s74.667 -46.5 140 -46.5h43v-191h-67c-137.333 0 -237.5 29.333 -300.5 88s-94.5 151.667 -94.5 279v215c0 75.333 -17.333 128.5 -52 159.5
s-94.334 46.833 -179.001 47.5v252c84.667 0 144.334 15.5 179.001 46.5s52 84.167 52 159.5v215c0 126.667 31.5 219 94.5 277s163.167 87 300.5 87h67v-191h-43c-65.333 0 -112 -15.5 -140 -46.5s-42 -83.167 -42 -156.5v-258c0 -72 -20.833 -128.5 -62.5 -169.5
s-103.167 -65.833 -184.5 -74.5v-30z" />
    <glyph glyph-name="bar" unicode="|" horiz-adv-x="753" 
d="M490 -309h-227v1826h227v-1826z" />
    <glyph glyph-name="braceright" unicode="}" horiz-adv-x="843" 
d="M547 591l0.000976562 30.002c-164 17.333 -246 98.666 -246 243.999v258c0 73.333 -14 125.5 -42 156.5s-75 46.5 -141 46.5h-43v191h67c137.333 0 237.5 -29 300.5 -87s94.5 -150.333 94.5 -277v-215c0 -75.333 17.333 -128.5 52 -159.5s94.334 -46.5 179.001 -46.5
v-252c-84.667 -0.666992 -144.334 -16.5 -179.001 -47.5s-52 -84.167 -52 -159.5v-215c0 -127.333 -31.5 -220.333 -94.5 -279s-163.167 -88 -300.5 -88h-67v191h43c65.333 0 112.166 15.667 140.499 47s42.5 83.333 42.5 156v262c0 145.333 82 226.666 246 243.999z" />
    <glyph glyph-name="asciitilde" unicode="~" horiz-adv-x="1216" 
d="M562 627c-32.667 32.667 -59.667 55.5 -81 68.5s-42.666 19.5 -63.999 19.5c-80 0 -122.333 -59.333 -127 -178h-203c-0.666992 128.667 25.333 227.5 78 296.5s131.667 103.5 237 103.5c44.667 0 86.5 -10 125.5 -30s82.167 -53 129.5 -99c32 -32 58.667 -54.5 80 -67.5
s42.333 -19.5 63 -19.5c79.333 0 121.666 59.667 126.999 179h203c0 -266.667 -103.667 -400 -311 -400c-46 0 -88.833 9.83301 -128.5 29.5s-82.5 52.167 -128.5 97.5z" />
    <glyph glyph-name="nonbreakingspace" unicode="&#xa0;" horiz-adv-x="546" 
 />
    <glyph glyph-name="exclamdown" unicode="&#xa1;" horiz-adv-x="696" 
d="M209 -329l23 967h231l23 -967h-277zM348 822c-50.667 0 -91 14.5 -121 43.5s-45 67.833 -45 116.5c0 48 15 86.333 45 115s70.333 43 121 43s91 -14.333 121 -43s45 -67 45 -115c0 -48.667 -15 -87.5 -45 -116.5s-70.333 -43.5 -121 -43.5z" />
    <glyph glyph-name="cent" unicode="&#xa2;" horiz-adv-x="1383" 
d="M1221 521c-12 -102 -54.5 -186.167 -127.5 -252.5s-166.167 -107.5 -279.5 -123.5v-178h-217v182c-132 23.333 -238 84.833 -318 184.5s-120 224.834 -120 375.501c0 149.333 40 273.5 120 372.5s186 159.833 318 182.5v183h217v-179c110.667 -18 203.167 -61 277.5 -129
s117.5 -152.333 129.5 -253h-236c-16.667 56 -49 100.167 -97 132.5s-105.333 48.5 -172 48.5c-88 0 -160.833 -32.333 -218.5 -97s-86.5 -151.667 -86.5 -261c0 -110.667 28.833 -198.834 86.5 -264.501s130.167 -98.5 217.5 -98.5c72.667 0 132.5 15.333 179.5 46
s77.167 73.667 90.5 129h236z" />
    <glyph glyph-name="sterling" unicode="&#xa3;" horiz-adv-x="1383" 
d="M497 220l740 0.00292969v-220h-1101v208c89.333 15.333 162.5 54.166 219.5 116.499s85.5 134.5 85.5 216.5c0 34 -4 67 -12 99h-290v188h228c-40 104.667 -60 188 -60 250c0 126 47.833 224.333 143.5 295s228.834 106 399.501 106c60 0 119.5 -4.83301 178.5 -14.5
s105.833 -21.834 140.5 -36.501v-213c-30.667 14.667 -73.5 27 -128.5 37s-109.5 15 -163.5 15c-98 0 -174.333 -19.167 -229 -57.5s-82 -92.166 -82 -161.499c0 -56 17 -129.333 51 -220h435v-188h-375c6 -28 9 -56 9 -84c0 -70.667 -17.833 -134.834 -53.5 -192.501
s-80.834 -99.834 -135.501 -126.501v-17z" />
    <glyph glyph-name="currency" unicode="&#xa4;" horiz-adv-x="1383" 
d="M447 651c0 -66.667 24.167 -124 72.5 -172s105.833 -72 172.5 -72c67.333 0 125.166 24 173.499 72s72.5 105.333 72.5 172s-24.167 124 -72.5 172s-106.166 72 -173.499 72c-66.667 0 -124.167 -24 -172.5 -72s-72.5 -105.333 -72.5 -172zM1215 1029l-155.001 -156
c40.667 -68 61 -142 61 -222s-20.333 -154 -61 -222l155 -156l-145 -148l-156 156c-67.333 -42 -141.333 -63 -222 -63c-81.333 0 -155.666 21.333 -222.999 64l-156 -157l-144 148l156 156c-40.667 68 -61 142 -61 222s20.333 154 61 222l-156 156l144 148l156 -156
c68 42 142.333 63 223 63s154.667 -21 222 -63l156 156z" />
    <glyph glyph-name="yen" unicode="&#xa5;" horiz-adv-x="1383" 
d="M1094 229h-274v-229h-257v229h-273v157h273v145h-273v157h205l-438 755h283l343 -617h18l343 617h282l-438 -755h206v-157h-274v-145h274v-157z" />
    <glyph glyph-name="brokenbar" unicode="&#xa6;" horiz-adv-x="753" 
d="M490 788h-227v729h227v-729zM490 -309h-227v729h227v-729z" />
    <glyph glyph-name="section" unicode="&#xa7;" horiz-adv-x="1032" 
d="M459 434l98.999 -30.001c48 3.33301 88.167 20 120.5 50s48.5 65.667 48.5 107c0 35.333 -13.167 65.833 -39.5 91.5s-63.833 44.834 -112.5 57.501l-100 31c-47.333 -4 -87.333 -21.333 -120 -52s-49 -66 -49 -106c0 -34.667 13.333 -65 40 -91
s64.334 -45.333 113.001 -58zM516.999 -276.001c-120.667 0 -220.505 29.833 -299.505 89.5s-121.167 137.167 -126.5 232.5h225c5.33301 -40 27.166 -72.5 65.499 -97.5s85.5 -37.5 141.5 -37.5c57.333 0 104 12.833 140 38.5s54 58.834 54 99.501
c0 32 -13.167 58.667 -39.5 80s-68.833 40.333 -127.5 57l-163 52c-107.333 33.333 -185.333 73.5 -234 120.5s-73 105.833 -73 176.5c0 62.667 19.333 117.5 58 164.5s92.334 80.833 161.001 101.5v17c-72 31.333 -125.167 69.166 -159.5 113.499s-51.5 97.833 -51.5 160.5
c0 98.667 39 178 117 238s180.667 90 308 90c118.667 0 215.834 -28.5 291.501 -85.5s117.834 -133.5 126.501 -229.5h-222c-6 38.667 -27 69.667 -63 93s-81.333 35 -136 35c-56.667 0 -102.5 -12.667 -137.5 -38s-52.5 -58.333 -52.5 -99c0 -32 12.833 -58.667 38.5 -80
s67.834 -40.666 126.501 -57.999l159 -52c107.333 -33.333 185.5 -73.166 234.5 -119.499s73.5 -103.5 73.5 -171.5c0 -66 -22.167 -124.833 -66.5 -176.5s-102.166 -85.834 -173.499 -102.501v-18c80 -25.333 139 -59.333 177 -102s57 -96.334 57 -161.001
c0 -98 -39.667 -177.667 -119 -239s-182.666 -92 -309.999 -92z" />
    <glyph glyph-name="dieresis" unicode="&#xa8;" horiz-adv-x="1145" 
d="M350 1265c-40.667 0 -74.667 13.5 -102 40.5s-41 60.5 -41 100.5s13.667 73.5 41 100.5s61.333 40.5 102 40.5s74.667 -13.5 102 -40.5s41 -60.5 41 -100.5s-13.667 -73.5 -41 -100.5s-61.333 -40.5 -102 -40.5zM795 1265c-40.667 0 -74.667 13.5 -102 40.5
s-41 60.5 -41 100.5s13.667 73.5 41 100.5s61.333 40.5 102 40.5s74.667 -13.5 102 -40.5s41 -60.5 41 -100.5s-13.667 -73.5 -41 -100.5s-61.333 -40.5 -102 -40.5z" />
    </font>
</defs>
</svg>
